<svg width="30" height="41" viewBox="0 0 30 41" fill="none" xmlns="http://www.w3.org/2000/svg">
<g id="Lesser_Coat_of_Arms_of_Ukraine 1" clip-path="url(#clip0_702_136)">
<path id="Vector" d="M0.719727 0.222412H29.2803V30.9057C29.2803 31.9816 28.9718 33.0344 28.3922 33.9363C27.8126 34.8382 26.9869 35.5505 26.0151 35.9868L15 40.7097L3.98496 35.7644C3.0132 35.3281 2.18743 34.6158 1.60784 33.7139C1.02824 32.812 0.719727 31.7593 0.719727 30.6834V0.222412Z" fill="#005BBB" stroke="#FFD500" stroke-width="0.520607"/>
<path id="Vector_2" d="M16.0519 14.0207C15.93 17.5113 16.7863 20.9657 18.5219 23.9847C19.6879 26.0128 20.0947 28.3976 19.6682 30.704C19.2418 33.0105 18.0104 35.085 16.1986 36.5492C15.703 36.8586 15.291 37.2878 14.9999 37.7982C14.7087 37.2878 14.2968 36.8586 13.8011 36.5492C11.9894 35.085 10.758 33.0105 10.3315 30.704C9.90498 28.3976 10.3118 26.0128 11.4778 23.9847C13.2134 20.9657 14.0698 17.5113 13.9479 14.0207L13.6667 5.97001C13.6187 4.59413 14.0961 3.25238 14.9999 2.22339C15.9036 3.25238 16.3811 4.59413 16.333 5.97001L16.0519 14.0207ZM15.8786 34.4408C17.0658 33.1863 17.8174 31.575 18.0202 29.8502C18.223 28.1253 17.8659 26.3806 17.0027 24.8792C16.132 23.3645 15.4588 21.7421 14.9999 20.0525C14.541 21.7421 13.8677 23.3645 12.997 24.8792C12.1338 26.3806 11.7767 28.1253 11.9795 29.8502C12.1823 31.575 12.9339 33.1863 14.1211 34.4408V28.9045H15.8786V34.4408Z" fill="#FFD500"/>
<path id="a" d="M19.8824 13.3718C20.0881 11.6032 20.7097 9.91028 21.6949 8.43482C22.6802 6.95935 24.0006 5.74435 25.5453 4.8916V30.6834H14.9999L14.1211 28.9046C14.1211 27.9958 14.4267 27.1141 14.9877 26.4045C15.5486 25.6948 16.3315 25.1996 17.2076 25.0001L19.7796 24.4144C20.0051 24.363 20.2183 24.2672 20.4071 24.1324C20.5959 23.9975 20.7566 23.8263 20.88 23.6286C21.0034 23.4308 21.087 23.2104 21.1261 22.9799C21.1651 22.7494 21.1589 22.5133 21.1078 22.2853C21.0566 22.0572 20.9615 21.8416 20.8279 21.6507C20.6943 21.4599 20.5249 21.2976 20.3292 21.1731C20.1336 21.0487 19.9156 20.9645 19.6878 20.9253C19.46 20.8862 19.2267 20.893 19.0015 20.9452L19.8824 13.3718ZM20.9366 19.4825C21.5909 19.8059 22.1297 20.327 22.4788 20.9737C22.8278 21.6203 22.9698 22.3608 22.8851 23.0926C22.8005 23.8245 22.4933 24.5117 22.0062 25.0594C21.519 25.607 20.8758 25.988 20.1654 26.1497L17.5934 26.7354C17.1067 26.8462 16.6717 27.1214 16.3601 27.5157C16.0485 27.9099 15.8787 28.3997 15.8787 28.9046H23.7878V8.58524C22.5959 9.99456 21.8445 11.7303 21.6288 13.5724L20.9366 19.4825ZM22.3817 21.7896H24.1393V23.5684H22.3817V21.7896Z" fill="#FFD500"/>
<path id="a_2" d="M10.1171 13.3718C9.9114 11.6032 9.28985 9.91028 8.30457 8.43482C7.31928 6.95935 5.99894 5.74435 4.45418 4.8916V30.6834H14.9996L15.8784 28.9046C15.8784 27.9958 15.5728 27.1141 15.0119 26.4045C14.4509 25.6948 13.668 25.1996 12.7919 25.0001L10.2199 24.4144C9.99443 24.363 9.78119 24.2672 9.59238 24.1324C9.40356 23.9975 9.24288 23.8263 9.11951 23.6286C8.99615 23.4308 8.91253 23.2104 8.87345 22.9799C8.83436 22.7494 8.84058 22.5133 8.89173 22.2853C8.94289 22.0572 9.03799 21.8416 9.17158 21.6507C9.30517 21.4599 9.47464 21.2976 9.67028 21.1731C9.86592 21.0487 10.0839 20.9645 10.3117 20.9253C10.5396 20.8862 10.7728 20.893 10.998 20.9452L10.1171 13.3718ZM9.06287 19.4825C8.40864 19.8059 7.86979 20.327 7.52076 20.9737C7.17172 21.6203 7.02972 22.3608 7.11438 23.0926C7.19904 23.8245 7.50617 24.5117 7.99335 25.0594C8.48054 25.607 9.12372 25.988 9.83407 26.1497L12.4061 26.7354C12.8928 26.8462 13.3278 27.1214 13.6394 27.5157C13.9511 27.9099 14.1208 28.3997 14.1208 28.9046H6.21175V8.58524C7.40358 9.99456 8.15501 11.7303 8.37074 13.5724L9.06287 19.4825ZM7.61781 21.7896H5.86024V23.5684H7.61781V21.7896Z" fill="#FFD500"/>
</g>
<defs>
<clipPath id="clip0_702_136">
<rect width="29" height="41" fill="white" transform="translate(0.5)"/>
</clipPath>
</defs>
</svg>
