<svg xmlns="http://www.w3.org/2000/svg" xmlns:xlink="http://www.w3.org/1999/xlink" viewBox="0 0 391.16 67.11">
  <defs>
    <clipPath id="a" transform="translate(0 0)">
      <rect y="4" width="253" height="40" fill="none"/>
    </clipPath>
    <clipPath id="b" transform="translate(0 0)">
      <rect x="277" width="114" height="67" fill="none"/>
    </clipPath>
  </defs>
  <title>logo</title>
  <g>
    <g clip-path="url(#a)">
      <g>
        <path d="M120.8,19.65A20,20,0,0,0,114.52,9,20.39,20.39,0,0,0,91,6.62a20.08,20.08,0,0,0-8.35,9.12,20.06,20.06,0,0,0-7.46-8.62,20.4,20.4,0,0,0-22,0,20.06,20.06,0,0,0-7.46,8.62,20.08,20.08,0,0,0-8.35-9.12A20.39,20.39,0,0,0,13.8,9,20,20,0,0,0,7.52,19.65H0l1.42,3.48h9.14A16.44,16.44,0,0,1,15.73,12a16.83,16.83,0,0,1,23,0,16.44,16.44,0,0,1,5.16,11.16h3.56A16.44,16.44,0,0,1,52.64,12a16.83,16.83,0,0,1,23,0,16.44,16.44,0,0,1,5.16,11.16H84.4A16.44,16.44,0,0,1,89.56,12a16.83,16.83,0,0,1,23,0,16.44,16.44,0,0,1,5.16,11.16h9.14l1.42-3.48ZM101,9.21a15,15,0,0,0-10.26,4,14.73,14.73,0,0,0-4.66,9.9h29.83a14.68,14.68,0,0,0-4.64-9.89,15,15,0,0,0-10.24-4Zm0,3.48a11.44,11.44,0,0,1,6.38,1.88,11.26,11.26,0,0,1,4.22,5.09H90.53a11.27,11.27,0,0,1,4.19-5.07,11.44,11.44,0,0,1,6.34-1.9ZM27.26,9.21a15,15,0,0,0-10.27,4,14.69,14.69,0,0,0-4.65,9.91H42.18a14.73,14.73,0,0,0-4.66-9.9A15,15,0,0,0,27.26,9.21ZM16.7,19.65a11.35,11.35,0,0,1,4.21-5,11.54,11.54,0,0,1,12.66,0,11.35,11.35,0,0,1,4.21,5Zm84.36,20.86A16.8,16.8,0,0,1,89.57,36,16.44,16.44,0,0,1,84.4,24.86H80.84A16.44,16.44,0,0,1,75.68,36a16.83,16.83,0,0,1-23,0,16.44,16.44,0,0,1-5.16-11.16H43.92A16.44,16.44,0,0,1,38.76,36a16.83,16.83,0,0,1-23,0,16.44,16.44,0,0,1-5.16-11.16H2.1l1.42,3.48h4A20,20,0,0,0,13.76,39a20.39,20.39,0,0,0,23.55,2.41,20.08,20.08,0,0,0,8.35-9.12,20.06,20.06,0,0,0,7.46,8.62,20.41,20.41,0,0,0,22,0,20.06,20.06,0,0,0,7.46-8.62,20.08,20.08,0,0,0,8.35,9.12A20.39,20.39,0,0,0,114.48,39a20,20,0,0,0,6.28-10.62h4l1.43-3.48h-8.39A16.47,16.47,0,0,1,112.56,36,16.84,16.84,0,0,1,101.06,40.52ZM63.31,38.76V9.25a15,15,0,0,0-9.87,4.68,14.68,14.68,0,0,0,0,20.15A15,15,0,0,0,63.31,38.76ZM59.75,13.55V34.41a11.41,11.41,0,0,1-5.1-4.17,11.21,11.21,0,0,1,0-12.53A11.41,11.41,0,0,1,59.75,13.55ZM27.26,38.76a15,15,0,0,0,10.24-4,14.73,14.73,0,0,0,4.68-9.87H12.35A14.69,14.69,0,0,0,17,34.74,15,15,0,0,0,27.26,38.76Zm0-3.44a11.6,11.6,0,0,1-6.34-1.91,11.41,11.41,0,0,1-4.22-5.05H37.79a11.3,11.3,0,0,1-4.19,5.06A11.48,11.48,0,0,1,27.26,35.31ZM65.05,9.25V38.76a15,15,0,0,0,9.87-4.68,14.68,14.68,0,0,0,0-20.15A15,15,0,0,0,65.05,9.25Zm3.52,25.17V13.55a11.42,11.42,0,0,1,5.1,4.17,11.21,11.21,0,0,1,0,12.53A11.41,11.41,0,0,1,68.57,34.41Zm32.49,4.34a15,15,0,0,0,10.25-4A14.69,14.69,0,0,0,116,24.86H86.14a14.73,14.73,0,0,0,4.68,9.87A15,15,0,0,0,101.06,38.76Zm0-3.44a11.49,11.49,0,0,1-6.33-1.9,11.3,11.3,0,0,1-4.19-5.06h21.09a11.33,11.33,0,0,1-4.21,5.07A11.53,11.53,0,0,1,101.06,35.31Z" transform="translate(0 0)" fill="#fa4616"/>
        <path d="M145.89,21.38V12.69h1.82l2.53,3.6,2.53-3.6h1.78v8.69h-1.78V15.43l-2,2.82h-1l-2.06-2.82v5.95ZM157,20.67a3.12,3.12,0,0,1-1-2.39,3.19,3.19,0,0,1,.91-2.31,3.16,3.16,0,0,1,1.09-.72,3.2,3.2,0,0,1,1.29-.22,2.76,2.76,0,0,1,1.2.22,2.72,2.72,0,0,1,1,.72,3.57,3.57,0,0,1,.79,2.35v.43h-4.47c.2.86,1,1.29,2.1,1.29a3.6,3.6,0,0,0,2-.39v1.41a4,4,0,0,1-2.37.63A3.62,3.62,0,0,1,157,20.67Zm3.48-3a1.25,1.25,0,0,0-.38-.9,1.28,1.28,0,0,0-.92-.35,1.36,1.36,0,0,0-1,.33,1.33,1.33,0,0,0-.45.92Zm2.1,3.91,2.69-3.29-2.41-2.9h2l1.9,2.35V15.39h1.74v2.35l1.9-2.35h2l-2.26,2.7,2.69,3.29h-2.1l-2.1-2.62v2.62H166.9V18.75l-2.06,2.62Zm10.53,1.61V19.93h1a7.12,7.12,0,0,0,.75-3.52V15.19h5.3v4.74h1V23h-1.7v-1.6h-4.71V23Zm4.95-3.25V16.64h-2a8.18,8.18,0,0,1-.55,3.29Zm3.52,3.91V22.16a2,2,0,0,0,.95.27c.63,0,1-.39,1.39-1.25l-2.69-6h1.94l1.62,3.91,1.58-3.91h1.86L185.34,22a2.7,2.7,0,0,1-.94,1.35,2.76,2.76,0,0,1-1.56.57,2.87,2.87,0,0,1-1.11-.39Zm7.91-2.31V15.19h1.74V17.5h2.65V15.19h1.74v6.18h-1.74V19h-2.61v2.43Zm14.16-1.41v1.29a1.72,1.72,0,0,1-.95.24,1.4,1.4,0,0,1-.84-.16,1.37,1.37,0,0,1-.58-.62,2.91,2.91,0,0,1-1,.63,3,3,0,0,1-1.17.19,2.11,2.11,0,0,1-1.62-.51,2.07,2.07,0,0,1-.52-.69,2,2,0,0,1-.19-.84,1.76,1.76,0,0,1,.71-1.49,3,3,0,0,1,1.74-.55A4.31,4.31,0,0,1,201,18c0-.78-.55-1.14-1.66-1.14a3.63,3.63,0,0,0-1.9.51V15.51a5.38,5.38,0,0,1,2.33-.47,3.22,3.22,0,0,1,2,.7,2.19,2.19,0,0,1,.83,1.8v2.11a.41.41,0,0,0,0,.19.43.43,0,0,0,.26.26.44.44,0,0,0,.19,0Zm-2.57-1a2.31,2.31,0,0,0-1.3-.35c-.75,0-1.23.27-1.23.78s.48.82,1.11.82a1.75,1.75,0,0,0,1.39-.7Zm9.73-3a3.31,3.31,0,0,1,.83,2.31,3.5,3.5,0,0,1-.83,2.35,2.68,2.68,0,0,1-1,.69,2.72,2.72,0,0,1-1.17.21,2.49,2.49,0,0,1-1.14-.2,2.45,2.45,0,0,1-.92-.7V24h-1.74V15.19h1.74v.74a2.55,2.55,0,0,1,2.06-.9,2.72,2.72,0,0,1,1.16.24,2.69,2.69,0,0,1,.94.7Zm-4.19,1.53v1.61a1.76,1.76,0,0,0,.67.67,1.78,1.78,0,0,0,.92.23,1.71,1.71,0,0,0,1.19-.51,1.94,1.94,0,0,0,.32-1.37,2.06,2.06,0,0,0-.48-1.25,1.7,1.7,0,0,0-1.23-.47,1.78,1.78,0,0,0-1.42.94Zm7-1.68a3.5,3.5,0,0,1,2.49-.94,3.39,3.39,0,0,1,2.49.94,3,3,0,0,1,1,2.31,3.12,3.12,0,0,1-1,2.35,3.38,3.38,0,0,1-2.49.9,3.5,3.5,0,0,1-2.49-.9,3.28,3.28,0,0,1-1-2.35,3.12,3.12,0,0,1,1-2.31Zm2.49,3.91a1.75,1.75,0,0,0,1.23-.5,1.71,1.71,0,0,0,0-2.44,1.75,1.75,0,0,0-1.23-.5,1.71,1.71,0,0,0-1.23.47,1.9,1.9,0,0,0,0,2.5,1.71,1.71,0,0,0,1,.59Zm4,3V19.93h.79a7.09,7.09,0,0,0,.75-3.52V15.19h5.26v4.74h1V23h-1.66v-1.6h-4.71V23Zm5.1-3.05V16.64h-2.06a9,9,0,0,1-.55,3.29Zm4,1.45V15.19h1.74V17.5h2.53V15.19h1.78v6.18h-1.78V19h-2.57v2.43Zm7.91,0V15.19h1.74V17h1.31a2.27,2.27,0,0,1,1.79.52,2.23,2.23,0,0,1,.58.75,2.2,2.2,0,0,1,.21.92,1.94,1.94,0,0,1-.67,1.57,2.43,2.43,0,0,1-1.82.63Zm1.74-1.33h1c.67,0,1.07-.31,1.07-.86s-.4-.86-1.07-.86h-1Zm4.63,1.33V15.19h1.74v6.18Zm3.48,0V15.19h1.74v3.64l2.81-3.64h1.66v6.18h-1.9V17.74l-2.81,3.64Zm.83-9h1.35a.86.86,0,0,0,.25.65.87.87,0,0,0,.3.19.86.86,0,0,0,.35.06.91.91,0,0,0,.67-.25.9.9,0,0,0,.28-.65h1.31a2,2,0,0,1-.14.85,2,2,0,0,1-.49.71,2.27,2.27,0,0,1-1.62.55,2.13,2.13,0,0,1-.88-.05,2.09,2.09,0,0,1-1.32-1.1,2.07,2.07,0,0,1-.21-.85ZM145.14,37.07l4-8.73h1.74l4,8.73h-1.94l-.87-2H148.3l-.87,2Zm3.32-3.48H151l-1.27-3Zm6.73,3.21V35.31a3.76,3.76,0,0,0,1.7.39,1.76,1.76,0,0,0,1.15-.27,1.72,1.72,0,0,0,.71-.94h-2.29V33.35h2.29a1.72,1.72,0,0,0-.72-.92,1.75,1.75,0,0,0-1.14-.26,3.44,3.44,0,0,0-1.54.35V31.12a4,4,0,0,1,1.82-.39,3.26,3.26,0,0,1,2.37.9,3,3,0,0,1,.78,1.06,3,3,0,0,1,.25,1.29,3.11,3.11,0,0,1-.25,1.31,3.14,3.14,0,0,1-.78,1.08,3.43,3.43,0,0,1-2.37.86A4,4,0,0,1,155.19,36.8Zm12.62-5.13a3.38,3.38,0,0,1,.83,2.31,3.5,3.5,0,0,1-.83,2.35,2.69,2.69,0,0,1-1,.69,2.73,2.73,0,0,1-1.17.21,2.46,2.46,0,0,1-2.06-.9v3.25h-1.74V30.89h1.74v.74a2.55,2.55,0,0,1,2.06-.9,2.7,2.7,0,0,1,2.14.94Zm-4.19,1.53v1.6a1.76,1.76,0,0,0,.67.67,1.79,1.79,0,0,0,.92.24,1.71,1.71,0,0,0,1.23-.39,1.94,1.94,0,0,0,.48-1.25,1.86,1.86,0,0,0-.48-1.21,1.58,1.58,0,0,0-1.23-.51,1.78,1.78,0,0,0-1.58.86Zm6.88-1.53a3.48,3.48,0,0,1,1.15-.71,3.52,3.52,0,0,1,1.34-.22,3.39,3.39,0,0,1,2.49.94,3.06,3.06,0,0,1,.74,1,3,3,0,0,1,.24,1.26,3.09,3.09,0,0,1-.24,1.28,3.13,3.13,0,0,1-.75,1.07,3.39,3.39,0,0,1-2.49.9,3.5,3.5,0,0,1-2.49-.9,3.27,3.27,0,0,1-1-2.35,3.19,3.19,0,0,1,.26-1.25A3.22,3.22,0,0,1,170.5,31.67ZM173,35.59a1.64,1.64,0,0,0,.69-.1,1.62,1.62,0,0,0,1-.95,1.46,1.46,0,0,0-.11-1.29,1.62,1.62,0,0,0-.43-.48,1.67,1.67,0,0,0-1.27-.51,1.66,1.66,0,0,0-1.7,1.72,1.75,1.75,0,0,0,.48,1.25,1.71,1.71,0,0,0,1.38.47ZM177.78,37V30.89h6v6.18H182V32.34h-2.49v4.74ZM186,31.67a4,4,0,0,1,5,0,3.17,3.17,0,0,1,.71,1.06,3.12,3.12,0,0,1,.24,1.25,3.21,3.21,0,0,1-.23,1.27,3.25,3.25,0,0,1-.72,1.08,4,4,0,0,1-5,0,3.25,3.25,0,0,1-.71-1.08A3.21,3.21,0,0,1,185,34a3.14,3.14,0,0,1,.23-1.25A3.18,3.18,0,0,1,186,31.67Zm2.53,3.91a1.73,1.73,0,0,0,.74,0,1.7,1.7,0,0,0,.68-.29,1.75,1.75,0,0,0,.48-1.25,1.6,1.6,0,0,0-.48-1.29,1.59,1.59,0,0,0-1.23-.51,1.65,1.65,0,0,0-.69.12,1.76,1.76,0,0,0-.94,1A1.6,1.6,0,0,0,187,34a1.62,1.62,0,0,0,1.66,1.72Zm10.68-3.91A3.19,3.19,0,0,1,200,34a3.3,3.3,0,0,1-.83,2.35,2.63,2.63,0,0,1-2.1.9,2.4,2.4,0,0,1-1.14-.19,2.37,2.37,0,0,1-.91-.71v3.25h-1.78V30.89H195v.74a2.5,2.5,0,0,1,2.06-.9,2.63,2.63,0,0,1,1.22.2,2.6,2.6,0,0,1,1,.74Zm-4,1.53v1.6a1.7,1.7,0,0,0,.64.67,1.73,1.73,0,0,0,.9.23,1.64,1.64,0,0,0,1.07-.39,1.75,1.75,0,0,0,.47-1.25,1.67,1.67,0,0,0-.47-1.29,1.54,1.54,0,0,0-.56-.39,1.56,1.56,0,0,0-.67-.12,1.77,1.77,0,0,0-.86.28,1.72,1.72,0,0,0-.61.66Zm7.44,3.91V32.34h-1.94V30.89h5.7v1.45h-2v4.74Zm16.66-8.69-4.19,6.89a3.56,3.56,0,0,1-1.22,1.44,3.63,3.63,0,0,1-1.79.63,2.63,2.63,0,0,1-1.35-.31l.24-1.76a2.11,2.11,0,0,0,1,.24,1.51,1.51,0,0,0,.87-.24,2.91,2.91,0,0,0,.79-.94l-2.49-6.11h1.94l1.66,4.27,2.45-4.27Zm1.31,11.19.4-2.46a3,3,0,0,1-2.06-.82,2.92,2.92,0,0,1-.91-2,3.14,3.14,0,0,1,.27-1.38,3.18,3.18,0,0,1,.84-1.13,4.34,4.34,0,0,1,2.85-1l.4-2.43h1.78l-.39,2.47a3,3,0,0,1,2.06.82,2.92,2.92,0,0,1,.91,2,3.17,3.17,0,0,1-.29,1.38,3.2,3.2,0,0,1-.86,1.12,4.34,4.34,0,0,1-2.85,1l-.4,2.43Zm1-7.36a1.79,1.79,0,0,0-1.43.55,1.73,1.73,0,0,0-.45.62,1.7,1.7,0,0,0-.14.75,1.52,1.52,0,0,0,.42,1.05,1.56,1.56,0,0,0,1,.47Zm1.27,3.48a2.08,2.08,0,0,0,1.54-.43,1.83,1.83,0,0,0,.55-1.41,1.45,1.45,0,0,0-.87-1.36,1.47,1.47,0,0,0-.56-.12Zm11.12,0V37a2.15,2.15,0,0,1-.95.2c-.75,0-1.23-.24-1.35-.74a2.87,2.87,0,0,1-2.1.78,2,2,0,0,1-1.62-.45,2,2,0,0,1-.52-.68,2,2,0,0,1-.19-.83,2,2,0,0,1,.19-.89,2,2,0,0,1,.56-.72,3.39,3.39,0,0,1,1.86-.59,4.48,4.48,0,0,1,2,.47v-.43c0-.67-.55-1-1.58-1a4.53,4.53,0,0,0-1.9.43l.24-1.45a5.28,5.28,0,0,1,2.18-.39,3.51,3.51,0,0,1,2,.51,1.93,1.93,0,0,1,.61.74,1.91,1.91,0,0,1,.18.94,2.8,2.8,0,0,1,0,.74l-.12,1.21a2.8,2.8,0,0,0,0,.43.39.39,0,0,0,0,.17.38.38,0,0,0,.09.15.4.4,0,0,0,.32.11Zm-2.41-1.06a2.47,2.47,0,0,0-1.34-.39c-.79,0-1.31.31-1.31.94s.43.74,1.11.74a1.84,1.84,0,0,0,.85-.15,1.81,1.81,0,0,0,.69-.52Z" transform="translate(0 0)" fill="#0c0a3e"/>
      </g>
    </g>
    <g clip-path="url(#b)">
      <g>
        <path d="M325.33,37.79c-.11.1-.21.16-.26.21-1.48,1.1-3,2.25-4.48,3.35a1.82,1.82,0,0,1-1.53.42.84.84,0,0,1-.79-.94,5.82,5.82,0,0,1,.42-1.36c.11-.31.32-.58.42-.89a2.23,2.23,0,0,0-.53.21c-1,.63-2,1.31-3,1.94l-1.58,1.1c-.53.37-.95.21-1.27-.37a1.83,1.83,0,0,1-.1-1.57c.21-.52.47-1.1.74-1.62a55.78,55.78,0,0,1,4-5.92c.32-.37.42-.42.9-.16.26.16.48.31.74.47a.52.52,0,0,1-.21.26c-1,1.26-2,2.51-3,3.82-.37.47-.63.94-.95,1.41a4.77,4.77,0,0,0-.32.52,3.62,3.62,0,0,1-.16.42.05.05,0,0,1,.05.05c.47-.31,1-.63,1.48-.94a21,21,0,0,1,3-1.78,6.57,6.57,0,0,0,3-2.72,6.48,6.48,0,0,1,.74-.94,2.11,2.11,0,0,1,1.74-.52c.26,0,.37.26.21.52a15.42,15.42,0,0,1-.95,1.57c-.63.89-1.32,1.73-2,2.57-.37.52-.74,1-1.11,1.52-.05.05-.11.1-.11.16V39a1,1,0,0,0,.42-.05c.26-.16.58-.31.79-.47,1.74-1.2,3.48-2.46,5.22-3.66a6.8,6.8,0,0,1,.79-.52c.32-.16.53,0,.58.31a1.09,1.09,0,0,1-.47,1,5.65,5.65,0,0,0-.58.47c.11.21.32.37.32.58a1.53,1.53,0,0,1-.11.68c-.1.37-.32.79-.42,1.15-.05.1,0,.26,0,.37.11-.05.26-.05.32-.1.68-.58,1.32-1.15,1.95-1.78,2-1.83,3.9-3.61,5.85-5.44a3.61,3.61,0,0,0,.58-.68.61.61,0,0,1,.84-.21c.21.1.42.16.63.26.58.26.74.63.37,1.15-.42.68-.9,1.36-1.26,2.09s-.9,1.57-1.32,2.36l-.16.31a.62.62,0,0,0,.58-.26c1.84-1.73,3.69-3.4,5.53-5.13a2.86,2.86,0,0,1,.47-.37.74.74,0,0,1,1,.05,2.37,2.37,0,0,1,.37.37.55.55,0,0,1,.05.63c-.79,1.31-1.53,2.67-2.27,4a16,16,0,0,0-.9,2.2,3.31,3.31,0,0,0-.32.84.24.24,0,0,0,.26,0c.32-.16,9.22-3.19,10.54-4,.11-.05.37-.16.42-.1a.85.85,0,0,1,.26.47,1.59,1.59,0,0,1-.63,1.1c-5.38,2.46-10.86,4.45-11.23,4.61s-.48.05-.68-.26c0-.05-.05-.05-.05-.1a2.3,2.3,0,0,1-.32-2.51,13.72,13.72,0,0,1,1.26-3l.16-.31-.05-.05c-.16.1-.26.21-.42.31-.79.73-1.58,1.52-2.37,2.25-.95.89-1.85,1.73-2.79,2.57-.37.37-.53.37-.84-.05-.21-.26-.37-.52-.58-.78a.72.72,0,0,1-.05-.73l.47-1.1c.11-.31.16-.58.26-.89a4.18,4.18,0,0,1,.42-.84c.05-.16.16-.31.21-.47l-.05-.05c-.32.26-.63.47-.95.79-1,1-2,2-3,3-.74.73-1.42,1.57-2.21,2.3a3.45,3.45,0,0,1-1.21.68.68.68,0,0,1-.84-.26c-.05-.05-.11-.16-.16-.21a1.54,1.54,0,0,1-.42-1.83C324.91,39.21,325.07,38.53,325.33,37.79Z" transform="translate(0 0)" fill="#0c0a3e"/>
        <path d="M297.51,38.74c-.21.16-.42.37-.63.52L294,42.09a3.47,3.47,0,0,1-.9.63,1,1,0,0,1-.53-.05,2.22,2.22,0,0,1-.95-2.46A10,10,0,0,1,293.13,37a17.59,17.59,0,0,1,3.43-4A8.81,8.81,0,0,1,298,32a2,2,0,0,1,2.85,1.52,6.34,6.34,0,0,1,.11,1c.05.42-.21.73-.37,1.1-.79,1.52-1.53,3.09-2.27,4.61a.18.18,0,0,1-.05.1c0,.1.05.21.05.31.11-.05.21-.05.26-.1a31.93,31.93,0,0,1,4.53-3.4l2.69-1.88c.05-.05.1-.16.16-.21.79-1.2,1.53-2.46,2.32-3.66a1.22,1.22,0,0,1,1.53-.47l.32.16a.73.73,0,0,1,.26,1.2,7,7,0,0,1-.63.58c-.11.1-.11.21-.16.31.11.05.21.16.32.16a4.13,4.13,0,0,1,1.79.68,2.6,2.6,0,0,1,1,3.25,5.42,5.42,0,0,1-2.06,2.67c-.47.37-.95.68-1.48,1a6.78,6.78,0,0,1-2.42.89c-.58.1-1.16.16-1.74.21a1.89,1.89,0,0,1-.53-.1.69.69,0,0,0-.84.42,55.5,55.5,0,0,0-3.21,7A15.45,15.45,0,0,0,300,51a4.85,4.85,0,0,1-.21.84.68.68,0,0,1-.84.47,1,1,0,0,1-.84-1.15,4.52,4.52,0,0,1,.32-1.2c.42-1.15.84-2.25,1.37-3.35.68-1.47,1.42-2.88,2.11-4.34a24.74,24.74,0,0,1,2.32-3.93l.16-.31c-.05.05-.11.05-.16.1-1.69,1.26-3.37,2.57-5.06,3.82a3.15,3.15,0,0,1-.84.42c-.37.16-.63,0-.84-.37a2.76,2.76,0,0,1-.16-2.15,6,6,0,0,1,.32-1C297.56,38.74,297.51,38.74,297.51,38.74Zm8.27,1.68a7,7,0,0,0,2.79-1A5.89,5.89,0,0,0,310.84,37a1,1,0,0,0-.42-1.57,8.79,8.79,0,0,0-1.21-.58c-.05-.05-.21,0-.26.05a38.32,38.32,0,0,0-3.11,4,6.45,6.45,0,0,0-.53,1C305.1,40.25,305.25,40.41,305.78,40.41Zm-12.65.26c.05,0,.05,0,.1.05a3.65,3.65,0,0,0,.48-.31c.58-.58,1.16-1.15,1.74-1.68a28.17,28.17,0,0,0,4-4.34,1.84,1.84,0,0,0,.32-.73c.11-.52-.26-.84-.79-.68a1.44,1.44,0,0,0-.63.32,22,22,0,0,0-2.37,2,20.86,20.86,0,0,0-2,2.67,4.89,4.89,0,0,0-.84,2.25C293.08,40.36,293.13,40.51,293.13,40.67Z" transform="translate(0 0)" fill="#0c0a3e"/>
        <path d="M279.69,37.64c.32.05.42-.16.53-.37l.95-1.73a15.18,15.18,0,0,1,2-2.46,4.18,4.18,0,0,0,1.21-1.94.74.74,0,0,1,.58-.52,2,2,0,0,0,.95-.63,43.93,43.93,0,0,1,6.48-5.6c.68-.47,1.42-.78,2.16-1.2.53-.26.84,0,1.11.37a2.54,2.54,0,0,1,.37,2,.41.41,0,0,1-.63.26,1.66,1.66,0,0,1-.53-.26,1.27,1.27,0,0,0-1.53,0,5.71,5.71,0,0,0-.9.68,55.7,55.7,0,0,0-4.69,3.87l-.32.31a1,1,0,0,0-.26,1c.53,2,1.05,4.14,1.58,6.18.37,1.47.68,2.93,1.16,4.35.58,1.88,1.26,3.72,1.95,5.55a7.82,7.82,0,0,0,1,1.68c.16.21.53.31.74.47s.26.16.26.26a.53.53,0,0,1-.21.37,1.88,1.88,0,0,1-3-1,7.34,7.34,0,0,0-.42-.94,16.63,16.63,0,0,1-.84-2l-1.9-5.5c-.21-.63-.26-1.26-.47-1.83-.37-1.2-.79-2.35-1.16-3.51-.21-.52-.37-1.1-.58-1.62a.18.18,0,0,0-.05-.1c-.16-.37-.32-.42-.58-.1-.47.47-.95,1-1.37,1.47a16.77,16.77,0,0,0-2.53,4,8,8,0,0,0-.79,3.51,1.16,1.16,0,0,1-.05.42,1,1,0,0,1-1.06.94.9.9,0,0,0-.37.05,1.2,1.2,0,0,1-1.48-1.15,6.18,6.18,0,0,1,.11-2.2,23.83,23.83,0,0,1,1.42-4.92c1.11-3,2.27-6,3.32-9,.37-1,.58-2.15.84-3.19a4.61,4.61,0,0,1,.26-.79.45.45,0,0,1,.53-.31,5.18,5.18,0,0,1,1.26.47.71.71,0,0,1,.37,1,5.66,5.66,0,0,1-.37.84c-.63,1.41-1.32,2.77-1.84,4.24-.58,1.67-1.27,3.24-2,4.87a27.24,27.24,0,0,0-1.32,3.45A.23.23,0,0,1,279.69,37.64Z" transform="translate(0 0)" fill="#0c0a3e"/>
        <path d="M283.64,20.73A33.64,33.64,0,0,1,287,15.55c1.05-1.36,2-2.83,3-4.19.16-.21.37-.31.53-.52l.32-.31c.1-.16.26-.31.37-.47s.05-.11.11-.16a7.29,7.29,0,0,1,.58-1.1,36.62,36.62,0,0,1,3.74-4.29,1.33,1.33,0,0,1,1.53-.31.87.87,0,0,1,.53,1.15c-.58,2-1.21,3.93-1.79,5.92a1,1,0,0,0-.11.37.4.4,0,0,0,.11.21.32.32,0,0,0,.21-.05c.58-.63,1.16-1.2,1.69-1.83a26.27,26.27,0,0,1,3.11-3.3c.9-.84,1.74-1.68,2.64-2.51A48.11,48.11,0,0,1,308,.52a1.42,1.42,0,0,1,2.11-.1.68.68,0,0,1,.32.84,4.29,4.29,0,0,1-.37.68,23.64,23.64,0,0,0-2.27,3.66C306.1,9,304.46,12.35,303,15.81c-1.11,2.56-2.27,5.08-3.27,7.69a23.48,23.48,0,0,0-1,3.77,3.8,3.8,0,0,0,.11,1.31c.05.26.16.52-.05.78a.8.8,0,0,1-.9.1,1.35,1.35,0,0,1-.95-1.26,8.85,8.85,0,0,1,.53-3.3c.47-1.15.9-2.36,1.37-3.51.21-.52.42-1,.63-1.46a4.08,4.08,0,0,0,.21-.58c.21-.42.47-.84.74-1.26a2.19,2.19,0,0,0,.42-1.1.83.83,0,0,1,.42-.73c.16-.1.26-.21.16-.42a.55.55,0,0,1,.16-.68c.21-.16.37-.37.58-.52s.21-.26.05-.47c-.05-.05-.05-.21-.05-.31.32-.79.68-1.52,1-2.3.11-.26.16-.58.26-.89a3.45,3.45,0,0,1,.16-.42,13.14,13.14,0,0,0,.63-1.2,21.19,21.19,0,0,1,1.42-3.14,9.84,9.84,0,0,0,.58-1.31c.05-.11,0-.21-.05-.37-.11.05-.26,0-.37.1a40.31,40.31,0,0,0-5.69,5.5,60.67,60.67,0,0,0-5.37,6.75c-.32.47-.63,1-.95,1.52a1.18,1.18,0,0,1-.16.26.88.88,0,0,1-1.53.1c-.79-.84-.68-.63-.32-1.52.53-1.2,1.05-2.41,1.53-3.66.37-1,.63-2.09.95-3.19.16-.58.32-1.15.48-1.78a1.13,1.13,0,0,0,0-.42l-.05-.05c-.11.11-.26.16-.37.26-.58.68-1.16,1.36-1.69,2.09-1.42,2-2.85,3.93-4.27,5.92-.63.84-1.27,1.67-1.79,2.51a20.87,20.87,0,0,0-.95,1.88,1.51,1.51,0,0,1-1.26.89c-.37.05-.58-.21-.74-.47C283.7,20.94,283.64,20.83,283.64,20.73Z" transform="translate(0 0)" fill="#0c0a3e"/>
        <path d="M355.43,17.38c.47-.31.95-.58,1.42-.89A23.11,23.11,0,0,1,360,14.66a6.66,6.66,0,0,0,2.9-2.62c.21-.31.48-.63.69-.94a1.88,1.88,0,0,1,1.79-.52c.26,0,.37.26.21.52a15.52,15.52,0,0,1-.95,1.57c-1,1.36-2,2.67-3,4a1,1,0,0,0-.21.42c0,.1,0,.26.05.31a.34.34,0,0,0,.32,0,5.06,5.06,0,0,0,.9-.52c1.84-1.31,3.69-2.62,5.53-3.87a2.15,2.15,0,0,1,.47-.26c.32-.16.53,0,.58.31a1.09,1.09,0,0,1-.48,1,3.38,3.38,0,0,1-.68.52c-2.21,1.67-4.48,3.35-6.69,5a2,2,0,0,1-1.53.42.88.88,0,0,1-.79-.94,3.28,3.28,0,0,1,.53-1.57,2.73,2.73,0,0,0,.32-.68,2.23,2.23,0,0,0-.53.21,26.52,26.52,0,0,0-3,1.94A16.9,16.9,0,0,1,354.8,20a.77.77,0,0,1-1.27-.37,1.82,1.82,0,0,1-.05-1.57c.26-.58.58-1.2.84-1.78a3.07,3.07,0,0,1,.21-.37c-.11.05-.16.1-.21.1-1.63,1.26-3.27,2.46-5,3.66a3.16,3.16,0,0,1-.84.42.71.71,0,0,1-.84-.37,2.76,2.76,0,0,1-.16-2.15,4.53,4.53,0,0,1,.26-.78.77.77,0,0,0,.05-.37c-.11.11-.26.16-.37.26-.9.89-1.79,1.78-2.74,2.62a11.86,11.86,0,0,1-1.26,1,.48.48,0,0,1-.63,0,2.26,2.26,0,0,1-.9-2.46c.16-.57.37-1.15.58-1.78-.05.05-.11.05-.16.1-1.69,1.26-3.37,2.51-5,3.77a2.58,2.58,0,0,1-1.16.52.94.94,0,0,1-1.11-1.1,11.25,11.25,0,0,1,1.48-4.29,1.88,1.88,0,0,0,.21-.47.31.31,0,0,0-.05-.21.16.16,0,0,0-.21,0c-.11.05-.21.16-.32.21l-5.59,5.55c-.42.42-.63.42-1.05,0a1.14,1.14,0,0,1-.37-1.26c.11-.21.16-.47.26-.68.53-1,1.11-2,1.63-3.09.21-.37.37-.79.58-1.2a.8.8,0,0,0-.69.16,53,53,0,0,0-5.74,5.65,5.51,5.51,0,0,0-.47.58c-.37.42-.63.47-1.05.26a.85.85,0,0,1-.47-1,2.45,2.45,0,0,1,.32-.79c.42-.84.84-1.68,1.32-2.57-.05.05-.11.05-.16.11-1.21.89-2.37,1.78-3.58,2.67-.74.58-1.48,1.1-2.27,1.62a3,3,0,0,1-3,.21,1.47,1.47,0,0,1-.95-1.36,6,6,0,0,1,.9-3.93,15.54,15.54,0,0,1,4.37-4.5,1.91,1.91,0,0,1,1.58-.37,2.19,2.19,0,0,1,1.53,2,.5.5,0,0,1-.47.58l-.79.16v-.52c.05-.57-.32-.89-.9-.68-.21.11-.42.26-.63.37a10.35,10.35,0,0,0-4,4.92,4.78,4.78,0,0,0-.26,1.46c0,.68.42,1,1.05.79a1.64,1.64,0,0,0,.69-.31,24.35,24.35,0,0,0,3.58-2.51c.48-.37,1-.73,1.48-1.1s1.11-.84,1.63-1.2c.32-.21.58-.47.9-.68a2.29,2.29,0,0,0,.95-1c.42-.89.9-1.78,1.37-2.72a.43.43,0,0,1,.63-.26.77.77,0,0,1,.58,1.15c-.58,1.2-1.21,2.41-1.79,3.56a.4.4,0,0,0-.11.21c0,.05,0,.16.05.16s.16.05.16,0a2.33,2.33,0,0,0,.37-.21c1.53-1.26,3-2.62,4.64-3.77a3.19,3.19,0,0,0,.42-.42c.16-.16.32-.21.48-.1.37.21.68.47,1.05.73a.56.56,0,0,1,.11.26l-.16.63-1.11,2.51c-.05.05-.05.1-.05.21a.31.31,0,0,0,.05.21.32.32,0,0,0,.21-.05l1.26-1.1c1.32-1.1,2.69-2.2,4.06-3.3.32-.26.53-.26.9,0a3.72,3.72,0,0,1,.53.42.51.51,0,0,1,.11.73c-.9,1.52-1.79,3.09-2.69,4.61l-1.11,1.88c-.05.05-.05.16-.16.31a.74.74,0,0,0,.21-.16c.74-.47,1.42-1,2.16-1.47l4.59-3.14a6.91,6.91,0,0,0,.79-.52,4.29,4.29,0,0,0,.74-.63,11.25,11.25,0,0,1,3.27-2.83,2.11,2.11,0,0,1,3.21,1.73,3,3,0,0,1-.42,1.89c-.79,1.46-1.48,3-2.21,4.45,0,.05-.05.05-.05.11v.37c.11-.05.21-.05.32-.16a24.32,24.32,0,0,1,3.16-2.46c1.11-.79,2.21-1.57,3.37-2.36a1.88,1.88,0,0,1,.42-.26,3.2,3.2,0,0,0,1.21-1.15c.37-.58.84-1.1,1.27-1.67.26-.31.37-.37.74-.16s.53.31.84.52a.52.52,0,0,1-.21.26c-1,1.26-2,2.51-3,3.82-.37.47-.63.94-.95,1.41a4.62,4.62,0,0,0-.32.52,3.45,3.45,0,0,1-.16.42C355.37,17.38,355.37,17.38,355.43,17.38Zm-11.91,1.15c.05,0,.05,0,.11.05a3.88,3.88,0,0,0,.48-.31c.58-.52,1.11-1.1,1.74-1.62a31.38,31.38,0,0,0,4-4.34,2.07,2.07,0,0,0,.32-.79.55.55,0,0,0-.74-.63,1.39,1.39,0,0,0-.68.31,17.92,17.92,0,0,0-2.37,2c-.74.78-1.32,1.73-2,2.62a4.09,4.09,0,0,0-.84,2.25C343.46,18.22,343.52,18.37,343.52,18.53Z" transform="translate(0 0)" fill="#0c0a3e"/>
        <path d="M307.83,17.07a.47.47,0,0,0,.58-.05c.42-.31.79-.63,1.16-.94a10.46,10.46,0,0,1,2.27-1.46,11,11,0,0,0,2.69-2,1.36,1.36,0,0,1,1.32-.31,1,1,0,0,1,.69.63.65.65,0,0,1-.16.73c-.16.16-.32.26-.47.42a4.28,4.28,0,0,0-1.05,1.31c-1.58,2.56-3.16,5.13-4.69,7.69C309,24.92,308,26.85,307,28.74a15.1,15.1,0,0,1-1.74,2.62,2.27,2.27,0,0,1-2.06.73,1.16,1.16,0,0,1-.95-.68,1.29,1.29,0,0,1,.05-1c0-.05.16-.16.21-.16.53-.26,1.05-.47,1.58-.73a3.35,3.35,0,0,0,1.26-1.15c.95-1.36,1.58-2.93,2.43-4.34,1-1.78,2.05-3.51,3.06-5.29.26-.47.53-1,.79-1.52.05-.11.16-.21.21-.31a.66.66,0,0,0,.05-.31c-.11,0-.21-.05-.32,0-.42.26-.84.52-1.21.78s-.95.73-1.42,1a3.64,3.64,0,0,1-1.48.58,1.33,1.33,0,0,1-1.53-1.31,2.21,2.21,0,0,1,.47-1.62,1,1,0,0,0,.21-.42,15.18,15.18,0,0,1,2.74-4c.11-.16.26-.26.37-.42a.51.51,0,0,1,.74,0,.93.93,0,0,1,.11,1.36c-.58.79-1.21,1.57-1.74,2.41a12.22,12.22,0,0,0-.79,1.41A3.34,3.34,0,0,1,307.83,17.07Z" transform="translate(0 0)" fill="#0c0a3e"/>
        <path d="M362.28,10a3,3,0,0,1-3-2c0-.05-.05-.16-.05-.21-.05-.21,0-.31.21-.37a6,6,0,0,1,.95-.16c.26,0,.37.11.37.37a1.36,1.36,0,0,0,1.27,1.46,2.24,2.24,0,0,0,1.32-.1,1.3,1.3,0,0,0,.79-.79.77.77,0,0,1,.95-.37.4.4,0,0,1,.11.26,1.88,1.88,0,0,1-.58,1.1,3.12,3.12,0,0,1-1.74.78C362.7,9.95,362.49,10,362.28,10Z" transform="translate(0 0)" fill="#0c0a3e"/>
        <path d="M375.51,31.83a14.57,14.57,0,0,0-4.43,2.36c-.32.21-.79.58-1.37,1-.95.68-1.95,1.47-3,2.25-1.48,1.1-3.06,2.25-4.64,3.4a5.49,5.49,0,0,0-.58.42c-.21.1-.42.26-.53.31a.71.71,0,0,1-.26.05c-.05,0-.05-.05-.1-.1v-.1a1.45,1.45,0,0,0-.16-.68.63.63,0,0,0-.26-.26c-.11-.05-.21-.16-.26-.16l-.37-.16c-.47-.21-.9-.42-1.37-.58-.9-.42-1.79-.79-2.69-1.15l-.26-.11a.05.05,0,0,1-.05-.05l-.21.21c-.16.1-.16,0,0,.1s.05.05.11.1l.05.05.05.05.11-.1a3.81,3.81,0,0,1,1-.58,1.58,1.58,0,0,1,.53-.1c.21,0,.42-.05.63-.05.42-.05.84-.05,1.27-.1.84-.05,1.63-.1,2.42-.21l2.16-.16h.16a.32.32,0,0,0,.21-.05,1.06,1.06,0,0,0,.42-.21.76.76,0,0,1,.21-.16l.11-.1.16-.16.63-.63c1.37-1.26,2.69-2.41,3.9-3.51l1.74-1.57.21-.21.11-.11.16-.16.37-.37a1.58,1.58,0,0,0,.26-.37l.26-.37.16-.21.05-.05h-.05l-.11-.05-.84-.31c-.26-.1-.53-.21-.84-.31-.16-.05-.21-.11-.32-.11l-.21-.05a8,8,0,0,0-.9-.26c-.58-.16-1.16-.37-1.69-.52-1.05-.31-2-.63-2.79-.89l-4.8-1.52a7.82,7.82,0,0,0-.79-.26c-.26-.05-.63-.21-1.11-.37.37-.26.79-.63,1.26-.94a2,2,0,0,1,1.48-.47c1.05.1,2.48.26,4.22.42l3,.31a1.56,1.56,0,0,0,.68-.1,1.48,1.48,0,0,0,.53-.37c.21-.16.42-.37.63-.52.42-.37.9-.73,1.37-1.15.11-.11.26-.21.37-.31s.16-.1.26-.16a.73.73,0,0,1,.47,0,.63.63,0,0,1,.37.37c.05.11.05.21.11.31v.37l-.11.1a4,4,0,0,1-.47.47c-.37.31-.69.63-1.05.94l-.26.21h.16l.53.05c.37,0,.68.05,1.05.05a7.86,7.86,0,0,0,1.11,0h4.27a1.26,1.26,0,0,0,.42-.1,1.35,1.35,0,0,0,.37-.21l.1-.21a9.52,9.52,0,0,0,.84-.68c1.16-.89,2.37-1.83,3.69-2.67a8.58,8.58,0,0,1,.95-.52,6.15,6.15,0,0,1,1.05-.26l2.42-.47.63-.11a2.76,2.76,0,0,1,.58-.1,1.06,1.06,0,0,1,.74.1l.05.05v-.05h0V19c0,.1-.05.16-.05.26a4.68,4.68,0,0,1-.42.89,9.52,9.52,0,0,1-.68.84c-.11.1-.21.16-.26.26a2.4,2.4,0,0,0-.37.37,7.89,7.89,0,0,0-.69.63c-.42.37-.79.68-1.05.89a17.08,17.08,0,0,0-3.42,3.66A20,20,0,0,0,387,24.18c.26-.21.63-.52,1.05-.89a8.91,8.91,0,0,1,.74-.63l.37-.37.32-.31a7.66,7.66,0,0,0,.84-1,4.71,4.71,0,0,0,.63-1.26c.05-.1.05-.26.11-.37l.05-.26v-.16l-.05-.16-.11-.31c0-.1-.11-.16-.21-.21l-.21-.21a.28.28,0,0,0-.21-.1,2.32,2.32,0,0,0-1.63-.26,3.19,3.19,0,0,1-.63.1l-.58.1-2.42.47a6.18,6.18,0,0,0-1.32.37,3.54,3.54,0,0,0-.63.31,4.72,4.72,0,0,0-.53.31c-1.37.89-2.64,1.83-3.79,2.72l-.84.68-.21.16a.05.05,0,0,0-.05.05c-.05,0-.05,0-.11.05h-3.74V23c.05-.05.05-.11.05-.21a1.51,1.51,0,0,0,.05-.84,2.58,2.58,0,0,0-.21-.68,1.88,1.88,0,0,0-1.11-1,2.05,2.05,0,0,0-1.48.05,2.19,2.19,0,0,0-.58.37c-.11.1-.26.21-.37.31-.47.42-.95.79-1.37,1.15-.21.21-.42.37-.63.58s-.16.1-.16.16H368l-2.9-.31c-1.79-.21-3.21-.31-4.27-.42a3.44,3.44,0,0,0-1.58.26,3.66,3.66,0,0,0-.79.47q-.79.63-1.42,1.1a1.34,1.34,0,0,0-.63,1,.94.94,0,0,0,.1.52.71.71,0,0,0,.32.37,6.49,6.49,0,0,0,.9.37,3.7,3.7,0,0,1,.42.16c.26.1.47.16.63.21.68.21.79.26.79.26l4.8,1.52,5.85,1.83h.05l-.32.31c-.53.52-1.11,1-1.69,1.57-1.21,1.1-2.53,2.2-3.9,3.51a8.37,8.37,0,0,1-.69.63l-.16.16-.05.05h-.16l-2.16.16c-.79.05-1.58.1-2.42.21-.42.05-.84.05-1.27.1-.21,0-.42.05-.68.05a2.12,2.12,0,0,0-.79.16,3.91,3.91,0,0,0-1.37.78l-.16.16c-.11.05-.16.16-.26.31a.95.95,0,0,0,0,1,1.14,1.14,0,0,0,.53.42l.21.1.16.05c.84.37,1.69.73,2.58,1.15.42.21.9.37,1.32.58l.32.16c.11.05.05,0,.05,0a1.57,1.57,0,0,0,.16.63,1.67,1.67,0,0,0,1,.79,1.71,1.71,0,0,0,1.16-.16c.32-.16.47-.31.68-.42s.42-.26.63-.42c1.63-1.15,3.16-2.3,4.64-3.4l3-2.25c.58-.42,1.05-.79,1.37-1C373.56,34,374.35,33.13,375.51,31.83Z" transform="translate(0 0)" fill="#fa4616"/>
        <path d="M381.78,29.68c.1.1.05.21,0,.31s-.16.16-.21.26-.32.37-.47.52l-.11.11-.05.05-.05.11-.32.47a4.48,4.48,0,0,0-.32.52,2.43,2.43,0,0,0-.26.52c.32,0,.68.05,1,.05h.26a.53.53,0,0,1,.16.05c.05,0,.05.05.11.05s.05.1.11.21a.56.56,0,0,1,.05.26c0,.05,0,.1-.16.26s-.58.47-1,.84-.79.68-1.27,1.1c-.26.21-.47.42-.68.58a3.35,3.35,0,0,0-.84.89,4.45,4.45,0,0,0-.42.89,5.75,5.75,0,0,0-.26.68c-.16.37-.26.63-.26.63a4.53,4.53,0,0,0-.21.52,5,5,0,0,1-.26.57,1.25,1.25,0,0,1-.32.47,2.31,2.31,0,0,1-.53.42,3.12,3.12,0,0,0-.37.21l-.42.21a7.63,7.63,0,0,1-.74.31c.26-1.1.42-1.78.53-2.15a18.61,18.61,0,0,0,.53-5,16.9,16.9,0,0,0-1.79,4.66c-.05.26-.16.63-.26,1.1a6.59,6.59,0,0,1-.21.84c0,.1-.05.16-.05.26a1.6,1.6,0,0,0-.05.52,1.09,1.09,0,0,0,.48.89,1.5,1.5,0,0,0,1.42.1,4.17,4.17,0,0,0,.84-.42l.37-.21a3.13,3.13,0,0,1,.42-.21,3.44,3.44,0,0,0,.84-.68,2.45,2.45,0,0,0,.53-.84,6.06,6.06,0,0,1,.26-.58,2.78,2.78,0,0,0,.21-.52l.26-.63c.1-.21.16-.42.26-.68s.21-.47.32-.68a1,1,0,0,1,.47-.47,5.23,5.23,0,0,0,.79-.68c.48-.42.9-.79,1.26-1,.21-.21.42-.37.58-.52s.16-.16.26-.21l.1-.1.11-.11a2,2,0,0,0,.53-1,1.8,1.8,0,0,0-.11-.94,2.37,2.37,0,0,0-.53-.73,1.32,1.32,0,0,0-.37-.21c-.11-.05-.05,0-.11,0l-.11.05h-.05v-.21l.05-.1.05-.16c.05-.21.16-.42.21-.68a3.16,3.16,0,0,0,.1-.37A1.25,1.25,0,0,0,381.78,29.68Z" transform="translate(0 0)" fill="#fa4616"/>
        <path d="M357.06,42.24a26.93,26.93,0,0,0-4.32,2.51c-.21.16-.58.42-1,.68a7.69,7.69,0,0,1-.69.47c-.26.16-.53.37-.84.58a8.65,8.65,0,0,1-.9.58c-2.48,1.62-5.48,3.4-8.43,5s-5.85,3-8,4l-3.53,1.62s-1.37.63-3.58,1.52-5.17,2-8.33,3.14l-4.8,1.57c-1.58.47-3.16.89-4.58,1.2a27.59,27.59,0,0,1-3,.58c-1,.16-1.74.31-2.53.42l-1.11.16a3.24,3.24,0,0,1-1.21-.05,2.62,2.62,0,0,0,1.11.63,8.14,8.14,0,0,0,1.21.26,9.58,9.58,0,0,0,2.69-.1c.58-.1,1.69-.26,3.06-.57s3.06-.79,4.64-1.26,3.27-1,4.85-1.57c3.21-1.1,6.22-2.3,8.43-3.19s3.58-1.52,3.58-1.52,1.42-.63,3.58-1.62,5.06-2.41,8.06-4,6-3.4,8.54-5c.32-.21.63-.42.9-.63s.58-.37.84-.58a7.52,7.52,0,0,0,.69-.47,12.4,12.4,0,0,0,1-.73A12.68,12.68,0,0,0,357.06,42.24Z" transform="translate(0 0)" fill="#fa4616"/>
        <path d="M356.69,43.39a.05.05,0,0,1,.05-.05.89.89,0,0,1,.53,0c.21.05.37.26.37.63v.1l-.63.78-.68.73a55.81,55.81,0,0,1-7.9,6.65,93.82,93.82,0,0,1-8.75,5.44c-1.48.84-3,1.62-4.53,2.41s-3.06,1.52-4.64,2.25l-4.69,2.09-1.27.52s-1.69.58-2.9.89c-2.06.58-1.37,0-.21-.63-.16.05,2.79-1.41,2.79-1.41l.53-.21.26-.1.32-.1a2.8,2.8,0,0,0,.58-.26l4.58-2,4.48-2.2,2.21-1.15c.74-.37,1.48-.78,2.21-1.2l2.16-1.26c.74-.42,1.42-.89,2.11-1.31l1.05-.68,1.05-.68c.69-.47,1.37-.89,2.06-1.41a52.52,52.52,0,0,0,7.59-6.39l.68-.73A6.6,6.6,0,0,0,356.69,43.39Z" transform="translate(0 0)" fill="#fa4616"/>
      </g>
    </g>
  </g>
</svg>
