<svg xmlns="http://www.w3.org/2000/svg" style="border: 0 !important; clip: rect(0 0 0 0) !important; height: 1px !important; margin: -1px !important; overflow: hidden !important; padding: 0 !important; position: absolute !important; width: 1px !important;" class="root-svg-symbols-element">
  <defs>
      <clipPath id="clip0"><path d="M0 0H20V20H0z"/></clipPath>
<clipPath id="a"><path fill="none" d="M0 0H60V60H0z"/></clipPath>
<clipPath id="clip0"><path fill="#fff" d="M0 0H40V40H0z"/></clipPath>
<clipPath id="clip0"><path fill="#fff" d="M0 0H40V40H0z"/></clipPath>
<clipPath id="a" transform="translate(-2.38)"><path fill="none" d="M0 0H60V60H0z"/></clipPath>
<clipPath id="a" transform="translate(-5.98)"><path fill="none" d="M0 0H60V60H0z"/></clipPath>
<clipPath id="clip0"><path fill="#fff" d="M0 0H15V15H0z"/></clipPath>
<clipPath id="a" transform="translate(-1.88)"><path fill="none" d="M0 0H60V60H0z"/></clipPath>
<clipPath id="a" transform="translate(0 -1.38)"><path fill="none" d="M0 0H60V60H0z"/></clipPath>
<clipPath id="clip0"><path fill="#fff" d="M0 0H40V40H0z"/></clipPath>
  </defs>
    <symbol id="accessibility" viewBox="0 0 20 20">
      <g clip-path="url(#clip0)" fill-rule="evenodd" clip-rule="evenodd"><path d="M1.78389 10C1.87497 10.1574 1.99571 10.358 2.14529 10.5896C2.52947 11.1844 3.09841 11.9755 3.83706 12.7634C5.32954 14.3554 7.4162 15.8333 9.99994 15.8333C12.5837 15.8333 14.6703 14.3554 16.1628 12.7634C16.9015 11.9755 17.4704 11.1844 17.8546 10.5896C18.0042 10.358 18.1249 10.1574 18.216 10C18.1249 9.84261 18.0042 9.64204 17.8546 9.41044C17.4704 8.81557 16.9015 8.0245 16.1628 7.23662C14.6703 5.64463 12.5837 4.16667 9.99994 4.16667C7.4162 4.16667 5.32954 5.64463 3.83706 7.23662C3.09841 8.0245 2.52947 8.81557 2.14529 9.41044C1.99571 9.64204 1.87497 9.84261 1.78389 10ZM19.1666 10C19.912 9.62732 19.9118 9.62704 19.9117 9.62674L19.9113 9.626L19.9103 9.62406L19.9074 9.61837C19.9051 9.61377 19.902 9.60758 19.898 9.59985C19.89 9.58439 19.8788 9.56276 19.8643 9.53536C19.8353 9.48058 19.7933 9.40269 19.7383 9.30499C19.6284 9.1097 19.4667 8.8346 19.2547 8.50623C18.8316 7.85109 18.2026 6.9755 17.3787 6.09672C15.7462 4.35537 13.2495 2.5 9.99994 2.5C6.75035 2.5 4.25367 4.35537 2.62116 6.09672C1.7973 6.9755 1.16833 7.85109 0.745222 8.50623C0.533151 8.8346 0.371436 9.1097 0.261585 9.30499C0.206629 9.40269 0.164559 9.48058 0.13557 9.53536C0.121073 9.56276 0.109838 9.58439 0.101891 9.59985C0.0979166 9.60758 0.0947634 9.61377 0.0924341 9.61837L0.0895582 9.62406L0.0885842 9.626L0.0882133 9.62674C0.0880602 9.62704 0.0879198 9.62732 0.833276 10L0.0879198 9.62732L-0.0984192 10L0.0879198 10.3727L0.833276 10C0.0879198 10.3727 0.0880602 10.373 0.0882133 10.3733L0.0885842 10.374L0.0895582 10.3759L0.0924341 10.3816C0.0947634 10.3862 0.0979166 10.3924 0.101891 10.4001C0.109838 10.4156 0.121073 10.4372 0.13557 10.4646C0.164559 10.5194 0.206629 10.5973 0.261585 10.695C0.371436 10.8903 0.533151 11.1654 0.745222 11.4938C1.16833 12.1489 1.7973 13.0245 2.62116 13.9033C4.25367 15.6446 6.75035 17.5 9.99994 17.5C13.2495 17.5 15.7462 15.6446 17.3787 13.9033C18.2026 13.0245 18.8316 12.1489 19.2547 11.4938C19.4667 11.1654 19.6284 10.8903 19.7383 10.695C19.7933 10.5973 19.8353 10.5194 19.8643 10.4646C19.8788 10.4372 19.89 10.4156 19.898 10.4001C19.902 10.3924 19.9051 10.3862 19.9074 10.3816L19.9103 10.3759L19.9113 10.374L19.9117 10.3733C19.9118 10.373 19.912 10.3727 19.1666 10ZM19.1666 10L19.912 10.3727L20.0983 10L19.912 9.62732L19.1666 10Z"/><path d="M10 8.33354C9.07957 8.33354 8.33338 9.07973 8.33338 10.0002C8.33338 10.9207 9.07957 11.6669 10 11.6669C10.9205 11.6669 11.6667 10.9207 11.6667 10.0002C11.6667 9.07973 10.9205 8.33354 10 8.33354ZM6.66672 10.0002C6.66672 8.15925 8.1591 6.66687 10 6.66687C11.841 6.66687 13.3334 8.15925 13.3334 10.0002C13.3334 11.8411 11.841 13.3335 10 13.3335C8.1591 13.3335 6.66672 11.8411 6.66672 10.0002Z"/></g>
    </symbol>
    <symbol id="arr-down" viewBox="0 0 10 7" fill="trans">
      <path d="M1 1.66663L5 5.66663L9 1.66663" fill="transparent" stroke="#0C0A3E" stroke-width="2" stroke-linecap="round" stroke-linejoin="round"/>
    </symbol>
    <symbol id="arr-right" viewBox="0 0 18 12" fill="none">
      <path d="M11.5 11L16.5 6L11.5 1M1.5 6H15.6667" fill="transparent"/>
    </symbol>
    <symbol id="burger" viewBox="0 0 20 20" fill="none">
      <path d="M2 18H18M2 7.33333H18H2ZM2 2H18H2ZM2 12.6667H18H2Z" stroke="#FE5000" stroke-width="3" stroke-linecap="round" stroke-linejoin="round"/>
    </symbol>
    <symbol id="calendar" viewBox="0 0 32 32" fill="none">
      <path d="M28 13.3333H4M10.6667 9.33333V4M21.3333 9.33333V4M4 6.66667H28V28H4V6.66667Z"/>
    </symbol>
    <symbol id="case" viewBox="0 0 60 60" fill="none">
      <path d="M57.0014 12.037H39.7205C39.7205 12.037 39.7205 11.9375 39.7205 11.8807V6.3809C39.7205 4.72476 38.3781 3.38232 36.7219 3.38232H23.2639C21.6077 3.38232 20.2653 4.72476 20.2653 6.3809V11.8949C20.2653 11.8949 20.2653 11.9944 20.2653 12.0512H2.99858C1.34243 12.0512 0 13.3936 0 15.0498V53.6192C0 55.2753 1.34243 56.6178 2.99858 56.6178H57.0014C58.6576 56.6178 60 55.2753 60 53.6192V15.0356C60 13.3794 58.6576 12.037 57.0014 12.037ZM23.1075 11.8665L23.136 6.35248C23.136 6.26615 23.2059 6.19616 23.2923 6.19616H36.7788C36.8651 6.19616 36.9351 6.26615 36.9351 6.35248V11.8665C36.9351 11.9528 36.8651 12.0228 36.7788 12.0228H23.2639C23.1775 12.0228 23.1075 11.9528 23.1075 11.8665ZM2.99858 14.8792H57.0014C55.6656 17.4089 48.7163 29.3747 35.784 32.2454V30.5969C35.7843 28.9628 34.476 27.6292 32.8423 27.5983H27.1577C25.5016 27.5983 24.1592 28.9408 24.1592 30.5969V32.2738C11.2411 29.4316 4.26338 17.4231 2.94173 14.9077L2.99858 14.8792ZM32.9559 30.5969V38.8679C32.9559 38.9542 32.886 39.0242 32.7996 39.0242H27.1577C27.0714 39.0242 27.0014 38.9542 27.0014 38.8679V30.5969C27.0014 30.5106 27.0714 30.4406 27.1577 30.4406H32.8423C32.9117 30.4601 32.9586 30.5248 32.9559 30.5969ZM57.1151 53.6334C57.1151 53.7197 57.0451 53.7897 56.9588 53.7897H2.99858C2.91225 53.7897 2.84225 53.7197 2.84225 53.6334V20.1943C6.33823 25.2677 13.3018 32.9844 24.1592 35.1729V38.8537C24.1592 40.5098 25.5016 41.8522 27.1577 41.8522H32.8423C34.4984 41.8522 35.8408 40.5098 35.8408 38.8537V35.1729C46.6982 33.0128 53.6618 25.2251 57.1577 20.1943L57.1151 53.6334Z" fill="#FE5000"/>
    </symbol>
    <symbol id="click" viewBox="0 0 60 60">
      <g fill="#fe5000" clip-path="url(#a)"><path d="M59.49,49.54,49.35,39.4l5-5a1.76,1.76,0,0,0-.69-2.91L23.8,21.58a1.76,1.76,0,0,0-2.22,2.22l9.94,29.83a1.76,1.76,0,0,0,2.91.69l5-5L49.54,59.49a1.76,1.76,0,0,0,2.49,0L59.49,52A1.76,1.76,0,0,0,59.49,49.54Zm-8.7,6.21L40.65,45.62a1.76,1.76,0,0,0-2.49,0L34,49.82,26,26,49.82,34l-4.2,4.2a1.76,1.76,0,0,0,0,2.49L55.76,50.78Z"/><path d="M22.85,14.06a1.76,1.76,0,0,0,1.76-1.76V1.76a1.76,1.76,0,1,0-3.52,0V12.3A1.76,1.76,0,0,0,22.85,14.06Z"/><path d="M9.18,6.69A1.76,1.76,0,0,0,6.69,9.18l7.46,7.46a1.76,1.76,0,0,0,2.49-2.49Z"/><path d="M14.15,29.07,6.69,36.52A1.76,1.76,0,1,0,9.18,39l7.46-7.46a1.76,1.76,0,0,0-2.49-2.49Z"/><path d="M31.55,16.64,39,9.18a1.76,1.76,0,1,0-2.49-2.49l-7.46,7.46a1.76,1.76,0,0,0,2.49,2.49Z"/><path d="M14.06,22.85a1.76,1.76,0,0,0-1.76-1.76H1.76a1.76,1.76,0,1,0,0,3.52H12.3A1.76,1.76,0,0,0,14.06,22.85Z"/></g>
    </symbol>
    <symbol id="close" viewBox="0 0 20 20" fill="none">
      <path d="M5.28516 14.714L14.7132 5.28595M5.28516 5.28595L14.7132 14.714L5.28516 5.28595Z"/>
    </symbol>
    <symbol id="date" viewBox="0 0 18 18" fill="none">
      <path d="M2.25 4.5H3.25H2.25ZM2.25 14.625H1.25H2.25ZM14.625 15.75V14.75V15.75ZM3.375 15.75V16.75H3.375L3.375 15.75ZM15.75 4.50002H16.75H15.75ZM15.75 14.625H14.75H15.75ZM14.625 3.37502L14.625 4.37502L14.625 3.37502ZM3.375 3.375L3.375 4.375H3.375L3.375 3.375ZM15.75 8.875C16.3023 8.875 16.75 8.42728 16.75 7.875C16.75 7.32271 16.3023 6.875 15.75 6.875V8.875ZM2.25 6.875C1.69772 6.875 1.25 7.32272 1.25 7.875C1.25 8.42728 1.69772 8.875 2.25 8.875L2.25 6.875ZM4.625 4.5C4.625 5.05228 5.07272 5.5 5.625 5.5C6.17729 5.5 6.625 5.05228 6.625 4.5H4.625ZM6.625 2.25C6.625 1.69772 6.17728 1.25 5.625 1.25C5.07272 1.25 4.625 1.69772 4.625 2.25L6.625 2.25ZM11.375 4.5C11.375 5.05228 11.8227 5.5 12.375 5.5C12.9273 5.5 13.375 5.05228 13.375 4.5H11.375ZM13.375 2.25C13.375 1.69772 12.9273 1.25 12.375 1.25C11.8227 1.25 11.375 1.69772 11.375 2.25H13.375ZM1.25 4.5L1.25 14.625H3.25L3.25 4.5H1.25ZM14.625 14.75L3.375 14.75L3.375 16.75L14.625 16.75V14.75ZM14.75 4.50002L14.75 14.625H16.75L16.75 4.50002H14.75ZM14.625 2.37502L3.375 2.375L3.375 4.375L14.625 4.37502L14.625 2.37502ZM16.75 4.50002C16.75 3.32642 15.7986 2.37503 14.625 2.37502L14.625 4.37502C14.694 4.37502 14.75 4.43099 14.75 4.50002H16.75ZM3.25 4.5C3.25 4.43096 3.30597 4.375 3.375 4.375L3.37501 2.375C2.2014 2.375 1.25 3.3264 1.25 4.5H3.25ZM1.25 14.625C1.25 15.7986 2.20139 16.75 3.375 16.75V14.75C3.30596 14.75 3.25 14.694 3.25 14.625H1.25ZM14.625 16.75C15.7986 16.75 16.75 15.7986 16.75 14.625H14.75C14.75 14.694 14.694 14.75 14.625 14.75V16.75ZM15.75 6.875L2.25 6.875L2.25 8.875L15.75 8.875V6.875ZM6.625 4.5V2.25L4.625 2.25L4.625 4.5H6.625ZM13.375 4.5V2.25H11.375V4.5H13.375Z"/>
    </symbol>
    <symbol id="disabled-sign" viewBox="0 0 60 60" fill="none">
      <path d="M35.7114 51.1989C32.7401 54.1704 28.7899 55.8066 24.5876 55.8066C15.9151 55.8066 8.85914 48.7507 8.85914 40.0773C8.85914 35.8747 10.495 31.9236 13.4657 28.9527C14.2845 28.1339 14.2842 26.8063 13.4654 25.9876C12.6467 25.1685 11.3191 25.1688 10.5003 25.9878C6.73798 29.7508 4.66602 34.7543 4.66602 40.077C4.66602 51.0622 13.6027 59.9994 24.5876 59.9994C29.9097 59.9994 34.9133 57.9269 38.6765 54.1631C39.4952 53.3444 39.495 52.0168 38.6762 51.1983C37.8574 50.3804 36.5299 50.3801 35.7114 51.1989Z" fill="#FE5000"/><path d="M53.2371 46.6013H47.2731L43.5806 36.3563C43.2809 35.5247 42.4921 34.9706 41.6081 34.9706H26.0623V25.5568H40.5C41.6579 25.5568 42.5966 24.6184 42.5966 23.4602C42.5966 22.3021 41.6579 21.3637 40.5 21.3637H26.0623V14.8937C26.0623 13.7355 25.1236 12.7971 23.9657 12.7971C22.8078 12.7971 21.8691 13.7355 21.8691 14.8937V37.0669C21.8691 38.2251 22.8078 39.1635 23.9657 39.1635H40.135L43.8274 49.4084C44.1271 50.2401 44.916 50.7941 45.7999 50.7941H53.2368C54.3947 50.7941 55.3334 49.8557 55.3334 48.6975C55.3334 47.5394 54.3952 46.6013 53.2371 46.6013Z" fill="#FE5000"/><path d="M24.0441 10.1859C26.8572 10.1859 29.1377 7.90656 29.1377 5.09157C29.1374 2.28134 26.8572 0 24.0441 0C21.2311 0 18.9512 2.28134 18.9512 5.09185C18.9512 7.90656 21.2311 10.1859 24.0441 10.1859Z" fill="#FE5000"/>
    </symbol>
    <symbol id="doc" viewBox="0 0 40 40" fill="none">
      <g clip-path="url(#clip0)"><path fill-rule="evenodd" clip-rule="evenodd" d="M39.6873 19.5045C39.688 18.74 39.3898 18.0212 38.8488 17.4813C38.308 16.9408 37.5873 16.6432 36.8203 16.6432H36.7395C35.9905 16.6432 35.287 16.9345 34.759 17.4637L28.165 24.0583V0H6.77604L-0.000213623 6.77625V39.6875H28.165V32.271L36.4868 23.9495L36.6353 24.098C36.9478 24.411 37.127 24.843 37.127 25.2847C37.127 25.7265 36.9478 26.1587 36.6353 26.4715L32.0058 31.1007C31.593 31.5137 31.3658 32.0622 31.3658 32.6462C31.3658 33.23 31.593 33.779 32.0058 34.1915L32.8335 35.019L33.7388 34.1137L32.911 33.2862C32.74 33.1147 32.646 32.8882 32.646 32.6462C32.646 32.4042 32.74 32.1775 32.911 32.006L37.5403 27.3767C38.0915 26.8257 38.407 26.0637 38.407 25.2847C38.407 24.5057 38.0915 23.7437 37.5403 23.1927L37.392 23.0442L38.8373 21.599C39.385 21.0512 39.6873 20.3225 39.6873 19.5045ZM6.40104 2.1855V6.40125H2.18528L6.40104 2.1855ZM26.885 38.4073H1.28004V7.68149H7.68129V1.28025H26.885V25.3392L20.5535 31.6712L19.361 35.8468H18.4303C18.3615 35.8468 18.3003 35.8082 18.2695 35.7475L17.2343 33.6772L17.7875 32.7915C18.295 31.9785 18.5633 31.0435 18.5633 30.0857C18.5633 29.027 17.7015 28.1652 16.643 28.1652C15.5843 28.1652 14.7225 29.027 14.7225 30.0857V30.3122C14.7225 31.1002 14.9088 31.89 15.2613 32.5948L15.7678 33.607L14.4203 35.763C14.3883 35.815 14.3295 35.8468 14.268 35.8468H13.4423C13.3598 35.8468 13.288 35.7905 13.2683 35.7105L12.9378 34.3912C12.7753 33.7407 12.1928 33.2862 11.522 33.2862C10.8513 33.2862 10.2688 33.7407 10.106 34.3918L9.77579 35.711C9.75604 35.7905 9.68429 35.8468 9.60154 35.8468H7.68129V37.127H9.60154C10.2725 37.127 10.855 36.6725 11.0175 36.0215L11.348 34.7022C11.3875 34.5422 11.6563 34.5422 11.6968 34.7022L12.0273 36.0215C12.189 36.6725 12.7715 37.127 13.4423 37.127H14.268C14.7753 37.127 15.2388 36.871 15.506 36.4415L16.4388 34.9492L17.1243 36.3205C17.3735 36.818 17.874 37.127 18.4303 37.127H19.9333L24.6598 35.777L26.885 33.5512V38.4073ZM21.4408 33.2282L23.1023 34.8897L20.7758 35.5547L21.4408 33.2282ZM16.7023 32.1122L16.563 32.3353L16.4065 32.0225C16.1423 31.494 16.0028 30.9025 16.0028 30.3122V30.0857C16.0028 29.7325 16.2898 29.4455 16.643 29.4455C16.9963 29.4455 17.283 29.7325 17.283 30.0857C17.283 30.8032 17.0828 31.504 16.7023 32.1122ZM24.3245 34.3015L22.029 32.006L33.2855 20.7482L35.5815 23.0442L24.3245 34.3015ZM37.932 20.694L36.4868 22.1392L34.1905 19.8432L35.6648 18.3687C35.951 18.0815 36.333 17.9235 36.7395 17.9235H36.8203C37.246 17.9235 37.6455 18.0877 37.9448 18.3875C38.2428 18.685 38.407 19.082 38.407 19.548C38.407 19.9805 38.238 20.388 37.932 20.694ZM5.12079 35.8468H6.40104V37.127H5.12079V35.8468ZM24.3245 2.5605H25.6045V3.84075H24.3245V2.5605ZM15.3628 2.5605H23.0443V3.84075H15.3628V2.5605ZM24.3245 5.121H25.6045V6.40125H24.3245V5.121ZM15.3628 5.121H23.0443V6.40125H15.3628V5.121ZM24.3245 7.68149H25.6045V8.96174H24.3245V7.68149ZM15.3628 7.68149H23.0443V8.96174H15.3628V7.68149ZM2.56028 10.242H25.6045V11.5222H2.56028V10.242ZM2.56028 12.8025H25.6045V14.0827H2.56028V12.8025ZM2.56028 15.3627H25.6045V16.6432H2.56028V15.3627ZM11.522 18.5635H12.8023V19.8438H11.522V18.5635ZM14.0825 18.5635H25.6045V19.8438H14.0825V18.5635ZM11.522 21.124H25.6045V22.4042H11.522V21.124ZM11.522 23.6845H25.6045V24.9647H11.522V23.6845ZM6.40104 25.6047C8.51929 25.6047 10.2418 23.8825 10.2418 21.764C10.2418 19.6457 8.51929 17.9235 6.40104 17.9235C4.28279 17.9235 2.56028 19.6457 2.56028 21.764C2.56028 23.8825 4.28279 25.6047 6.40104 25.6047ZM6.40104 19.2035C7.81329 19.2035 8.96154 20.352 8.96154 21.764C8.96154 23.1762 7.81329 24.3247 6.40104 24.3247C4.98904 24.3247 3.84053 23.1762 3.84053 21.764C3.84053 20.352 4.98904 19.2035 6.40104 19.2035ZM2.56028 26.885H11.522V28.1652H2.56028V26.885ZM2.56028 29.4455H11.522V30.7257H2.56028V29.4455Z" fill="#FE5000"/></g>
    </symbol>
    <symbol id="download" viewBox="0 0 16 18" fill="none">
      <path d="M8 1.5V12.3333M3.83398 9L8.00065 13.1667L12.1673 9M14.6673 16.5H1.33398"/>
    </symbol>
    <symbol id="earth" viewBox="0 0 40 40" fill="none">
      <g clip-path="url(#clip0)"><path fill-rule="evenodd" clip-rule="evenodd" d="M32.9519 26.7802C35.4754 23.9362 37.0129 20.1978 37.0129 16.1052C37.0129 11.8475 35.3486 7.97325 32.6411 5.0905V5.08999C32.6389 5.08649 32.6354 5.08549 32.6336 5.0825C29.8131 2.08425 25.8614 0.165008 21.4656 0.0142578L21.4651 0.0137451L21.1511 0.00549316C21.0701 0.00274316 20.9891 0 20.9074 0C20.8256 0 20.7446 0.00274316 20.6634 0.00549316L20.3509 0.0137451L20.3504 0.0142578C15.9546 0.165008 12.0029 2.08425 9.18236 5.0825C9.18011 5.08549 9.17662 5.08649 9.17487 5.08999C9.17487 5.08999 9.17487 5.0905 9.17437 5.09075C6.72887 7.6935 5.13487 11.1047 4.84887 14.8775C5.21137 15.007 5.57511 15.1395 5.93961 15.2735C6.13236 11.7688 7.53211 8.5815 9.73261 6.12175C11.1141 7.02 12.5854 7.74001 14.1201 8.27776C13.1801 10.5585 12.6604 13.0175 12.5926 15.55H6.68537C7.65537 15.912 8.62911 16.2852 9.60086 16.6607H12.5926C12.6034 17.057 12.6254 17.4515 12.6581 17.8435C13.0459 17.9925 13.4319 18.141 13.8166 18.2867C13.7566 17.7495 13.7186 17.207 13.7031 16.6607H18.2844C18.4151 16.5447 18.5461 16.4303 18.6786 16.3198C19.0044 16.0513 19.3184 15.7948 19.6206 15.55H13.7031C13.7716 13.1355 14.2781 10.7935 15.1839 8.622C16.8534 9.1055 18.5866 9.37326 20.3521 9.42051V14.9617C20.7451 14.6485 21.1154 14.7297 21.4629 14.4615V9.42051C23.2284 9.37326 24.9616 9.10625 26.6314 8.622C27.5371 10.7935 28.0436 13.1355 28.1119 15.55L25.4689 15.5808L25.6591 16.669L28.1116 16.6607C28.0486 18.8925 27.6094 21.0615 26.8274 23.0917C25.1379 22.5827 23.3804 22.297 21.5869 22.2393L21.3064 22.4712L20.2834 23.3482L20.3521 23.346V29.431L20.7336 32.2075C20.7916 32.2092 20.8491 32.2107 20.9074 32.2107C20.9891 32.2107 21.0701 32.2078 21.1511 32.205L21.4639 32.1968L21.4646 32.1962C26.0099 32.0402 30.0831 29.9943 32.9186 26.8175C32.9259 26.8083 32.9376 26.8055 32.9444 26.7952C32.9486 26.7907 32.9486 26.7855 32.9519 26.7802ZM23.6814 15.1955C23.9354 15.25 24.1681 15.346 24.3864 15.4825L24.3946 15.488C24.7061 15.7142 24.9316 16.0285 25.0411 16.3775C25.1461 16.712 25.1449 17.0808 25.0109 17.436C24.9314 17.7523 24.8129 18.0548 24.6756 18.336C24.5371 18.6188 24.3799 18.8805 24.2241 19.1143C24.0156 19.427 23.7939 19.7268 23.5339 20.026C23.2739 20.325 22.9739 20.625 22.6086 20.9383C22.1861 21.286 21.7594 21.6483 21.3339 22.0093C20.9144 22.365 20.4946 22.7217 20.0451 23.0917L18.9646 24.0183C18.8541 24.106 18.7779 24.1922 18.7369 24.289C18.6964 24.3872 18.6866 24.5052 18.7086 24.6575C19.2276 28.383 19.7359 32.11 20.2469 35.8367C20.2736 36.0475 20.2996 36.297 20.2996 36.573C20.2996 36.8512 20.2724 37.1575 20.1926 37.4782L20.1921 37.481C20.0836 37.8868 19.8936 38.2397 19.6229 38.5442C19.3591 38.8407 19.0184 39.0915 18.6011 39.303C18.5404 39.359 18.4679 39.4018 18.3906 39.4373C18.3194 39.47 18.2416 39.4962 18.1644 39.522C18.0559 39.5757 17.9451 39.617 17.8339 39.6445C17.7194 39.673 17.6051 39.6875 17.4926 39.6875C17.2071 39.6875 16.9484 39.6012 16.7251 39.4365C16.5079 39.2755 16.3256 39.0403 16.1876 38.7383C16.0959 38.5543 16.0226 38.356 15.9474 38.1508C15.8929 38.0028 15.8364 37.8495 15.7744 37.7048C15.0076 35.7885 14.0549 33.5733 13.4114 31.6435C13.3114 31.343 13.1861 31.0542 13.0419 30.7722C12.8974 30.4892 12.7324 30.2103 12.5546 29.9312L12.4796 29.8067L11.9404 30.2218C11.0949 30.9048 10.2196 31.5737 9.33737 32.248C8.88187 32.5962 8.42336 32.9468 7.90861 33.3468C8.04236 33.8823 8.17561 34.4075 8.29536 34.9452C8.40186 35.2675 8.44211 35.5778 8.42886 35.874C8.41536 36.1727 8.34736 36.458 8.23961 36.728C8.13161 37.048 7.95786 37.3175 7.73286 37.5333C7.49761 37.759 7.20511 37.9283 6.87136 38.0393L6.86786 38.041C6.34911 38.1962 5.93636 37.9823 5.69761 37.8583L5.63561 37.826C5.52161 37.7685 5.42136 37.6968 5.32886 37.6115C5.23761 37.527 5.15462 37.4308 5.07437 37.3235C4.47412 36.5925 3.87462 35.8495 3.28437 35.1028C2.71712 34.385 2.15036 33.6543 1.59036 32.9165L0.622366 31.6945C0.518616 31.5905 0.413868 31.4853 0.306118 31.3248C0.0818682 31.043 -0.0176357 30.7438 0.00211434 30.4488C0.0218643 30.1498 0.164359 29.8603 0.421609 29.603L0.425613 29.5985C0.681613 29.3425 0.938363 29.086 1.20061 28.8762C1.44786 28.6575 1.73686 28.532 2.03886 28.4945C2.35111 28.4553 2.67861 28.5102 2.98886 28.6512C3.22236 28.7557 3.44111 28.872 3.65961 28.9873C3.87611 29.1018 4.09311 29.2168 4.32036 29.3175L4.86386 29.5645C4.89461 29.5693 4.92036 29.58 4.94511 29.5915C5.09861 29.4408 5.26186 29.2892 5.42461 29.138C5.59786 28.9772 5.77161 28.816 5.95911 28.6285L9.20661 25.5315L9.12811 25.4317C9.07561 25.3665 9.02336 25.301 8.97061 25.2225C8.54786 24.7078 7.98462 24.3183 7.37236 23.8955L7.26087 23.8183C6.38887 23.203 5.50661 22.602 4.62511 22.0018C3.73786 21.3975 2.85036 20.7928 1.97836 20.177C1.89736 20.1228 1.80411 20.056 1.70886 19.98C1.60736 19.8985 1.49986 19.805 1.39561 19.7008C1.11736 19.4483 0.949863 19.1505 0.901113 18.8375C0.852363 18.5245 0.922111 18.199 1.11736 17.8903C1.27536 17.601 1.47311 17.324 1.70336 17.0673C1.93511 16.809 2.19986 16.5703 2.48936 16.36C2.67561 16.2065 2.92962 16.0705 3.24937 16.017C3.50662 15.974 3.80712 15.9848 4.14837 16.082C4.50162 16.183 4.81286 16.2865 5.12311 16.39C8.27386 17.4402 11.5776 18.8057 14.7131 19.9792C14.9116 20.0287 15.1109 20.0793 15.2686 20.1308C15.3919 20.1498 15.4954 20.1393 15.5921 20.1038C15.6944 20.066 15.7961 19.9982 15.9104 19.9077C16.0349 19.7835 16.1664 19.665 16.2974 19.5472C16.4209 19.4362 16.5446 19.3245 16.6754 19.194C17.0964 18.8537 17.4986 18.457 17.9166 18.1085C18.7934 17.3865 19.5639 16.7697 20.2271 16.2597L20.2301 16.2577C20.6221 15.9697 21.0294 15.7338 21.4629 15.55C21.8954 15.366 22.3556 15.2343 22.8551 15.1558L22.8639 15.1548C23.1604 15.128 23.4316 15.1413 23.6814 15.1955ZM23.4821 17.8595C23.5931 17.6355 23.6929 17.3988 23.7674 17.151L23.7834 17.0988C23.8114 16.986 23.8074 16.8783 23.7784 16.7948C23.7554 16.7295 23.7194 16.6812 23.6754 16.6647L23.6341 16.65C23.5444 16.605 23.4534 16.5708 23.3589 16.554C23.2656 16.5373 23.1669 16.5373 23.0581 16.5593L23.0484 16.561C22.6814 16.6098 22.3249 16.7083 21.9876 16.8478C21.6414 16.9915 21.3139 17.18 21.0134 17.405C20.5421 17.7678 20.0499 18.1772 19.4979 18.6367L18.7636 19.2455L17.5406 20.3157C17.4151 20.4415 17.2824 20.5617 17.1499 20.6805C17.0264 20.7915 16.9026 20.9032 16.7719 21.0337L16.7656 21.0393C16.5214 21.2563 16.2486 21.4067 15.9626 21.4897C15.6711 21.5747 15.3641 21.589 15.0581 21.5337L14.9294 21.503C14.7464 21.4598 14.5341 21.4087 14.3159 21.322L4.72437 17.7317C4.59662 17.6807 4.45811 17.63 4.31011 17.5808C4.16261 17.5318 3.99761 17.4808 3.81511 17.429C3.65586 17.3835 3.54561 17.371 3.46836 17.3815C3.40836 17.389 3.36861 17.413 3.33761 17.4442L3.32437 17.4563C3.09787 17.6322 2.88487 17.8202 2.69937 18.018C2.51487 18.2145 2.35461 18.424 2.23286 18.6438L2.22311 18.6617L2.20937 18.6752C2.19087 18.6937 2.17736 18.6798 2.17886 18.6905C2.18011 18.7003 2.20662 18.7298 2.26087 18.7843C2.40637 18.9295 2.55311 19.0275 2.69961 19.1248L2.70386 19.1275C3.58386 19.7487 4.46762 20.3635 5.34312 20.9665C6.20512 21.5595 7.09187 22.1635 7.98112 22.7653C8.34237 22.9973 8.69261 23.2442 9.02511 23.5177C9.35586 23.79 9.66711 24.0885 9.95236 24.424C10.0564 24.528 10.1374 24.6508 10.2226 24.781C10.2716 24.856 10.3234 24.935 10.3749 25.0038L10.3881 25.025C10.4089 25.0665 10.4331 25.1033 10.4566 25.1385C10.4826 25.1775 10.5086 25.2165 10.5359 25.2698L10.8571 25.7183C9.54586 27.025 8.17212 28.2755 6.82387 29.5455C6.62187 29.7473 6.41536 29.9413 6.20911 30.1343C6.00561 30.3255 5.80111 30.517 5.59386 30.7245L5.58186 30.7355C5.43136 30.8555 5.26286 30.9305 5.09386 30.9515C4.92736 30.9715 4.76112 30.9413 4.60987 30.8528L4.30386 30.6998L3.73437 30.4403C3.50212 30.311 3.28537 30.1965 3.07287 30.0903C2.86262 29.985 2.64611 29.883 2.41261 29.7795L2.40636 29.7762C2.32361 29.7345 2.24186 29.714 2.17036 29.7205C2.11136 29.7258 2.05461 29.752 2.00486 29.8018L1.98936 29.8147C1.88886 29.8897 1.77737 29.9887 1.66812 30.092L1.30661 30.4482L1.37786 30.559C1.43386 30.6478 1.47812 30.7175 1.54262 30.782C1.82712 31.0663 2.25636 31.6825 2.52786 32.0255C3.08136 32.7547 3.64711 33.4875 4.22711 34.2305C4.78111 34.9402 5.36211 35.6765 5.96336 36.4345L5.97836 36.4587C5.99736 36.4957 6.02686 36.5355 6.06161 36.5702C6.09661 36.6047 6.13587 36.635 6.17237 36.6532L6.18761 36.662C6.27236 36.7188 6.32786 36.7345 6.35211 36.7387C6.49836 36.6937 6.61461 36.629 6.70861 36.5452C6.80986 36.455 6.89011 36.34 6.95886 36.203C7.02586 36.0673 7.06011 35.9192 7.06561 35.7605C7.07161 35.5952 7.04711 35.4153 6.99911 35.2228L6.89586 34.7575C6.84611 34.5327 6.78211 34.302 6.71836 34.072C6.65436 33.8422 6.59061 33.6115 6.53836 33.3768C6.50886 33.2603 6.47961 33.113 6.51061 32.951C6.54211 32.7863 6.63361 32.6147 6.84386 32.463L7.61436 31.8633C8.75286 30.976 9.91961 30.0667 11.1019 29.1803L12.8084 27.914C13.1231 28.3685 13.3826 28.7497 13.6646 29.2202C13.8444 29.527 14.0234 29.8338 14.1944 30.1558C14.3624 30.4725 14.5186 30.798 14.6496 31.1387L16.9041 37.1855C16.9726 37.3447 17.0281 37.4963 17.0826 37.6435C17.1551 37.8408 17.2259 38.032 17.3106 38.2022L17.3151 38.2133C17.3516 38.3045 17.3829 38.358 17.4184 38.3725C17.4599 38.39 17.5339 38.3773 17.6541 38.3375C17.7984 38.2897 17.8966 38.2403 17.9944 38.1913C18.2344 38.0713 18.4254 37.9283 18.5739 37.762C18.7206 37.5968 18.8271 37.4075 18.8979 37.195C18.9446 37.0547 18.9686 36.9005 18.9744 36.7222C18.9804 36.538 18.9676 36.326 18.9431 36.0768C18.4324 32.352 17.9344 28.6242 17.4051 24.9022C17.3506 24.519 17.3919 24.1617 17.5226 23.8442C17.6531 23.5277 17.8719 23.2522 18.1714 23.0317L19.1971 22.1605C20.0689 21.4427 20.9394 20.7255 21.7589 20.0085L21.7616 20.0063C22.0621 19.756 22.3266 19.5037 22.5536 19.2515C22.7789 19.0012 22.9664 18.7517 23.1154 18.5035C23.2439 18.2972 23.3709 18.082 23.4821 17.8595ZM7.35261 24.789C7.51711 25.044 7.68862 25.2948 7.86662 25.5403L7.92611 25.4835L7.82886 25.3603C7.76436 25.2798 7.69986 25.199 7.63461 25.102C7.54561 24.9935 7.45136 24.8892 7.35261 24.789ZM35.8881 15.55H29.2221C29.1544 13.0175 28.6346 10.5585 27.6949 8.27776C29.2296 7.74001 30.7004 7.02 32.0821 6.12175C34.3404 8.646 35.7554 11.9362 35.8881 15.55ZM20.3521 8.30974C18.7464 8.26449 17.1704 8.02499 15.6479 7.59724C16.7736 5.28799 18.3629 3.20376 20.3521 1.46851V8.30974ZM21.4629 8.30974V1.46851C23.4521 3.20376 25.0414 5.28799 26.1671 7.59724C24.6444 8.02499 23.0684 8.26449 21.4629 8.30974ZM27.2434 7.2595C26.1766 5.0245 24.6961 2.98775 22.8629 1.2425C26.1151 1.66775 29.0411 3.13825 31.2946 5.30625C30.0154 6.11825 28.6581 6.7715 27.2434 7.2595ZM14.5714 7.2595C13.1569 6.77125 11.7994 6.11825 10.5206 5.30625C12.7736 3.13825 15.7006 1.66775 18.9529 1.2425C17.1186 2.988 15.6381 5.0245 14.5714 7.2595ZM21.4629 30.7423V23.346C23.1504 23.3932 24.8044 23.655 26.3966 24.1235C25.2614 26.6278 23.5921 28.8845 21.4629 30.7423ZM29.2221 16.6607H35.8881C35.7614 20.1095 34.4669 23.2643 32.3856 25.7395C30.9706 24.7833 29.4606 24.017 27.8809 23.4455C28.7001 21.3023 29.1596 19.0147 29.2221 16.6607ZM22.8629 30.9683C24.8254 29.1003 26.3759 26.8938 27.4561 24.4718C28.9179 24.9965 30.3164 25.6985 31.6309 26.5715C29.3361 28.9218 26.2789 30.5213 22.8629 30.9683Z" fill="#FE5000"/></g>
    </symbol>
    <symbol id="filter" viewBox="0 0 18 18" fill="none">
      <path d="M7.50048 9.19575L3.02148 2.979H15.0215L10.5005 9.24675V12.75L7.50048 15V9.19575Z" stroke="#FE5000" stroke-width="2" stroke-linecap="round" stroke-linejoin="round"/>
    </symbol>
    <symbol id="flag" viewBox="0 0 18 18" fill="none">
      <path d="M3.75 15V11.25C4.74975 10.2503 6 9.75 7.5 9.75C9.75 9.75 10.5 11.25 12 11.25C12.75 11.25 13.5 11.0002 14.25 10.5V3.75C13.5 4.25025 12.75 4.5 12 4.5C10.5 4.5 9.75 3 7.5 3C6 3 4.74975 3.50025 3.75 4.5V11.25" stroke="#FE5000" stroke-width="2" stroke-linecap="round" stroke-linejoin="round"/>
    </symbol>
    <symbol id="globe" viewBox="0 0 28 28" fill="none">
      <path d="M14 27C21.1797 27 27 21.1797 27 14C27 6.8203 21.1797 1 14 1M14 27C6.8203 27 1 21.1797 1 14C1 6.8203 6.8203 1 14 1M14 27C10.6863 27 8 21.1797 8 14C8 6.8203 10.6863 1 14 1M14 27C17.3137 27 20 21.1797 20 14C20 6.8203 17.3137 1 14 1M1 13C1 14.6569 6.8203 16 14 16C21.1797 16 27 14.6569 27 13"/>
    </symbol>
    <symbol id="map-2" viewBox="0 0 40 40" fill="none">
      <path fill-rule="evenodd" clip-rule="evenodd" d="M37.2862 15.878H29.4242C29.0252 15.878 28.7027 16.2005 28.7027 16.5995C28.7027 16.9985 29.0252 17.3207 29.4242 17.3207H35.99L38.0812 36.7977H1.63648L4.09123 17.3207H10.6687C11.0675 17.3207 11.39 16.9985 11.39 16.5995C11.39 16.2005 11.0675 15.878 10.6687 15.878H2.81873L0.000228882 38.2405H39.6877L37.2862 15.878ZM19.2277 27.3875C19.1215 27.4503 19.0082 27.5057 18.9065 27.5715C18.748 27.674 18.5927 27.7815 18.4405 27.8925C18.1195 28.1285 18.0502 28.58 18.2855 28.901C18.427 29.0935 18.6462 29.1952 18.8685 29.1952C19.0162 29.1952 19.1655 29.1497 19.2947 29.056C19.423 28.9615 19.5537 28.8707 19.69 28.7827C19.9215 28.6327 20.1675 28.492 20.4215 28.3635C20.759 28.1928 20.8962 27.793 20.7547 27.4482C20.7605 27.4425 20.7677 27.438 20.7727 27.4323C22.0777 26.0503 26.4752 20.8707 28.296 12.2417C28.6652 10.4917 28.7482 8.81224 28.5427 7.25049C27.9222 2.50749 24.9755 0 20.021 0C15.0682 0 12.1215 2.50749 11.4995 7.25049C11.2947 8.81299 11.3777 10.4925 11.747 12.2417C13.5497 20.787 17.878 25.9463 19.2277 27.3875ZM20.0217 13.6505C22.944 13.6505 25.321 11.2735 25.321 8.35124C25.321 5.429 22.944 3.05225 20.0217 3.05225C17.0995 3.05225 14.7227 5.429 14.7227 8.35124C14.7227 11.2735 17.0995 13.6505 20.0217 13.6505ZM22.6715 26.0905C22.282 26.1727 22.0337 26.5565 22.1167 26.9467C22.1887 27.2857 22.4882 27.5175 22.8215 27.5175C22.8712 27.5175 22.9225 27.5122 22.973 27.5015C23.3957 27.412 23.8537 27.3362 24.3335 27.2757C24.7287 27.2275 25.01 26.8667 24.9602 26.4715C24.9112 26.0755 24.5542 25.7897 24.156 25.8445C23.6345 25.9087 23.1345 25.9917 22.6715 26.0905ZM26.4017 26.3835C26.4175 26.7707 26.7377 27.0737 27.1215 27.0737C27.1325 27.0737 27.1425 27.0737 27.1532 27.073L28.5967 27.0132C28.9942 26.995 29.303 26.6575 29.2842 26.26C29.2662 25.8612 28.8955 25.5502 28.531 25.572L27.0912 25.6317C26.693 25.6482 26.3842 25.9845 26.4017 26.3835ZM16.1827 29.7025C15.812 29.9822 15.429 30.2515 15.043 30.501C14.709 30.718 14.6137 31.1647 14.831 31.4992C14.9687 31.7122 15.201 31.8275 15.4367 31.8275C15.5717 31.8275 15.7075 31.79 15.8292 31.7115C16.2425 31.443 16.6545 31.1545 17.052 30.8545C17.3695 30.6142 17.433 30.162 17.1935 29.8438C16.9532 29.5285 16.5022 29.4622 16.1827 29.7025ZM32.2597 24.9457C32.016 25.1167 31.6992 25.2407 31.289 25.3252C30.8987 25.4052 30.6475 25.7875 30.7285 26.1777C30.799 26.519 31.0992 26.7535 31.4347 26.7535C31.483 26.7535 31.532 26.7485 31.581 26.7382C32.1885 26.6127 32.682 26.4122 33.093 26.123L33.1897 26.0522C33.507 25.8115 33.57 25.359 33.3297 25.0417C33.0887 24.7242 32.6372 24.6622 32.319 24.9017L32.2597 24.9457ZM6.39173 30.586C6.49623 30.2017 6.26824 29.8055 5.88374 29.7017C5.50224 29.5942 5.10323 29.8237 4.99948 30.2095C4.90848 30.5442 4.85448 30.8862 4.83698 31.223C4.83348 31.306 4.83123 31.3897 4.83123 31.4777C4.83198 31.619 4.83848 31.7605 4.85223 31.9012C4.89048 32.2727 5.20349 32.549 5.56924 32.549C5.59299 32.549 5.61748 32.5475 5.64348 32.5452C6.03948 32.5042 6.32824 32.1507 6.28849 31.754C6.27824 31.6595 6.27473 31.5635 6.27398 31.4727C6.27398 31.4127 6.27624 31.353 6.27899 31.2938C6.29074 31.06 6.32823 30.8212 6.39173 30.586ZM32.244 19.3385C31.6712 19.262 31.087 19.309 30.5227 19.469C30.139 19.5765 29.9162 19.9755 30.025 20.3585C30.1145 20.6767 30.4037 20.8845 30.7182 20.8845C30.784 20.8845 30.8495 20.8757 30.9145 20.857C31.2895 20.7517 31.6755 20.7185 32.0507 20.769C32.456 20.8195 32.8095 20.5447 32.8622 20.1507C32.9155 19.7547 32.6385 19.392 32.244 19.3385ZM33.6795 22.9122C33.562 23.2922 33.7755 23.697 34.1555 23.814C34.227 23.8362 34.2977 23.8462 34.3685 23.8462C34.6772 23.8462 34.962 23.648 35.0572 23.3377C35.1287 23.1085 35.1727 22.8755 35.1892 22.6432C35.193 22.5832 35.195 22.5227 35.195 22.4627C35.195 22.1252 35.133 21.787 35.0112 21.4587C34.8727 21.0842 34.455 20.8952 34.0842 21.033C33.7097 21.1715 33.52 21.587 33.6585 21.96C33.7207 22.1272 33.7525 22.297 33.7525 22.462L33.7502 22.5465C33.7415 22.6662 33.7185 22.786 33.6795 22.9122ZM12.6105 31.8573C12.1877 32.0555 11.7572 32.2395 11.3307 32.4047C10.9592 32.5475 10.7747 32.9653 10.9182 33.3375C11.0285 33.623 11.3012 33.799 11.5912 33.799C11.6777 33.799 11.7657 33.784 11.851 33.7507C12.309 33.574 12.7707 33.3762 13.2237 33.1642C13.5842 32.9955 13.7395 32.5655 13.57 32.205C13.402 31.8435 12.9735 31.687 12.6105 31.8573ZM7.35898 28.854C7.47523 28.854 7.59348 28.826 7.70373 28.766C7.91148 28.6527 8.13298 28.5822 8.36098 28.5577C8.45848 28.546 8.55798 28.546 8.65373 28.559C9.05998 28.6117 9.41123 28.3332 9.46323 27.9387C9.51523 27.5432 9.23748 27.1812 8.84273 27.1292C8.62798 27.1012 8.40924 27.0997 8.19998 27.1235C7.78598 27.169 7.38648 27.296 7.01273 27.4992C6.66273 27.6905 6.53373 28.1277 6.72498 28.4775C6.85624 28.7185 7.10348 28.854 7.35898 28.854ZM7.20898 34.5102C7.36473 34.5507 7.52348 34.581 7.68073 34.5997C7.86548 34.6222 8.04998 34.6337 8.23548 34.6337C8.46123 34.6337 8.68774 34.6177 8.91349 34.589C9.30874 34.5392 9.58949 34.1785 9.53899 33.7832C9.48849 33.388 9.12999 33.1095 8.73324 33.1577C8.44174 33.1952 8.14748 33.204 7.85598 33.1688C7.76073 33.1562 7.66549 33.1382 7.57174 33.1145C7.18574 33.0112 6.79273 33.245 6.69173 33.631C6.59298 34.017 6.82373 34.4107 7.20898 34.5102ZM20.0217 4.49548C22.1477 4.49548 23.8782 6.22548 23.8782 8.35198C23.8782 10.4787 22.1485 12.2085 20.0217 12.2085C17.8952 12.2085 16.1655 10.4787 16.1655 8.35198C16.1655 6.22548 17.896 4.49548 20.0217 4.49548ZM12.93 7.43875C13.4587 3.40499 15.7787 1.44348 20.022 1.44348C24.2657 1.44348 26.585 3.40499 27.113 7.43875C27.297 8.83825 27.2197 10.3552 26.885 11.9452C25.2482 19.702 21.3455 24.624 20.0217 26.1172C18.6967 24.6225 14.7947 19.6985 13.1587 11.9452C12.8232 10.3552 12.747 8.83899 12.93 7.43875Z" fill="#FE5000"/>
    </symbol>
    <symbol id="map" viewBox="0 0 47 47" fill="none">
      <path d="M17.625 37.2083L5.875 41.125V9.79167L17.625 5.875L29.375 9.79167L41.125 5.875V36.2292L29.375 41.125L17.625 37.2083Z" stroke="#FE5000" stroke-width="3" stroke-linecap="round" stroke-linejoin="round" fill="transparent"/><path d="M17.625 5.875V37.2083M29.375 9.79167V41.125V9.79167Z" stroke="#FE5000" stroke-width="3" stroke-linecap="round" stroke-linejoin="round" fill="transparent"/>
    </symbol>
    <symbol id="package" viewBox="0 0 55.24 60">
      <g clip-path="url(#a)"><path d="M57.59,14.15a1.57,1.57,0,0,0-.15-.67,1.47,1.47,0,0,0-1-.81L30.62.15a1.53,1.53,0,0,0-1.33,0l-26,12.63a1.53,1.53,0,0,0-.86,1.32h0V45.84a1.51,1.51,0,0,0,.86,1.37l26,12.63h0l.11.05h.05l.11,0h0l.13,0h.41l.13,0h0l.11,0h.05l.11-.05h0L56.76,47.17a1.53,1.53,0,0,0,.86-1.37V14.18S57.59,14.16,57.59,14.15ZM29.95,3.2l22.59,11-8.32,4-22.59-11Zm0,21.91-22.59-11L18.15,8.93l22.59,11ZM5.42,16.6l23,11.16V56l-23-11.16ZM31.47,56V27.76l10.8-5.24v7.4a1.52,1.52,0,0,0,3,0V21l9.24-4.48V44.83Z" transform="translate(-2.38)" fill="#fe5000"/></g>
    </symbol>
    <symbol id="parking-2" viewBox="0 0 40 40" fill="none">
      <path fill-rule="evenodd" clip-rule="evenodd" d="M21.5335 8.01599H11.3953V31.6718H13.641V21.5335H21.5335C25.261 21.5335 28.2925 18.5023 28.2925 14.7748C28.2925 11.047 25.261 8.01575 21.5335 8.01575V8.01599ZM2.8425 0H36.845C38.4085 0 39.6875 1.279 39.6875 2.8425V36.845C39.6875 38.4085 38.4085 39.6875 36.845 39.6875H2.8425C1.279 39.6875 0 38.4085 0 36.845V2.8425C0 1.279 1.279 0 2.8425 0ZM4.421 1.8425H35.2665C36.6848 1.8425 37.845 3.00275 37.845 4.421V35.2665C37.845 36.6848 36.6848 37.845 35.2665 37.845H4.421C3.00275 37.845 1.8425 36.6848 1.8425 35.2665V4.421C1.8425 3.00275 3.00275 1.8425 4.421 1.8425ZM21.5335 19.288H13.641V10.261H21.5335C28.1417 10.4853 28.1217 19.5075 21.5335 19.2877V19.288Z" fill="#FE5000"/>
    </symbol>
    <symbol id="parking" viewBox="0 0 48.05 60">
      <g fill="#fe5000" clip-path="url(#a)"><path d="M48.92,0H11.08A5.11,5.11,0,0,0,6,5.1V43a5.11,5.11,0,0,0,5.1,5.1H22.4v8.36H20.65a1.76,1.76,0,0,0,0,3.52H39.35a1.76,1.76,0,1,0,0-3.52H37.6V48.12H48.92A5.11,5.11,0,0,0,54,43V5.1A5.11,5.11,0,0,0,48.92,0ZM34.08,56.48H25.92V48.12h8.16ZM50.51,43a1.59,1.59,0,0,1-1.58,1.58H11.08A1.59,1.59,0,0,1,9.49,43V5.1a1.59,1.59,0,0,1,1.58-1.58H48.92A1.59,1.59,0,0,1,50.51,5.1Z" transform="translate(-5.98)"/><path d="M33.39,7.05H22.78a6.21,6.21,0,0,0-6.2,6.2V39.17a1.91,1.91,0,0,0,1.91,1.91h6.28a1.91,1.91,0,0,0,1.91-1.91V30.74h6.72A10.52,10.52,0,0,0,43.9,20.24V17.56A10.52,10.52,0,0,0,33.39,7.05Zm7,13.19a7,7,0,0,1-7,7H25.06a1.91,1.91,0,0,0-1.91,1.91v8.42H20.09V13.25a2.69,2.69,0,0,1,2.69-2.69H33.39a7,7,0,0,1,7,7Z" transform="translate(-5.98)"/><path d="M32.76,13.36h-7.7a1.91,1.91,0,0,0-1.91,1.91v7.12a1.91,1.91,0,0,0,1.91,1.91h7.7a4.56,4.56,0,0,0,4.55-4.55V17.92A4.56,4.56,0,0,0,32.76,13.36Zm1,6.38a1,1,0,0,1-1,1H26.67v-3.9h6.09a1,1,0,0,1,1,1Z" transform="translate(-5.98)"/></g>
    </symbol>
    <symbol id="plus" viewBox="0 0 20 20" fill="none">
      <path d="M9.99968 3.33334V16.6667M16.6663 10H3.33301H16.6663Z" stroke="#0C2340" stroke-opacity=".4" stroke-width="2" stroke-linecap="round" stroke-linejoin="round"/>
    </symbol>
    <symbol id="search-2" viewBox="0 0 15 15" fill="none">
      <g clip-path="url(#clip0)"><path d="M13.9348 15.0662C14.2475 15.3783 14.7541 15.3779 15.0662 15.0652C15.3783 14.7525 15.3779 14.2459 15.0652 13.9338L13.9348 15.0662ZM11.3129 11.3188L10.7477 10.7527L11.3129 11.3188ZM7.25 12.2C4.51619 12.2 2.3 9.98381 2.3 7.25H0.7C0.7 10.8675 3.63253 13.8 7.25 13.8V12.2ZM2.3 7.25C2.3 4.51619 4.51619 2.3 7.25 2.3V0.7C3.63253 0.7 0.7 3.63253 0.7 7.25H2.3ZM7.25 2.3C9.98381 2.3 12.2 4.51619 12.2 7.25H13.8C13.8 3.63253 10.8675 0.7 7.25 0.7V2.3ZM12.2 7.25C12.2 8.61841 11.6458 9.85585 10.7477 10.7527L11.8782 11.8849C13.0646 10.7002 13.8 9.06021 13.8 7.25H12.2ZM10.7477 10.7527C9.85121 11.6479 8.61585 12.2 7.25 12.2V13.8C9.05681 13.8 10.694 13.0674 11.8782 11.8849L10.7477 10.7527ZM10.7478 11.885L13.9348 15.0662L15.0652 13.9338L11.8781 10.7526L10.7478 11.885Z" fill="#0C0A3E"/></g>
    </symbol>
    <symbol id="search" viewBox="0 0 24 24">
      <path d="M14.4121 14.4121L20 20"/><path d="M10 16C13.3137 16 16 13.3137 16 10C16 6.68629 13.3137 4 10 4C6.68629 4 4 6.68629 4 10C4 13.3137 6.68629 16 10 16Z" fill="none"/>
    </symbol>
    <symbol id="soc-fb" viewBox="0 0 9 16">
      <path d="M8.66109 0.00332907L6.5024 0C4.07718 0 2.5099 1.54552 2.5099 3.93762V5.75313H0.339433C0.151879 5.75313 0 5.89927 0 6.07954V8.71001C0 8.89028 0.152052 9.03625 0.339433 9.03625H2.5099V15.6738C2.5099 15.854 2.66178 16 2.84933 16H5.68118C5.86873 16 6.02061 15.8539 6.02061 15.6738V9.03625H8.55839C8.74595 9.03625 8.89782 8.89028 8.89782 8.71001L8.89886 6.07954C8.89886 5.99299 8.86302 5.91009 8.79946 5.84884C8.7359 5.78758 8.64931 5.75313 8.55926 5.75313H6.02061V4.2141C6.02061 3.47438 6.20401 3.09886 7.20655 3.09886L8.66074 3.09836C8.84812 3.09836 9 2.95222 9 2.77211V0.329578C9 0.149642 8.84829 0.00366197 8.66109 0.00332907Z"/>
    </symbol>
    <symbol id="soc-inst" viewBox="0 0 16 16">
      <path d="M11.3523 0H4.64775C2.08497 0 0 2.08497 0 4.64775V11.3523C0 13.915 2.08497 16 4.64775 16H11.3523C13.915 16 16 13.915 16 11.3523V4.64775C16 2.08497 13.915 0 11.3523 0ZM14.75 11.3523C14.75 13.2258 13.2258 14.75 11.3523 14.75H4.64775C2.77422 14.75 1.25 13.2258 1.25 11.3523V4.64775C1.25 2.77422 2.77422 1.25 4.64775 1.25H11.3523C13.2258 1.25 14.75 2.77422 14.75 4.64775V11.3523Z"/><path d="M8 4C5.79438 4 4 5.79438 4 8C4 10.2056 5.79438 12 8 12C10.2056 12 12 10.2056 12 8C12 5.79438 10.2056 4 8 4ZM8 10.8406C6.43371 10.8406 5.15942 9.56629 5.15942 8C5.15942 6.43371 6.43371 5.15942 8 5.15942C9.56629 5.15942 10.8406 6.43371 10.8406 8C10.8406 9.56629 9.56629 10.8406 8 10.8406Z"/><path d="M12 5C12.5523 5 13 4.55228 13 4C13 3.44772 12.5523 3 12 3C11.4477 3 11 3.44772 11 4C11 4.55228 11.4477 5 12 5Z"/>
    </symbol>
    <symbol id="soc-od" viewBox="0 0 10 16">
      <path d="M4.01622 11.2698C2.77585 11.1405 1.65747 10.835 0.699956 10.0861C0.581147 9.99293 0.458484 9.90312 0.350065 9.79905C-0.0690345 9.39654 -0.111263 8.93555 0.220363 8.46048C0.504064 8.05395 0.980305 7.9452 1.47532 8.17863C1.57117 8.22387 1.66249 8.28034 1.74997 8.341C3.53445 9.56713 5.98587 9.60098 7.77705 8.39613C7.95451 8.26007 8.1442 8.14913 8.36406 8.09249C8.79154 7.98273 9.19019 8.13975 9.4196 8.51377C9.68168 8.94091 9.67833 9.35783 9.35542 9.68946C8.86007 10.1979 8.26435 10.5657 7.60244 10.8224C6.97656 11.0651 6.29102 11.1872 5.61252 11.2683C5.7149 11.3798 5.76316 11.4346 5.82718 11.4989C6.74849 12.4246 7.67383 13.3464 8.59213 14.2749C8.90498 14.5913 8.97034 14.9836 8.79807 15.3516C8.60972 15.7537 8.18811 16.0183 7.77471 15.99C7.51279 15.9719 7.30852 15.8416 7.12704 15.6587C6.43178 14.9591 5.72345 14.2724 5.04227 13.5595C4.84403 13.3523 4.74868 13.3915 4.57373 13.5714C3.87429 14.2915 3.16344 15.0005 2.44841 15.7055C2.12734 16.022 1.74527 16.079 1.37293 15.8982C0.977122 15.7063 0.72526 15.3023 0.744698 14.8963C0.758104 14.6216 0.893168 14.4118 1.08169 14.2236C1.99345 13.3132 2.9027 12.4004 3.81228 11.4885C3.87244 11.4279 3.92858 11.3635 4.01622 11.2698Z"/><path d="M4.77225 8.09863C2.55945 8.09109 0.744978 6.25667 0.757881 4.04036C0.770616 1.79958 2.58626 -0.00618427 4.82084 1.59188e-05C7.05995 0.00604853 8.85716 1.83778 8.84594 4.10186C8.83454 6.31365 7.0075 8.10634 4.77225 8.09863ZM6.78329 4.04572C6.77943 2.94527 5.90303 2.0692 4.80476 2.0682C3.69727 2.06702 2.81299 2.95901 2.82154 4.06952C2.82975 5.16578 3.71369 6.03565 4.81498 6.03162C5.91292 6.02777 6.78697 5.146 6.78329 4.04572Z"/>
    </symbol>
    <symbol id="soc-tw" viewBox="0 0 16 14">
      <path d="M16 2.039C15.405 2.3 14.771 2.473 14.11 2.557C14.79 2.151 15.309 1.513 15.553 0.744C14.919 1.122 14.219 1.389 13.473 1.538C12.871 0.897 12.013 0.5 11.077 0.5C9.261 0.5 7.799 1.974 7.799 3.781C7.799 4.041 7.821 4.291 7.875 4.529C5.148 4.396 2.735 3.089 1.114 1.098C0.831 1.589 0.665 2.151 0.665 2.756C0.665 3.892 1.25 4.899 2.122 5.482C1.595 5.472 1.078 5.319 0.64 5.078C0.64 5.088 0.64 5.101 0.64 5.114C0.64 6.708 1.777 8.032 3.268 8.337C3.001 8.41 2.71 8.445 2.408 8.445C2.198 8.445 1.986 8.433 1.787 8.389C2.212 9.688 3.418 10.643 4.852 10.674C3.736 11.547 2.319 12.073 0.785 12.073C0.516 12.073 0.258 12.061 0 12.028C1.453 12.965 3.175 13.5 5.032 13.5C11.068 13.5 14.368 8.5 14.368 4.166C14.368 4.021 14.363 3.881 14.356 3.742C15.007 3.28 15.554 2.703 16 2.039Z"/>
    </symbol>
    <symbol id="soc-vk" viewBox="0 0 16 9">
      <path fill-rule="evenodd" clip-rule="evenodd" d="M13.7703 5.72261C14.301 6.23766 14.8612 6.72226 15.3372 7.28925C15.5475 7.54121 15.7466 7.80122 15.8989 8.09363C16.1147 8.5093 15.9192 8.96672 15.5442 8.99154L13.2133 8.99049C12.6121 9.04008 12.1325 8.79951 11.7293 8.39095C11.4066 8.06421 11.1077 7.71647 10.7974 7.37871C10.6702 7.24066 10.537 7.11075 10.3779 7.00808C10.0597 6.80278 9.78353 6.86564 9.60169 7.19551C9.41649 7.53102 9.37449 7.90254 9.3563 8.27646C9.33133 8.82203 9.16542 8.96546 8.61407 8.99044C7.43578 9.04567 6.31753 8.86848 5.2787 8.27766C4.36284 7.75681 3.65263 7.02151 3.03447 6.18907C1.83089 4.56814 0.909193 2.787 0.0808054 0.955963C-0.105658 0.543428 0.0307068 0.321981 0.488638 0.314143C1.24905 0.29946 2.00936 0.300505 2.77067 0.313098C3.07973 0.317592 3.28433 0.493788 3.40366 0.783999C3.81507 1.7895 4.31847 2.74614 4.95036 3.63287C5.11863 3.86895 5.29022 4.10502 5.53456 4.27119C5.80487 4.45517 6.01068 4.39419 6.13784 4.09489C6.21854 3.9051 6.25386 3.70069 6.27205 3.49743C6.3323 2.79813 6.34024 2.10004 6.23457 1.40319C6.1697 0.968295 5.92326 0.686757 5.48667 0.604459C5.26388 0.5625 5.29705 0.480098 5.40492 0.353699C5.59228 0.1357 5.76849 0 6.11976 0H8.75406C9.16878 0.0813574 9.26088 0.266541 9.31766 0.681323L9.31992 3.58986C9.3154 3.75044 9.40061 4.22693 9.69158 4.33321C9.92447 4.40887 10.078 4.22369 10.2177 4.07691C10.8484 3.41153 11.2986 2.62517 11.7007 1.81092C11.8792 1.45289 12.0327 1.08106 12.1814 0.709539C12.2916 0.433854 12.4645 0.298206 12.7769 0.304215L15.3122 0.306462C15.3874 0.306462 15.4635 0.307559 15.5363 0.319943C15.9635 0.392313 16.0806 0.574989 15.9486 0.989666C15.7407 1.64026 15.3362 2.18244 14.9407 2.72712C14.5179 3.30864 14.0657 3.87025 13.6464 4.45522C13.2611 4.9894 13.2917 5.25866 13.7703 5.72261Z"/>
    </symbol>
    <symbol id="soc-yt" viewBox="0 0 16 11">
      <path d="M15.3764 0.944272C14.7988 0.27358 13.7325 0 11.6961 0H4.30379C2.22075 0 1.13636 0.291228 0.560981 1.00528C0 1.70148 0 2.72729 0 4.14702V6.85303C0 9.60351 0.6656 11 4.30379 11H11.6961C13.4621 11 14.4407 10.7586 15.0738 10.1667C15.723 9.55974 16 8.56873 16 6.85303V4.14702C16 2.64979 15.9566 1.61794 15.3764 0.944272ZM10.2721 5.87361L6.91525 7.58745C6.84021 7.62577 6.75814 7.64478 6.67618 7.64478C6.58338 7.64478 6.49079 7.62038 6.40877 7.57187C6.25435 7.48046 6.16005 7.31695 6.16005 7.14058V3.72389C6.16005 3.54783 6.25409 3.38446 6.40821 3.293C6.56237 3.20154 6.75412 3.19529 6.91406 3.27646L10.2709 4.97926C10.4417 5.06588 10.5489 5.23812 10.5492 5.42603C10.5494 5.6141 10.4426 5.78659 10.2721 5.87361Z"/>
    </symbol>
    <symbol id="spy" viewBox="0 0 56.21 60">
      <g fill="#fe5000" clip-path="url(#a)"><path d="M10.93,33.65a53.63,53.63,0,0,0,19.18,3.18A53.63,53.63,0,0,0,49.3,33.65c5.67-2.25,8.79-5.45,8.79-9,0-2-1-4.85-5.58-7.48A20.3,20.3,0,0,0,50,16l-1.06-.43C48.13,7.31,46,2.46,42.58.71c-4-2-8.33.7-10.94,2.32-.5.31-1.15.71-1.52.89-.37-.18-1-.58-1.52-.89C26,1.41,21.62-1.29,17.65.71c-3.47,1.75-5.55,6.6-6.37,14.82L10.22,16a20.3,20.3,0,0,0-2.5,1.2c-4.61,2.63-5.58,5.52-5.58,7.48C2.14,28.2,5.26,31.39,10.93,33.65Zm8.31-29.8a3.27,3.27,0,0,1,1.49-.33c2,0,4.25,1.41,6,2.5,1.44.89,2.39,1.48,3.38,1.48S32,6.91,33.49,6c2.24-1.39,5.3-3.28,7.5-2.17,1.58.8,3.61,3.54,4.44,12a34.57,34.57,0,0,1-15.32,3.38,34.57,34.57,0,0,1-15.32-3.38C15.63,7.39,17.65,4.65,19.24,3.85ZM9.47,20.21a16.8,16.8,0,0,1,2.07-1l1.24-.5a37.9,37.9,0,0,0,17.34,4,37.9,37.9,0,0,0,17.34-4l1.24.5a16.8,16.8,0,0,1,2.07,1c2.45,1.4,3.8,3,3.8,4.43,0,2-2.46,4.1-6.57,5.74a50.08,50.08,0,0,1-17.88,2.93,50.08,50.08,0,0,1-17.88-2.93c-4.11-1.64-6.57-3.78-6.57-5.74C5.66,23.19,7,21.61,9.47,20.21Z" transform="translate(-1.88)"/><path d="M56.33,45h-2.1a10.84,10.84,0,0,0-20.05.06,9.18,9.18,0,0,0-8.42,0A10.84,10.84,0,0,0,5.7,45H3.63a1.76,1.76,0,0,0,0,3.52H4.89c0,.21,0,.42,0,.63a10.84,10.84,0,1,0,21.68,0c0-.13,0-.26,0-.39a5.63,5.63,0,0,1,6.84-.06q0,.22,0,.45a10.84,10.84,0,1,0,21.68,0c0-.21,0-.42,0-.63h1.29a1.76,1.76,0,0,0,0-3.52ZM15.71,56.48A7.32,7.32,0,1,1,23,49.16,7.33,7.33,0,0,1,15.71,56.48Zm28.51,0a7.32,7.32,0,1,1,7.32-7.32A7.33,7.33,0,0,1,44.22,56.48Z" transform="translate(-1.88)"/></g>
    </symbol>
    <symbol id="star" viewBox="0 0 60 57.24">
      <g clip-path="url(#a)"><path d="M59.86,22.61A1.63,1.63,0,0,0,58.2,21.4H38.28L31.75,2.59A1.65,1.65,0,0,0,30,1.38a1.69,1.69,0,0,0-1.76,1.21L21.74,21.4H1.82A1.66,1.66,0,0,0,.09,22.61a1.77,1.77,0,0,0,.59,2l16,12.49-5.8,19.14a1.73,1.73,0,0,0,.65,2,1.88,1.88,0,0,0,2.15,0L30,46.87,46.36,58.28a1.83,1.83,0,0,0,1.08.33,1.77,1.77,0,0,0,1.79-1.79,2.54,2.54,0,0,0-.13-.75L43.36,37.12l16-12.49A1.65,1.65,0,0,0,59.86,22.61ZM40.17,35A1.88,1.88,0,0,0,39.55,37l4.63,15.36L31,43.18a1.63,1.63,0,0,0-2,0L15.84,52.31,20.47,37A1.88,1.88,0,0,0,19.85,35L7,25h16a1.63,1.63,0,0,0,1.66-1.21L30,8.65l5.25,15.16A1.64,1.64,0,0,0,37,25H53Z" transform="translate(0 -1.38)" fill="#fe5000"/></g>
    </symbol>
    <symbol id="tickets-2" viewBox="0 0 40 40" fill="none">
      <g clip-path="url(#clip0)"><path fill-rule="evenodd" clip-rule="evenodd" d="M3.1359 5H36.5516C37.4149 5 38.1992 5.35251 38.7672 5.92051V5.924C39.3346 6.492 39.6876 7.27502 39.6876 8.13577V30.4367C39.6876 31.2972 39.3346 32.0805 38.7672 32.6485L38.7636 32.652C38.1956 33.2195 37.4124 33.5725 36.5516 33.5725H3.1359C2.2749 33.5725 1.4919 33.2195 0.9239 32.652H0.920396C0.352396 32.0843 -9.91821e-05 31.2997 -9.91821e-05 30.4367V8.13577C-9.91821e-05 7.27277 0.352396 6.48826 0.920396 5.92051C1.4884 5.35251 2.27265 5 3.1359 5ZM1.87589 11.639H37.8116V8.13577C37.8116 7.78902 37.6704 7.473 37.4429 7.24475C37.2124 7.01775 36.8974 6.87576 36.5516 6.87576H3.1359C2.79015 6.87576 2.47515 7.01776 2.2464 7.24651C2.0179 7.47501 1.87589 7.79027 1.87589 8.13577V11.639ZM37.8116 13.6058H1.87589V16.5735H37.8116V13.6058ZM1.87589 18.5403V30.4367C1.87589 30.7822 2.0179 31.0975 2.2464 31.326C2.47315 31.5555 2.7889 31.6968 3.1359 31.6968H36.5516C36.8989 31.6968 37.2144 31.5553 37.4429 31.3278C37.6701 31.0995 37.8116 30.7837 37.8116 30.4367V18.5403H1.87589ZM23.8851 28.065H33.1801V29.5568H23.8851V28.065Z" fill="#FE5000"/></g>
    </symbol>
    <symbol id="tickets" viewBox="0 0 60 60" fill="none">
      <path d="M52.5795 15.0257L51.3364 16.2688C50.3208 17.2845 48.9703 17.8438 47.5338 17.8438C46.0973 17.8438 44.7471 17.2845 43.7313 16.2688C42.7157 15.2531 42.1563 13.9027 42.1563 12.4663C42.1563 11.0299 42.7157 9.67945 43.7313 8.66367L44.9745 7.42055L37.5538 0L0 37.5538L7.42055 44.9743L8.66367 43.7312C9.67934 42.7155 11.0298 42.1562 12.4663 42.1562C13.9028 42.1562 15.253 42.7155 16.2688 43.7312C17.2845 44.7469 17.8438 46.0973 17.8438 47.5337C17.8438 48.9701 17.2845 50.3205 16.2688 51.3363L15.0257 52.5795L22.4462 60L60 22.4462L52.5795 15.0257ZM19.8762 52.4573C20.8414 51.0109 21.36 49.3121 21.36 47.5337C21.36 45.1581 20.4349 42.9247 18.755 41.245C17.0753 39.5651 14.8418 38.64 12.4663 38.64C10.6879 38.64 8.9891 39.1586 7.54266 40.1238L4.9725 37.5538L37.5538 4.9725L40.1238 7.54266C39.1586 8.9891 38.64 10.6879 38.64 12.4663C38.64 14.8419 39.5651 17.0753 41.245 18.755C42.9247 20.4349 45.1582 21.36 47.5337 21.36C49.3121 21.36 51.0109 20.8414 52.4573 19.8762L55.0275 22.4462L22.4462 55.0275L19.8762 52.4573Z" fill="#FE5000"/><path d="M35.0331 22.47L32.5469 24.9563L35.043 27.4524L37.5293 24.9662L35.0331 22.47Z" fill="#FE5000"/><path d="M30.0429 17.4761L27.5566 19.9623L30.0528 22.4585L32.539 19.9723L30.0429 17.4761Z" fill="#FE5000"/><path d="M40.0272 27.4623L37.541 29.9486L40.0372 32.4447L42.5234 29.9585L40.0272 27.4623Z" fill="#FE5000"/>
    </symbol></svg>