<svg width="20" height="20" viewBox="0 0 20 20" fill="none" xmlns="http://www.w3.org/2000/svg"><g id="time/calendar-1" fill="#000"><path id="Vector" d="M6.66675 4.79166C6.32508 4.79166 6.04175 4.50832 6.04175 4.16666V1.66666C6.04175 1.32499 6.32508 1.04166 6.66675 1.04166C7.00841 1.04166 7.29175 1.32499 7.29175 1.66666V4.16666C7.29175 4.50832 7.00841 4.79166 6.66675 4.79166Z"/><path id="Vector_2" d="M13.3333 4.79166C12.9916 4.79166 12.7083 4.50832 12.7083 4.16666V1.66666C12.7083 1.32499 12.9916 1.04166 13.3333 1.04166C13.6749 1.04166 13.9583 1.32499 13.9583 1.66666V4.16666C13.9583 4.50832 13.6749 4.79166 13.3333 4.79166Z"/><path id="Vector_3" d="M7.08333 12.082C6.975 12.082 6.86667 12.057 6.76667 12.0154C6.65833 11.9737 6.575 11.9153 6.49167 11.8403C6.34167 11.6819 6.25 11.4737 6.25 11.2487C6.25 11.1404 6.275 11.032 6.31667 10.932C6.35833 10.832 6.41667 10.7404 6.49167 10.657C6.575 10.582 6.65833 10.5236 6.76667 10.4819C7.06667 10.3569 7.44167 10.4237 7.675 10.657C7.825 10.8154 7.91667 11.032 7.91667 11.2487C7.91667 11.2987 7.90833 11.357 7.9 11.4154C7.89167 11.4654 7.875 11.5154 7.85 11.5654C7.83333 11.6154 7.80833 11.6654 7.775 11.7154C7.75 11.757 7.70833 11.7986 7.675 11.8403C7.51667 11.9903 7.3 12.082 7.08333 12.082Z"/><path id="Vector_4" d="M10.0001 12.0824C9.89175 12.0824 9.78341 12.0574 9.68341 12.0158C9.57508 11.9741 9.49175 11.9158 9.40841 11.8408C9.25841 11.6824 9.16675 11.4741 9.16675 11.2491C9.16675 11.1408 9.19175 11.0324 9.23341 10.9324C9.27508 10.8324 9.33341 10.7408 9.40841 10.6574C9.49175 10.5824 9.57508 10.5241 9.68341 10.4824C9.98341 10.3491 10.3584 10.4241 10.5917 10.6574C10.7417 10.8158 10.8334 11.0324 10.8334 11.2491C10.8334 11.2991 10.8251 11.3574 10.8167 11.4158C10.8084 11.4658 10.7917 11.5158 10.7667 11.5658C10.7501 11.6158 10.7251 11.6658 10.6917 11.7158C10.6667 11.7574 10.6251 11.7991 10.5917 11.8408C10.4334 11.9908 10.2167 12.0824 10.0001 12.0824Z"/><path id="Vector_5" d="M12.9166 12.0824C12.8083 12.0824 12.6999 12.0574 12.5999 12.0158C12.4916 11.9741 12.4083 11.9158 12.3249 11.8408C12.2916 11.7991 12.2583 11.7574 12.2249 11.7158C12.1916 11.6658 12.1666 11.6158 12.1499 11.5658C12.1249 11.5158 12.1083 11.4658 12.0999 11.4158C12.0916 11.3574 12.0833 11.2991 12.0833 11.2491C12.0833 11.0324 12.1749 10.8158 12.3249 10.6574C12.4083 10.5824 12.4916 10.5241 12.5999 10.4824C12.9083 10.3491 13.2749 10.4241 13.5083 10.6574C13.6583 10.8158 13.7499 11.0324 13.7499 11.2491C13.7499 11.2991 13.7416 11.3574 13.7333 11.4158C13.7249 11.4658 13.7083 11.5158 13.6833 11.5658C13.6666 11.6158 13.6416 11.6658 13.6083 11.7158C13.5833 11.7574 13.5416 11.7991 13.5083 11.8408C13.3499 11.9908 13.1333 12.0824 12.9166 12.0824Z"/><path id="Vector_6" d="M7.08333 14.9993C6.975 14.9993 6.86667 14.9743 6.76667 14.9327C6.66667 14.891 6.575 14.8327 6.49167 14.7577C6.34167 14.5993 6.25 14.3827 6.25 14.166C6.25 14.0577 6.275 13.9493 6.31667 13.8493C6.35833 13.741 6.41667 13.6493 6.49167 13.5743C6.8 13.266 7.36667 13.266 7.675 13.5743C7.825 13.7327 7.91667 13.9493 7.91667 14.166C7.91667 14.3827 7.825 14.5993 7.675 14.7577C7.51667 14.9077 7.3 14.9993 7.08333 14.9993Z"/><path id="Vector_7" d="M10.0001 14.9993C9.78341 14.9993 9.56675 14.9077 9.40841 14.7577C9.25841 14.5993 9.16675 14.3827 9.16675 14.166C9.16675 14.0577 9.19175 13.9493 9.23341 13.8493C9.27508 13.741 9.33341 13.6493 9.40841 13.5743C9.71675 13.266 10.2834 13.266 10.5917 13.5743C10.6667 13.6493 10.7251 13.741 10.7667 13.8493C10.8084 13.9493 10.8334 14.0577 10.8334 14.166C10.8334 14.3827 10.7417 14.5993 10.5917 14.7577C10.4334 14.9077 10.2167 14.9993 10.0001 14.9993Z"/><path id="Vector_8" d="M12.9166 15.0008C12.6999 15.0008 12.4833 14.9091 12.3249 14.7591C12.2499 14.6841 12.1916 14.5924 12.1499 14.4841C12.1083 14.3841 12.0833 14.2758 12.0833 14.1674C12.0833 14.0591 12.1083 13.9508 12.1499 13.8508C12.1916 13.7424 12.2499 13.6508 12.3249 13.5758C12.5166 13.3841 12.8083 13.2924 13.0749 13.3508C13.1333 13.3591 13.1833 13.3758 13.2333 13.4008C13.2833 13.4174 13.3333 13.4424 13.3833 13.4758C13.4249 13.5008 13.4666 13.5424 13.5083 13.5758C13.6583 13.7341 13.7499 13.9508 13.7499 14.1674C13.7499 14.3841 13.6583 14.6008 13.5083 14.7591C13.3499 14.9091 13.1333 15.0008 12.9166 15.0008Z"/><path id="Vector_9" d="M17.0834 8.19989H2.91675C2.57508 8.19989 2.29175 7.91656 2.29175 7.57489C2.29175 7.23322 2.57508 6.94989 2.91675 6.94989H17.0834C17.4251 6.94989 17.7084 7.23322 17.7084 7.57489C17.7084 7.91656 17.4251 8.19989 17.0834 8.19989Z"/><path id="Vector_10" d="M13.3333 18.9583H6.66667C3.625 18.9583 1.875 17.2083 1.875 14.1667V7.08332C1.875 4.04166 3.625 2.29166 6.66667 2.29166H13.3333C16.375 2.29166 18.125 4.04166 18.125 7.08332V14.1667C18.125 17.2083 16.375 18.9583 13.3333 18.9583ZM6.66667 3.54166C4.28333 3.54166 3.125 4.69999 3.125 7.08332V14.1667C3.125 16.55 4.28333 17.7083 6.66667 17.7083H13.3333C15.7167 17.7083 16.875 16.55 16.875 14.1667V7.08332C16.875 4.69999 15.7167 3.54166 13.3333 3.54166H6.66667Z"/></g></svg>