<svg width="16" height="17" viewBox="0 0 16 17" fill="none" xmlns="http://www.w3.org/2000/svg"><g id="Frame"><path id="Vector" opacity=".6" d="M8.57639 4.73059C8.51222 4.65948 8.42631 4.60134 8.32605 4.56116C8.2258 4.52099 8.11423 4.5 8.00095 4.5C7.88767 4.5 7.7761 4.52099 7.67584 4.56116C7.57559 4.60134 7.48968 4.65948 7.4255 4.73059L1.12501 11.6633C1.05208 11.7433 1.00932 11.8369 1.00136 11.9341C0.993398 12.0313 1.02055 12.1282 1.07987 12.2145C1.13918 12.3007 1.22839 12.373 1.3378 12.4233C1.44721 12.4736 1.57264 12.5002 1.70046 12.5H14.3014C14.429 12.4996 14.5539 12.4727 14.6629 12.4223C14.7719 12.3718 14.8607 12.2997 14.9199 12.2136C14.9791 12.1276 15.0063 12.0309 14.9988 11.9339C14.9912 11.837 14.949 11.7434 14.8769 11.6633L8.57639 4.73059Z" fill="#000"/></g></svg>