<svg width="20" height="20" viewBox="0 0 20 20" fill="none" xmlns="http://www.w3.org/2000/svg"><g id="Instagram" clip-path="url(#clip0_892_901)" fill="#A55A1F"><path id="Rectangle 112 (Stroke)" fill-rule="evenodd" clip-rule="evenodd" d="M5.9968 18.669C6.97629 18.749 8.22921 18.75 10 18.75C11.7708 18.75 13.0237 18.749 14.0032 18.669C14.9681 18.5902 15.5571 18.4409 16.02 18.205C16.9608 17.7257 17.7257 16.9608 18.205 16.02C18.4409 15.5571 18.5902 14.9681 18.669 14.0032C18.749 13.0237 18.75 11.7708 18.75 10C18.75 8.22921 18.749 6.97629 18.669 5.9968C18.5902 5.0319 18.4409 4.44294 18.205 3.98005C17.7257 3.03924 16.9608 2.27433 16.02 1.79497C15.5571 1.55911 14.9681 1.40984 14.0032 1.331C13.0237 1.25097 11.7708 1.25 10 1.25C8.22921 1.25 6.97629 1.25097 5.9968 1.331C5.0319 1.40984 4.44294 1.55911 3.98005 1.79497C3.03924 2.27433 2.27433 3.03924 1.79497 3.98005C1.55911 4.44294 1.40984 5.0319 1.331 5.9968C1.25097 6.97629 1.25 8.22921 1.25 10C1.25 11.7708 1.25097 13.0237 1.331 14.0032C1.40984 14.9681 1.55911 15.5571 1.79497 16.02C2.27433 16.9608 3.03924 17.7257 3.98005 18.205C4.44294 18.4409 5.0319 18.5902 5.9968 18.669ZM0.681209 3.41256C0 4.74951 0 6.49967 0 10C0 13.5003 0 15.2505 0.681209 16.5874C1.28042 17.7635 2.23655 18.7196 3.41256 19.3188C4.74951 20 6.49967 20 10 20C13.5003 20 15.2505 20 16.5874 19.3188C17.7635 18.7196 18.7196 17.7635 19.3188 16.5874C20 15.2505 20 13.5003 20 10C20 6.49967 20 4.74951 19.3188 3.41256C18.7196 2.23655 17.7635 1.28042 16.5874 0.681209C15.2505 0 13.5003 0 10 0C6.49967 0 4.74951 0 3.41256 0.681209C2.23655 1.28042 1.28042 2.23655 0.681209 3.41256Z"/><path id="Rectangle 113 (Stroke)" fill-rule="evenodd" clip-rule="evenodd" d="M6.25 10C6.25 12.0711 7.92893 13.75 10 13.75C12.0711 13.75 13.75 12.0711 13.75 10C13.75 7.92893 12.0711 6.25 10 6.25C7.92893 6.25 6.25 7.92893 6.25 10ZM10 5C7.23858 5 5 7.23858 5 10C5 12.7614 7.23858 15 10 15C12.7614 15 15 12.7614 15 10C15 7.23858 12.7614 5 10 5Z"/><path id="Rectangle 114" d="M16.3242 4.67566C16.3242 4.15789 15.9045 3.73816 15.3867 3.73816C14.869 3.73816 14.4492 4.15789 14.4492 4.67566C14.4492 5.19343 14.869 5.61316 15.3867 5.61316C15.9045 5.61316 16.3242 5.19343 16.3242 4.67566Z"/></g><defs><clipPath id="clip0_892_901"><path fill="#fff" d="M0 0H20V20H0z"/></clipPath></defs></svg>