<svg width="18" height="18" viewBox="0 0 18 18" fill="none" xmlns="http://www.w3.org/2000/svg"><g id="location/map" clip-path="url(#clip0_902_862)" stroke="#fff" stroke-width="1.25"><path id="Vector" d="M16.5 6.75001V11.25C16.5 13.125 16.125 14.4375 15.285 15.285L10.5 10.5L16.2975 4.70251C16.4325 5.29501 16.5 5.97001 16.5 6.75001Z" stroke-linecap="round" stroke-linejoin="round"/><path id="Vector_2" d="M16.2975 4.7025L4.70249 16.2975C2.44499 15.78 1.5 14.22 1.5 11.25V6.75C1.5 3 3 1.5 6.75 1.5H11.25C14.22 1.5 15.78 2.445 16.2975 4.7025Z" stroke-linecap="round" stroke-linejoin="round"/><path id="Vector_3" d="M15.2856 15.285C14.4381 16.125 13.1256 16.5 11.2506 16.5H6.75063C5.97063 16.5 5.29563 16.4325 4.70312 16.2975L10.5006 10.5L15.2856 15.285Z" stroke-linecap="round" stroke-linejoin="round"/><path id="Vector_4" d="M4.68093 5.98504C5.19093 3.78754 8.49092 3.78754 9.00092 5.98504C9.29342 7.27504 8.48341 8.37006 7.77091 9.04506C7.25342 9.54006 6.43594 9.54006 5.91094 9.04506C5.19844 8.37006 4.38093 7.27504 4.68093 5.98504Z"/><path id="Vector_5" d="M6.82031 6.5249H6.82705" stroke-linecap="round" stroke-linejoin="round"/></g><defs><clipPath id="clip0_902_862"><path fill="#fff" d="M0 0H18V18H0z"/></clipPath></defs></svg>