<svg width="18" height="19" viewBox="0 0 18 19" fill="none" xmlns="http://www.w3.org/2000/svg"><g id="notifications/notification" stroke-width="1.5" stroke-miterlimit="10"><path id="Vector" d="M9.01497 2.68243C6.53244 2.68243 4.51494 4.69993 4.51494 7.18243V9.34993C4.51494 9.80743 4.31994 10.5049 4.08744 10.8949L3.22494 12.3274C2.69244 13.2124 3.05994 14.1949 4.03494 14.5249C7.26744 15.6049 10.755 15.6049 13.9875 14.5249C14.895 14.2249 15.2925 13.1524 14.7975 12.3274L13.935 10.8949C13.71 10.5049 13.515 9.80743 13.515 9.34993V7.18243C13.515 4.70743 11.49 2.68243 9.01497 2.68243Z" stroke-linecap="round"/><path id="Vector_2" d="M10.4029 2.89996C10.1704 2.83246 9.93043 2.77996 9.68293 2.74996C8.96293 2.65996 8.27293 2.71246 7.62793 2.89996C7.84543 2.34496 8.38543 1.95496 9.01543 1.95496C9.64543 1.95496 10.1854 2.34496 10.4029 2.89996Z" stroke-linecap="round" stroke-linejoin="round"/><path id="Vector_3" d="M11.2646 14.7951C11.2646 16.0326 10.2521 17.0451 9.01463 17.0451C8.39963 17.0451 7.82963 16.7901 7.42465 16.3851C7.01965 15.9801 6.76465 15.4101 6.76465 14.7951"/></g></svg>