<svg width="18" height="18" viewBox="0 0 18 18" xmlns="http://www.w3.org/2000/svg"><g id="users/profile-circle" clip-path="url(#clip0_684_378)"><path id="Vector" d="M9.09037 10.1479C9.07537 10.1479 9.05287 10.1479 9.03787 10.1479C9.01537 10.1479 8.98537 10.1479 8.96287 10.1479C7.26035 10.0954 5.98535 8.76787 5.98535 7.13285C5.98535 5.46785 7.34285 4.11035 9.00787 4.11035C10.6729 4.11035 12.0304 5.46785 12.0304 7.13285C12.0229 8.77537 10.7404 10.0954 9.11287 10.1479C9.09787 10.1479 9.09787 10.1479 9.09037 10.1479ZM9.00037 5.22785C7.95037 5.22785 7.10285 6.08285 7.10285 7.12535C7.10285 8.15287 7.90537 8.98537 8.92537 9.02287C8.94787 9.01537 9.02287 9.01537 9.09787 9.02287C10.1029 8.97037 10.8904 8.14537 10.8979 7.12535C10.8979 6.08285 10.0504 5.22785 9.00037 5.22785Z"/><path id="Vector_2" d="M9.0006 17.0627C6.98311 17.0627 5.05561 16.3127 3.56311 14.9477C3.42811 14.8277 3.36811 14.6477 3.38311 14.4752C3.48061 13.5827 4.03561 12.7502 4.95811 12.1352C7.19311 10.6502 10.8156 10.6502 13.0431 12.1352C13.9656 12.7577 14.5206 13.5827 14.6181 14.4752C14.6406 14.6552 14.5731 14.8277 14.4381 14.9477C12.9456 16.3127 11.0181 17.0627 9.0006 17.0627ZM4.56061 14.3252C5.80561 15.3677 7.37311 15.9377 9.0006 15.9377C10.6281 15.9377 12.1956 15.3677 13.4406 14.3252C13.3056 13.8677 12.9456 13.4252 12.4131 13.0652C10.5681 11.8352 7.44061 11.8352 5.58061 13.0652C5.04811 13.4252 4.69561 13.8677 4.56061 14.3252Z"/><path id="Vector_3" d="M9 17.0625C4.5525 17.0625 0.9375 13.4475 0.9375 9C0.9375 4.5525 4.5525 0.9375 9 0.9375C13.4475 0.9375 17.0625 4.5525 17.0625 9C17.0625 13.4475 13.4475 17.0625 9 17.0625ZM9 2.0625C5.175 2.0625 2.0625 5.175 2.0625 9C2.0625 12.825 5.175 15.9375 9 15.9375C12.825 15.9375 15.9375 12.825 15.9375 9C15.9375 5.175 12.825 2.0625 9 2.0625Z"/></g><defs><clipPath id="clip0_684_378"><path fill="#fff" d="M0 0H18V18H0z"/></clipPath></defs></svg>