<svg width="29" height="28" viewBox="0 0 29 28" fill="none" xmlns="http://www.w3.org/2000/svg"><g id="search 1"><g id="Page 1"><g id="Icon Set"><path id="search" d="M22.0212 20.5539L22.0211 20.5537L17.96 16.5561C19.0185 15.3727 19.6669 13.8271 19.6669 12.125C19.6669 8.40828 16.6077 5.4 12.8369 5.4C9.0662 5.4 6.00693 8.40829 6.00693 12.125C6.00693 15.8368 9.06625 18.845 12.8369 18.845C14.4343 18.845 15.9023 18.3038 17.0656 17.3981L21.1487 21.4161C21.3899 21.6544 21.7797 21.6547 22.0208 21.4165C22.2641 21.1816 22.2627 20.7923 22.0212 20.5539ZM12.8369 17.625C9.74555 17.625 7.24244 15.1632 7.24244 12.125C7.24244 9.08671 9.74566 6.62002 12.8369 6.62002C15.9282 6.62002 18.4319 9.08672 18.4319 12.125C18.4319 15.1632 15.9283 17.625 12.8369 17.625Z" fill="#fff" stroke="#fff" stroke-width=".2"/></g></g></g></svg>