<svg width="14" height="14" viewBox="0 0 14 14" fill="none" xmlns="http://www.w3.org/2000/svg"><path id="Star 1" d="M6.21383 0.990078C6.54734 0.357948 7.45266 0.357949 7.78618 0.990079L9.24123 3.74792C9.36985 3.9917 9.60427 4.16202 9.87586 4.20901L12.9484 4.74063C13.6526 4.86248 13.9324 5.72349 13.4342 6.23602L11.261 8.47208C11.0689 8.66973 10.9794 8.94532 11.0186 9.21813L11.4625 12.3045C11.5642 13.012 10.8318 13.5441 10.1904 13.2287L7.39222 11.8529C7.14488 11.7312 6.85512 11.7312 6.60778 11.8529L3.80959 13.2287C3.16822 13.5441 2.4358 13.012 2.53754 12.3045L2.98139 9.21813C3.02062 8.94532 2.93108 8.66973 2.73898 8.47208L0.565754 6.23602C0.0676249 5.72349 0.347385 4.86248 1.05164 4.74063L4.12414 4.20901C4.39573 4.16202 4.63015 3.9917 4.75877 3.74792L6.21383 0.990078Z" fill="#F3BC30"/></svg>