<svg width="20" height="20" viewBox="0 0 20 20" fill="none" xmlns="http://www.w3.org/2000/svg"><g id="Phone call" clip-path="url(#clip0_892_609)"><path id="Vector" d="M14.8118 11.2475C14.061 11.9992 12.8884 13.1731 11.9065 14.1618C10.7394 13.3978 9.68437 12.5548 8.83598 11.7064C7.78831 10.6587 6.47819 9.16701 5.77019 8.11034C6.66908 7.21786 7.84462 6.04385 8.7072 5.18203L3.52516 0L0.939565 2.53906L0.935751 2.54287C0.21218 3.26645 -0.0942164 4.25415 0.0251072 5.47851C0.406729 9.39361 5.19432 15.0645 9.4265 17.9048C11.8767 19.5492 15.3986 21.0714 17.4818 18.9882C18.9942 17.4759 19.5724 16.8597 19.5963 16.8342L19.9842 16.4201L14.8118 11.2475ZM16.6526 18.159C15.0756 19.7358 11.9482 18.1848 10.0799 16.931C6.15257 14.2952 1.53664 8.89693 1.19225 5.36468C1.10863 4.50744 1.30074 3.83758 1.76308 3.37402L3.51769 1.651L7.04811 5.18157C5.25765 6.96929 4.71825 7.50213 4.28932 7.92678L4.51683 8.31893C5.20775 9.50912 6.81023 11.3391 8.00682 12.5357C9.31938 13.8483 10.6667 14.7749 12.0756 15.6567L12.4056 15.3236C13.1298 14.5929 14.1822 13.5377 14.8122 12.9066L18.3475 16.4419C18.0201 16.7799 17.4731 17.3384 16.6526 18.159Z" fill="#A55A1F"/></g><defs><clipPath id="clip0_892_609"><path fill="#fff" d="M0 0H20V20H0z"/></clipPath></defs></svg>