<svg width="20" height="18" viewBox="0 0 20 18" fill="none" xmlns="http://www.w3.org/2000/svg"><g id="Group"><g id="Group_2"><path id="Vector" d="M19.6084 0.63867C19.2866 0.343866 18.8293 0.245623 18.4148 0.382225L0.829345 6.17914C0.350087 6.33711 0.025087 6.76492 0.00137607 7.26894C-0.0222958 7.77301 0.261103 8.22945 0.723368 8.43176L5.07239 10.3346C5.0936 10.433 6.34208 16.2235 6.38454 16.4203C6.43903 16.6731 6.56735 16.8983 6.83919 16.9676C7.11415 17.0376 7.30841 16.8873 7.51356 16.7338C7.62774 16.6483 10.7409 14.3171 10.7409 14.3171L14.5139 17.4046C14.7337 17.5845 15.0023 17.6784 15.2761 17.6784C15.4065 17.6783 15.5382 17.6571 15.6662 17.6136C16.0633 17.479 16.3577 17.1549 16.4537 16.7467L19.968 1.80523C20.0679 1.38043 19.9301 0.933475 19.6084 0.63867ZM7.7947 11.4249C7.79255 11.43 7.79044 11.4357 7.78845 11.4426L7.06095 13.9843L6.24907 10.2189L11.8318 7.11715L7.9286 11.1983C7.86712 11.2626 7.82189 11.3404 7.7947 11.4249ZM8.0256 14.8829L8.35603 13.7284L8.67208 12.6242L9.80454 13.5509L8.0256 14.8829ZM18.8245 1.53625L15.3103 16.4777C15.3085 16.4852 15.3062 16.4954 15.289 16.5012C15.272 16.507 15.2637 16.5004 15.2578 16.4955L11.1293 13.1171C11.1291 13.117 11.1291 13.1169 11.129 13.1168L9.2161 11.5515L15.3615 5.12582C15.5622 4.91594 15.5794 4.5909 15.402 4.36101C15.2244 4.13109 14.9056 4.06543 14.6518 4.20652L5.55216 9.26234L1.19423 7.35558C1.18095 7.3498 1.17364 7.34656 1.1747 7.3241C1.17575 7.30172 1.18333 7.29918 1.19708 7.29465L18.7825 1.49777C18.7911 1.495 18.8007 1.4918 18.8148 1.50469C18.829 1.51765 18.8266 1.5275 18.8245 1.53625Z" fill="#A55A1F"/></g></g></svg>