<svg width="21" height="20" viewBox="0 0 21 20" fill="none" xmlns="http://www.w3.org/2000/svg"><g id="users/user-add" stroke-width="1.5" stroke-linecap="round" stroke-linejoin="round"><path id="Vector" d="M10.4997 10C12.8008 10 14.6663 8.13454 14.6663 5.83335C14.6663 3.53217 12.8008 1.66669 10.4997 1.66669C8.19849 1.66669 6.33301 3.53217 6.33301 5.83335C6.33301 8.13454 8.19849 10 10.4997 10Z"/><path id="Vector_2" d="M3.3418 18.3333C3.3418 15.1083 6.55013 12.5 10.5001 12.5C11.3001 12.5 12.0751 12.6083 12.8001 12.8083"/><path id="Vector_3" d="M18.8337 15C18.8337 15.2667 18.8003 15.525 18.7337 15.775C18.6587 16.1084 18.5253 16.4334 18.3503 16.7167C17.7753 17.6834 16.717 18.3334 15.5003 18.3334C14.642 18.3334 13.867 18.0084 13.2837 17.475C13.0337 17.2584 12.817 17 12.6503 16.7167C12.342 16.2167 12.167 15.625 12.167 15C12.167 14.1 12.5253 13.275 13.1087 12.675C13.717 12.05 14.567 11.6667 15.5003 11.6667C16.4837 11.6667 17.3753 12.0917 17.9753 12.775C18.5087 13.3667 18.8337 14.15 18.8337 15Z" stroke-miterlimit="10"/><path id="Vector_4" d="M16.7411 14.9833H14.2578" stroke-miterlimit="10"/><path id="Vector_5" d="M15.5 13.7667V16.2583" stroke-miterlimit="10"/></g></svg>