<svg width="20" height="20" viewBox="0 0 20 20" fill="none" xmlns="http://www.w3.org/2000/svg"><g id="Globalization" clip-path="url(#clip0_616_7419)"><path id="Vector" d="M17.0711 2.92891C15.1823 1.0402 12.6711 0 10 0C7.32891 0 4.8177 1.0402 2.92891 2.92891C1.0402 4.8177 0 7.32891 0 10C0 12.6711 1.0402 15.1823 2.92891 17.0711C4.8177 18.9598 7.32891 20 10 20C12.6711 20 15.1823 18.9598 17.0711 17.0711C18.9598 15.1823 20 12.6711 20 10C20 7.32891 18.9598 4.8177 17.0711 2.92891ZM10.5859 6.45637C11.6622 6.42418 12.7071 6.30348 13.6864 6.10297C13.9302 7.13039 14.0751 8.25004 14.1116 9.41406H10.5859V6.45637ZM10.5859 5.28387V1.27047C11.3956 1.54066 12.1809 2.35844 12.8043 3.60531C13.0157 4.0282 13.2035 4.48664 13.3663 4.9741C12.4898 5.14785 11.5534 5.25344 10.5859 5.28387ZM9.41406 1.27047V5.28387C8.44664 5.25344 7.51023 5.14781 6.63371 4.97406C6.79652 4.4866 6.98426 4.02816 7.1957 3.60527C7.81914 2.35844 8.60441 1.54066 9.41406 1.27047ZM9.41406 6.45637V9.41406H5.8884C5.92492 8.25004 6.06981 7.13039 6.31359 6.10297C7.29285 6.30348 8.33781 6.42418 9.41406 6.45637ZM4.71605 9.41406H1.19148C1.29867 7.7677 1.85648 6.20883 2.80566 4.88086C3.50492 5.25949 4.30473 5.57668 5.17602 5.82539C4.91008 6.94375 4.75336 8.1575 4.71605 9.41406ZM4.71605 10.5859C4.75336 11.8425 4.91008 13.0562 5.17598 14.1746C4.30469 14.4233 3.50488 14.7405 2.80562 15.1191C1.85648 13.7912 1.29867 12.2323 1.19148 10.5859H4.71605ZM5.8884 10.5859H9.41406V13.5436C8.33781 13.5758 7.29285 13.6965 6.31359 13.897C6.06981 12.8696 5.92488 11.75 5.8884 10.5859ZM9.41406 14.7161V18.7295C8.60441 18.4593 7.81914 17.6416 7.1957 16.3947C6.98426 15.9718 6.79652 15.5134 6.63371 15.0259C7.51023 14.8521 8.44664 14.7466 9.41406 14.7161ZM10.5859 18.7295V14.7161C11.5534 14.7466 12.4898 14.8522 13.3663 15.0259C13.2035 15.5134 13.0157 15.9718 12.8043 16.3947C12.1809 17.6416 11.3956 18.4593 10.5859 18.7295ZM10.5859 13.5436V10.5859H14.1116C14.0751 11.75 13.9302 12.8696 13.6864 13.897C12.7071 13.6965 11.6622 13.5758 10.5859 13.5436ZM15.2839 10.5859H18.8085C18.7013 12.2323 18.1435 13.7912 17.1943 15.1191C16.4951 14.7405 15.6953 14.4233 14.824 14.1746C15.0899 13.0562 15.2466 11.8425 15.2839 10.5859ZM15.2839 9.41406C15.2466 8.1575 15.0899 6.94375 14.824 5.82539C15.6953 5.57668 16.4951 5.25949 17.1944 4.88086C18.1436 6.20883 18.7014 7.7677 18.8086 9.41406H15.2839ZM16.4348 3.95668C15.8591 4.24941 15.2109 4.49848 14.5084 4.69938C14.321 4.12273 14.1019 3.5802 13.8524 3.08121C13.5873 2.55094 13.2953 2.08496 12.9816 1.6857C14.1938 2.11949 15.305 2.82016 16.2424 3.75762C16.3079 3.82301 16.3717 3.88957 16.4348 3.95668ZM7.0184 1.6857C6.70469 2.08496 6.41266 2.55098 6.14754 3.08121C5.89805 3.5802 5.67898 4.12273 5.49152 4.69938C4.78906 4.49848 4.1409 4.24941 3.56516 3.95668C3.62828 3.88957 3.69211 3.82301 3.75754 3.75762C4.695 2.82012 5.80617 2.11949 7.0184 1.6857ZM3.5652 16.0433C4.1409 15.7506 4.7891 15.5015 5.49156 15.3006C5.67902 15.8773 5.89809 16.4198 6.14758 16.9188C6.4127 17.4491 6.70473 17.915 7.01844 18.3143C5.80617 17.8805 4.69504 17.1798 3.75762 16.2424C3.69215 16.177 3.62828 16.1104 3.5652 16.0433ZM12.9816 18.3143C13.2953 17.915 13.5873 17.449 13.8525 16.9188C14.102 16.4198 14.321 15.8773 14.5085 15.3006C15.2109 15.5015 15.8591 15.7506 16.4348 16.0433C16.3717 16.1104 16.3079 16.177 16.2425 16.2424C15.305 17.1799 14.1938 17.8805 12.9816 18.3143Z" fill="#A55A1F"/></g><defs><clipPath id="clip0_616_7419"><path fill="#fff" d="M0 0H20V20H0z"/></clipPath></defs></svg>