<svg width="20" height="20" viewBox="0 0 20 20" fill="none" xmlns="http://www.w3.org/2000/svg"><g id="Whatsapp" clip-path="url(#clip0_892_2373)" fill="#A55A1F"><path id="Vector" d="M17.063 2.93701C15.1691 1.04309 12.6607 0 10 0C4.49341 0 0 4.49402 0 10C0 11.6293 0.400085 13.2378 1.15921 14.6677L0.0172424 19.2731C-0.0321961 19.4723 0.0263977 19.6831 0.171661 19.8283C0.316009 19.9728 0.526428 20.0325 0.726929 19.9828L5.33234 18.8406C6.76224 19.5998 8.37067 20 10 20C12.6607 20 15.1691 18.9569 17.063 17.063C18.9569 15.1689 20 12.6607 20 10C20 7.33932 18.9569 4.83093 17.063 2.93701ZM10 18.8281C8.49243 18.8281 7.00561 18.4401 5.69992 17.7063C5.56992 17.6332 5.41687 17.6125 5.27176 17.6483L1.3887 18.6113L2.35153 14.7281C2.38754 14.5833 2.36679 14.4301 2.2937 14.2999C1.55975 12.9944 1.17187 11.5076 1.17187 10C1.17187 5.13214 5.13214 1.17187 10 1.17187C14.8679 1.17187 18.8281 5.13214 18.8281 10C18.8281 14.8679 14.8679 18.8281 10 18.8281Z"/><path id="Vector_2" d="M15.2877 11.7791C14.8993 11.3906 14.4718 10.9985 13.9778 10.7603C13.2398 10.4046 12.5356 10.5065 11.9948 11.0473C11.7487 11.2934 11.4101 11.7787 11.2152 12.0173C10.7126 11.9332 9.70843 11.0865 9.30972 10.6892C8.91253 10.2905 8.06643 9.28614 7.98236 8.78458C8.21963 8.59079 8.70654 8.25083 8.95251 8.00501C9.49328 7.46424 9.59521 6.75989 9.23953 6.02198C9.00134 5.5279 8.60919 5.1005 8.221 4.71231C7.43029 3.90497 6.21066 3.84546 5.15795 4.89832C4.37121 5.68491 3.67037 7.14319 4.7983 9.62351C5.46572 11.0908 6.54132 12.3886 7.07156 12.9241L7.07568 12.9283C7.61126 13.4587 8.90902 14.5342 10.3763 15.2015C12.0334 15.9551 13.8095 16.134 15.1016 14.842C16.1702 13.7733 16.0802 12.5552 15.2877 11.7791ZM14.2729 14.0133C13.5099 14.7764 12.3621 14.8173 10.8614 14.1348C9.54394 13.5356 8.35101 12.5414 7.90225 12.0976C7.45837 11.6487 6.46426 10.4559 5.86505 9.13843C5.18252 7.63773 5.22341 6.48996 5.98651 5.72687C6.43191 5.28147 6.94461 5.08387 7.38375 5.53232L7.39215 5.54087C8.43234 6.58106 8.35848 6.94162 8.1238 7.1763C7.91552 7.38459 7.29983 7.80268 7.10086 8.00165C6.63378 8.46857 6.72076 9.19184 7.35919 10.1512C7.7402 10.7238 8.24343 11.2795 8.48086 11.5176L8.48208 11.519C8.72027 11.7564 9.27584 12.2596 9.84851 12.6406C10.808 13.2791 11.5311 13.3659 11.998 12.899C12.1971 12.6998 12.6151 12.0843 12.8234 11.876C12.982 11.7173 13.1385 11.6567 13.4688 11.816C13.8518 12.0007 14.2618 12.4107 14.4589 12.6077L14.4675 12.6161C14.9195 13.0587 14.7185 13.5678 14.2729 14.0133Z"/></g><defs><clipPath id="clip0_892_2373"><path fill="#fff" d="M0 0H20V20H0z"/></clipPath></defs></svg>