<svg width="20" height="20" viewBox="0 0 20 20" xmlns="http://www.w3.org/2000/svg"><g id="youtube"><path id="Vector" d="M10.0604 3.3H10.1661C11.1422 3.30357 16.0881 3.33919 17.4217 3.69781C17.8248 3.80726 18.1922 4.0206 18.487 4.3165C18.7819 4.6124 18.9939 4.98051 19.1019 5.38404C19.2219 5.83528 19.3062 6.43259 19.3632 7.04889L19.3751 7.17239L19.4012 7.48114L19.4107 7.60463C19.4879 8.69 19.4974 9.70648 19.4986 9.92854V10.0176C19.4974 10.248 19.4867 11.3333 19.4012 12.4638L19.3917 12.5885L19.381 12.712C19.3216 13.3912 19.2338 14.0657 19.1019 14.5621C18.9942 14.9658 18.7823 15.3341 18.4874 15.63C18.1925 15.926 17.825 16.1392 17.4217 16.2483C16.0442 16.6188 10.8086 16.645 10.083 16.6461H9.91438C9.54744 16.6461 8.02984 16.639 6.43861 16.5844L6.23674 16.5773L6.13343 16.5725L5.93037 16.5642L5.72731 16.5559C4.4092 16.4977 3.15403 16.4039 2.57572 16.2471C2.17256 16.1381 1.80512 15.9251 1.51022 15.6293C1.21532 15.3336 1.00331 14.9656 0.895432 14.5621C0.763622 14.0669 0.675748 13.3912 0.616373 12.712L0.606874 12.5873L0.597374 12.4638C0.538769 11.6592 0.506294 10.8528 0.5 10.0461L0.5 9.90004C0.502375 9.64473 0.511875 8.76243 0.575999 7.78869L0.584311 7.66638L0.587874 7.60463L0.597374 7.48114L0.623498 7.17239L0.635373 7.04889C0.692372 6.43259 0.776684 5.8341 0.89662 5.38404C1.00432 4.98035 1.21625 4.61207 1.51116 4.31611C1.80607 4.02016 2.1736 3.80693 2.57691 3.69781C3.15522 3.54344 4.41039 3.44844 5.72849 3.38906L5.93037 3.38075L6.13461 3.37363L6.23674 3.37006L6.4398 3.36175C7.56994 3.32539 8.70054 3.3052 9.83125 3.30119H10.0604V3.3ZM8.0999 7.11183V12.8331L13.0363 9.97367L8.0999 7.11183Z"/></g></svg>