<?xml version="1.0" encoding="UTF-8"?>
<svg id="Layer_2" data-name="Layer 2" xmlns="http://www.w3.org/2000/svg" viewBox="0 0 1082.76 654.96">
  <defs>
    <style>
      .cls-1 {
        fill: #070707;
        stroke-width: 0px;
      }
    </style>
  </defs>
  <g id="Layer_1-2" data-name="Layer 1">
    <g>
      <g>
        <path class="cls-1" d="m221.18,643.05v-35.32h20.75v3.62h-16.64v11.4h5.48c3.4,0,6.06.42,7.97,1.26,1.92.84,3.27,2,4.05,3.5.78,1.5,1.17,3.24,1.17,5.22,0,3.25-.97,5.79-2.91,7.6s-5.16,2.72-9.65,2.72h-10.22Zm4.11-3.53h5.68c3.19,0,5.45-.56,6.78-1.68s1.99-2.82,1.99-5.11c0-1.59-.32-2.86-.97-3.79-.64-.93-1.66-1.6-3.04-2-1.39-.4-3.21-.6-5.46-.6h-4.98v13.19Z"/>
        <path class="cls-1" d="m263.29,616.09c3.3,0,5.93,1.14,7.9,3.41s2.95,5.69,2.95,10.24c0,3.01-.45,5.54-1.35,7.58-.9,2.05-2.17,3.59-3.81,4.64-1.63,1.05-3.56,1.57-5.79,1.57-1.4,0-2.63-.19-3.7-.56s-1.97-.87-2.73-1.5c-.76-.63-1.39-1.31-1.88-2.05h-.29c.05.63.11,1.39.18,2.27.07.89.11,1.66.11,2.32v10.87h-4.03v-38.31h3.31l.53,3.91h.19c.52-.8,1.14-1.54,1.88-2.21.74-.67,1.65-1.2,2.72-1.59,1.07-.39,2.34-.59,3.81-.59Zm-.7,3.38c-1.84,0-3.31.35-4.43,1.06-1.12.71-1.94,1.77-2.45,3.18-.52,1.41-.79,3.18-.82,5.3v.77c0,2.24.25,4.13.74,5.68.49,1.55,1.3,2.72,2.44,3.53,1.14.81,2.66,1.21,4.58,1.21,1.64,0,3.01-.44,4.11-1.33,1.09-.88,1.91-2.12,2.45-3.71.54-1.59.81-3.41.81-5.47,0-3.12-.61-5.61-1.82-7.45-1.22-1.84-3.08-2.77-5.59-2.77Z"/>
        <path class="cls-1" d="m291.31,616.09c2.25,0,4.19.5,5.8,1.5,1.61,1,2.84,2.4,3.7,4.19s1.28,3.89,1.28,6.29v2.49h-18.29c.05,3.11.82,5.48,2.32,7.1,1.5,1.63,3.61,2.44,6.33,2.44,1.67,0,3.16-.15,4.44-.46s2.62-.76,4.01-1.35v3.53c-1.34.6-2.66,1.03-3.97,1.3-1.31.27-2.86.41-4.65.41-2.54,0-4.76-.52-6.66-1.56s-3.36-2.56-4.41-4.58c-1.05-2.01-1.57-4.48-1.57-7.39s.48-5.32,1.44-7.4c.96-2.09,2.31-3.69,4.06-4.82,1.75-1.13,3.8-1.69,6.17-1.69Zm-.05,3.29c-2.14,0-3.85.7-5.12,2.1-1.27,1.4-2.03,3.36-2.27,5.87h14.01c-.02-1.58-.26-2.97-.74-4.17-.48-1.2-1.2-2.13-2.16-2.8s-2.21-1-3.72-1Z"/>
        <path class="cls-1" d="m312.93,616.57v11.11h14.76v-11.11h4.01v26.48h-4.01v-11.96h-14.76v11.96h-4.03v-26.48h4.03Z"/>
        <path class="cls-1" d="m359.61,616.57v23.07h3.79v12.56h-3.89v-9.16h-18.75v9.16h-3.84v-12.56h2.08c1.51-2.09,2.77-4.39,3.77-6.88s1.76-5.12,2.27-7.86c.52-2.75.79-5.52.82-8.32h13.75Zm-3.89,3.19h-6.28c-.15,2.35-.49,4.74-1.03,7.17-.54,2.43-1.25,4.75-2.14,6.95s-1.92,4.12-3.09,5.76h12.54v-19.88Z"/>
        <path class="cls-1" d="m372.46,616.57v16.64c0,.32,0,.74-.02,1.24-.02.51-.04,1.05-.07,1.62-.03.57-.06,1.12-.08,1.64-.02.52-.05.96-.08,1.29l14.45-22.44h4.93v26.48h-3.74v-16.23c0-.51,0-1.17.02-1.98.02-.81.04-1.6.07-2.38.03-.78.06-1.39.07-1.82l-14.4,22.42h-4.95v-26.48h3.82Z"/>
        <path class="cls-1" d="m404.68,637.3l.31.56c-.29,1.18-.66,2.43-1.1,3.77-.44,1.34-.93,2.68-1.45,4.02-.52,1.34-1.05,2.61-1.58,3.78h-3c.34-1.29.67-2.65.99-4.07.32-1.42.62-2.83.88-4.23.27-1.39.48-2.67.64-3.83h4.3Z"/>
        <path class="cls-1" d="m427.03,643.05h-4.69l7.63-11.16c-1.11-.24-2.14-.66-3.09-1.24s-1.72-1.4-2.31-2.43c-.59-1.03-.88-2.31-.88-3.84,0-2.54.85-4.48,2.55-5.81,1.7-1.33,3.94-1.99,6.73-1.99h11.72v26.48h-4.01v-10.63h-6.72l-6.93,10.63Zm.56-18.65c0,1.58.56,2.75,1.69,3.51,1.13.76,2.74,1.15,4.83,1.15h6.57v-9.13h-7.27c-2.06,0-3.55.42-4.46,1.24-.91.83-1.37,1.91-1.37,3.23Z"/>
        <path class="cls-1" d="m468.58,616.57h4.42l-11.43,12.78,12.34,13.7h-4.71l-12.03-13.43v13.43h-4.03v-26.48h4.03v12.85l11.4-12.85Z"/>
        <path class="cls-1" d="m480.76,606.67c.66,0,1.23.21,1.7.64.47.43.71,1.09.71,1.99s-.24,1.55-.71,1.98c-.48.43-1.04.65-1.7.65-.69,0-1.27-.22-1.73-.65s-.69-1.09-.69-1.98.23-1.57.69-1.99,1.03-.64,1.73-.64Zm1.96,9.91v26.48h-4.01v-26.48h4.01Z"/>
        <path class="cls-1" d="m526.22,616.57v26.48h-4.03v-23.02h-14.11v23.02h-4.03v-26.48h22.18Z"/>
        <path class="cls-1" d="m538.54,616.57v16.64c0,.32,0,.74-.02,1.24-.02.51-.04,1.05-.07,1.62-.03.57-.06,1.12-.08,1.64-.02.52-.05.96-.08,1.29l14.45-22.44h4.93v26.48h-3.74v-16.23c0-.51,0-1.17.02-1.98.02-.81.04-1.6.07-2.38.03-.78.06-1.39.07-1.82l-14.4,22.42h-4.95v-26.48h3.82Z"/>
        <path class="cls-1" d="m601.69,616.57v26.48h-35.51v-26.48h4.01v23.07h11.72v-23.07h4.03v23.07h11.74v-23.07h4.01Z"/>
        <path class="cls-1" d="m606.01,616.57h4.3l5.85,15.36c.34.9.65,1.77.94,2.6.29.83.55,1.62.77,2.38.22.76.4,1.49.53,2.2h.17c.23-.81.55-1.86.97-3.18s.87-2.65,1.35-4.02l5.53-15.34h4.32l-11.52,30.37c-.61,1.63-1.33,3.04-2.14,4.25-.81,1.21-1.8,2.14-2.96,2.79-1.16.65-2.56.98-4.2.98-.76,0-1.43-.04-2-.13-.58-.09-1.08-.19-1.5-.3v-3.21c.35.08.79.15,1.29.22.51.06,1.04.1,1.58.1,1,0,1.86-.19,2.6-.57.73-.38,1.37-.93,1.9-1.65s.99-1.59,1.38-2.58l1.45-3.72-10.61-26.52Z"/>
        <path class="cls-1" d="m653.03,619.98h-8.72v23.07h-3.96v-23.07h-8.6v-3.41h21.28v3.41Z"/>
        <path class="cls-1" d="m662.3,627.49h8.12c2.25,0,4.13.28,5.63.85s2.62,1.4,3.37,2.51c.75,1.11,1.12,2.49,1.12,4.13s-.37,3.07-1.1,4.28c-.73,1.21-1.86,2.14-3.38,2.8-1.52.66-3.48.99-5.88.99h-11.91v-26.48h4.03v10.92Zm14.21,7.68c0-1.63-.58-2.76-1.73-3.39-1.15-.64-2.76-.95-4.82-.95h-7.66v8.96h7.68c1.93,0,3.5-.36,4.71-1.07,1.21-.72,1.81-1.9,1.81-3.54Z"/>
        <path class="cls-1" d="m702.36,606.67c.66,0,1.23.21,1.7.64.47.43.71,1.09.71,1.99s-.24,1.55-.71,1.98c-.48.43-1.04.65-1.7.65-.69,0-1.27-.22-1.73-.65s-.69-1.09-.69-1.98.23-1.57.69-1.99,1.03-.64,1.73-.64Zm1.96,9.91v26.48h-4.01v-26.48h4.01Z"/>
        <path class="cls-1" d="m723.4,643.53c-2.38,0-4.49-.49-6.31-1.47-1.82-.98-3.24-2.48-4.25-4.49-1.01-2.01-1.52-4.55-1.52-7.61s.54-5.83,1.61-7.86c1.07-2.04,2.55-3.55,4.43-4.53,1.88-.98,4.03-1.47,6.43-1.47,1.32,0,2.6.13,3.83.4,1.23.27,2.24.6,3.03,1l-1.21,3.36c-.81-.32-1.74-.61-2.79-.87s-2.04-.39-2.96-.39c-1.84,0-3.36.39-4.58,1.18s-2.13,1.95-2.73,3.48c-.6,1.53-.91,3.42-.91,5.65s.29,3.97.88,5.48c.59,1.51,1.46,2.67,2.63,3.47s2.63,1.2,4.38,1.2c1.4,0,2.67-.15,3.79-.45,1.13-.3,2.15-.65,3.07-1.05v3.58c-.89.45-1.87.8-2.96,1.04-1.09.24-2.38.36-3.88.36Z"/>
        <path class="cls-1" d="m754.54,619.98h-8.72v23.07h-3.96v-23.07h-8.6v-3.41h21.28v3.41Z"/>
        <path class="cls-1" d="m782.61,629.76c0,2.17-.28,4.12-.85,5.82s-1.38,3.15-2.44,4.32c-1.06,1.18-2.35,2.07-3.85,2.69-1.51.62-3.21.93-5.11.93-1.77,0-3.39-.31-4.87-.93-1.47-.62-2.75-1.52-3.82-2.69s-1.9-2.62-2.49-4.32-.88-3.65-.88-5.82c0-2.9.49-5.37,1.47-7.4.98-2.04,2.39-3.59,4.22-4.66,1.83-1.07,4.01-1.61,6.53-1.61s4.53.54,6.34,1.62c1.81,1.08,3.22,2.64,4.23,4.67,1.01,2.04,1.51,4.5,1.51,7.38Zm-20.15,0c0,2.13.28,3.97.85,5.53.56,1.56,1.43,2.77,2.61,3.62s2.69,1.28,4.54,1.28,3.35-.43,4.53-1.28,2.06-2.06,2.62-3.62c.56-1.56.85-3.41.85-5.53s-.28-3.93-.85-5.47c-.56-1.54-1.43-2.73-2.61-3.56-1.18-.84-2.7-1.26-4.57-1.26-2.75,0-4.77.91-6.05,2.73-1.28,1.82-1.92,4.34-1.92,7.56Z"/>
        <path class="cls-1" d="m801.98,616.09c3.3,0,5.93,1.14,7.9,3.41s2.95,5.69,2.95,10.24c0,3.01-.45,5.54-1.35,7.58-.9,2.05-2.17,3.59-3.8,4.64-1.63,1.05-3.56,1.57-5.79,1.57-1.4,0-2.63-.19-3.7-.56-1.06-.37-1.97-.87-2.73-1.5-.76-.63-1.39-1.31-1.88-2.05h-.29c.05.63.11,1.39.18,2.27s.11,1.66.11,2.32v10.87h-4.03v-38.31h3.31l.53,3.91h.19c.52-.8,1.14-1.54,1.88-2.21.74-.67,1.65-1.2,2.72-1.59,1.07-.39,2.34-.59,3.8-.59Zm-.7,3.38c-1.84,0-3.31.35-4.43,1.06s-1.94,1.77-2.45,3.18-.79,3.18-.82,5.3v.77c0,2.24.25,4.13.74,5.68.49,1.55,1.3,2.72,2.44,3.53,1.14.81,2.66,1.21,4.58,1.21,1.64,0,3.01-.44,4.11-1.33,1.1-.88,1.91-2.12,2.45-3.71.54-1.59.81-3.41.81-5.47,0-3.12-.61-5.61-1.82-7.45-1.22-1.84-3.08-2.77-5.59-2.77Z"/>
        <path class="cls-1" d="m821.86,606.67c.66,0,1.23.21,1.7.64.47.43.71,1.09.71,1.99s-.24,1.55-.71,1.98c-.48.43-1.04.65-1.7.65-.69,0-1.27-.22-1.73-.65s-.69-1.09-.69-1.98.23-1.57.69-1.99,1.03-.64,1.73-.64Zm1.96,9.91v26.48h-4.01v-26.48h4.01Z"/>
        <path class="cls-1" d="m866.34,629.76c0,2.88-.46,5.36-1.39,7.42-.93,2.06-2.25,3.64-3.97,4.72-1.72,1.09-3.79,1.63-6.18,1.63-2.24,0-4.19-.48-5.86-1.45-1.67-.97-2.98-2.38-3.94-4.23-.96-1.85-1.51-4.11-1.66-6.76h-7.03v11.96h-4.01v-26.48h4.01v11.11h7.08c.22-2.45.82-4.53,1.79-6.26.97-1.72,2.27-3.04,3.91-3.96s3.58-1.38,5.8-1.38,4.34.54,6.05,1.63c1.72,1.09,3.04,2.65,3.99,4.69s1.41,4.49,1.41,7.36Zm-18.89,0c0,2.22.25,4.11.76,5.67.51,1.55,1.3,2.74,2.39,3.55s2.5,1.22,4.24,1.22,3.13-.4,4.22-1.21c1.09-.8,1.88-1.98,2.39-3.54.51-1.55.76-3.45.76-5.69s-.26-4.07-.77-5.6c-.52-1.53-1.31-2.69-2.39-3.49-1.08-.8-2.48-1.2-4.2-1.2s-3.13.4-4.22,1.2c-1.09.8-1.89,1.96-2.4,3.49-.52,1.53-.77,3.4-.77,5.6Z"/>
      </g>
      <g>
        <path class="cls-1" d="m112.03,542c-1.62,0-3.25-.04-4.87-.13-1.62-.09-3.33-.17-5.13-.26l-1.28-23.33c-.26-4.87-.77-8.48-1.54-10.83-.77-2.35-1.73-3.87-2.88-4.55-1.15-.68-2.46-1.03-3.91-1.03h-1.28v37.31c0,.86-.19,1.46-.58,1.79-.38.34-1.6.56-3.65.64-2.05.09-5.51.13-10.38.13v-87.18c0-.85.21-1.45.64-1.79.43-.34,1.64-.55,3.65-.64,2.01-.08,5.45-.13,10.32-.13v36.15h1.92c1.28,0,2.56-.71,3.85-2.12,1.28-1.41,2.14-3.7,2.56-6.86l3.97-26.28c1.71-.43,3.38-.71,5-.83,1.62-.13,3.03-.19,4.23-.19,2.56,0,4.25.24,5.06.71.81.47,1.09,1.43.83,2.88l-5,26.03c-.6,3.08-1.54,5.6-2.82,7.56-1.28,1.97-2.65,3.42-4.1,4.36,2.99,1.71,5.3,4.57,6.92,8.59,1.62,4.02,2.61,8.85,2.95,14.49l1.54,22.56c.08,1.11-.26,1.88-1.03,2.31-.77.43-2.44.64-5,.64Z"/>
        <path class="cls-1" d="m129.97,542c-.94,0-2.27-.04-3.97-.13-1.71-.09-3.42-.21-5.13-.38l21.41-87.05c.34-1.79,2.26-2.69,5.77-2.69,1.2,0,2.41.04,3.65.13,1.24.09,2.29.21,3.14.38l21.41,87.18c.17.86-.13,1.5-.9,1.92-.77.43-2.61.64-5.51.64-.94,0-2.1-.02-3.46-.06-1.37-.04-2.99-.11-4.87-.19l-9.36-45.26c-.43-2.31-.86-4.81-1.28-7.5-.43-2.69-.81-5.49-1.15-8.4-.34-2.9-.64-5.68-.9-8.33-.26,2.65-.58,5.43-.96,8.33-.38,2.91-.77,5.71-1.15,8.4-.38,2.69-.83,5.19-1.35,7.5l-8.85,42.82c-.17.85-.58,1.52-1.22,1.99-.64.47-2.42.71-5.32.71Zm5.51-20.64v-12.95h28.98v12.95h-28.98Z"/>
        <path class="cls-1" d="m180.49,541.74v-87.18c0-1.28.26-2.03.77-2.24.51-.21,1.11-.32,1.79-.32h10.9l.77,24.36-4.1,2.69c.34,1.79.64,3.53.9,5.19.26,1.67.53,3.68.83,6.03.3,2.35.6,4.94.9,7.76.3,2.82.56,5.86.77,9.1.21,3.25.32,6.62.32,10.13l.38,21.92c0,.86-.26,1.46-.77,1.79-.51.34-1.77.56-3.78.64-2.01.09-5.24.13-9.68.13Zm22.82-21.41l-6.03-17.95c-.34-1.03-.79-2.58-1.35-4.68-.56-2.09-1.18-4.46-1.86-7.12-.69-2.65-1.37-5.32-2.05-8.01-.69-2.69-1.3-5.19-1.86-7.5-.56-2.31-1.18-4.87-1.86-7.69l5.64-15.38,10.13,31.54c.68,1.97,1.24,3.76,1.67,5.38.43,1.62.77,2.99,1.03,4.1.26,1.11.51,2.27.77,3.46.17-1.2.38-2.37.64-3.53.26-1.15.58-2.5.96-4.04.38-1.54.88-3.25,1.47-5.13l8.72-29.23,6.67,13.08c-.69,2.74-1.3,5.24-1.86,7.5-.56,2.27-1.18,4.74-1.86,7.44-.69,2.69-1.39,5.34-2.12,7.95-.73,2.61-1.37,4.96-1.92,7.05-.56,2.1-1.05,3.7-1.47,4.81l-6.15,17.05c-.17.6-.64.9-1.41.9h-5.9Zm15.9,21.41l.64-24.36c.08-3.5.23-6.86.45-10.06.21-3.21.47-6.24.77-9.1.3-2.86.58-5.47.83-7.82.26-2.35.51-4.36.77-6.03.26-1.67.55-3.44.9-5.32l-4.23-2.95v-21.54c.34-.94.66-1.6.96-1.99.3-.38.83-.58,1.6-.58h12.05v87.18c0,.86-.21,1.46-.64,1.79-.43.34-1.65.56-3.65.64-2.01.09-5.49.13-10.45.13Z"/>
        <path class="cls-1" d="m247.03,468.53c-1.28,0-2.39-.23-3.33-.71-.94-.47-1.62-1.47-2.05-3.01,1.03-1.71,1.73-3.05,2.12-4.04.38-.98.66-1.88.83-2.69.17-.81.34-1.77.51-2.88-1.37-.85-2.31-1.92-2.82-3.21s-.77-2.78-.77-4.49c0-2.31.77-4.27,2.31-5.9,1.54-1.62,3.5-2.44,5.9-2.44,2.99,0,5.26.81,6.8,2.44,1.54,1.62,2.31,3.93,2.31,6.92,0,2.65-.47,5.19-1.41,7.63-.94,2.44-2.1,4.57-3.46,6.41-1.37,1.84-2.69,3.29-3.97,4.36-1.28,1.07-2.27,1.6-2.95,1.6Z"/>
        <path class="cls-1" d="m265.1,541.74l4.23-27.95c.43-2.91,1.35-5.28,2.76-7.12,1.41-1.84,3.31-3.44,5.71-4.81-2.48-1.45-4.62-3.31-6.41-5.58-1.79-2.26-3.14-4.91-4.04-7.95-.9-3.03-1.35-6.35-1.35-9.94,0-7.01,1-12.42,3.01-16.22,2.01-3.8,4.89-6.45,8.65-7.95,3.76-1.49,8.25-2.24,13.46-2.24h12.05c1.28,0,2.14.86,2.56,2.56v87.18c-4.87,0-8.29-.04-10.26-.13-1.97-.08-3.14-.3-3.53-.64-.38-.34-.58-.94-.58-1.79v-33.59h-1.54c-1.37,0-2.52.69-3.46,2.05-.94,1.37-1.62,3.63-2.05,6.79l-3.33,24.49c-.17,1.2-.56,2.03-1.15,2.5-.6.47-2.39.71-5.38.71-1.11,0-2.54-.04-4.29-.13-1.75-.09-3.44-.17-5.06-.26Zm23.72-49.36c.43,0,.85-.04,1.28-.13.43-.08.85-.21,1.28-.38v-27.05c-.6-.17-1.18-.28-1.73-.32-.56-.04-1.13-.06-1.73-.06-1.2,0-2.22.45-3.08,1.35-.86.9-1.52,2.24-1.99,4.04-.47,1.79-.71,4.06-.71,6.8,0,3.59.23,6.54.71,8.85.47,2.31,1.2,4.04,2.18,5.19.98,1.15,2.24,1.73,3.78,1.73Z"/>
        <path class="cls-1" d="m312.41,541.74v-87.18c0-.85.17-1.45.51-1.79.34-.34,1.52-.55,3.53-.64,2.01-.08,5.45-.13,10.32-.13v87.18c0,.86-.17,1.46-.51,1.79-.34.34-1.52.56-3.53.64-2.01.09-5.45.13-10.32.13Zm6.79-41.03v-13.46h26.28l.13,13.46h-26.41Zm19.87,41.03v-87.18c0-.85.19-1.45.58-1.79.38-.34,1.56-.55,3.53-.64,1.97-.08,5.38-.13,10.26-.13v87.18c0,.86-.17,1.46-.51,1.79-.34.34-1.52.56-3.53.64-2.01.09-5.45.13-10.32.13Z"/>
        <path class="cls-1" d="m359.98,541.74v-87.18c.51-1.71,1.37-2.56,2.56-2.56h30.77c0,3.85-.04,6.67-.13,8.46-.09,1.79-.3,2.97-.64,3.53-.34.56-.94.83-1.79.83h-16.41v64.1h18.08c0,4.02-.04,6.92-.13,8.72-.09,1.79-.3,2.93-.64,3.4-.34.47-.94.71-1.79.71h-29.87Zm1.03-42.05v-13.08h28.85c0,5.38-.11,8.91-.32,10.58-.21,1.67-.92,2.5-2.12,2.5h-26.41Z"/>
        <path class="cls-1" d="m436.52,561.87c-.86-3.42-1.67-6.69-2.44-9.81-.77-3.12-1.28-6.56-1.54-10.32h-33.98v-87.18c0-.85.21-1.45.64-1.79.43-.34,1.64-.55,3.65-.64,2.01-.08,5.36-.13,10.06-.13v76.28h11.41v-73.72c0-.85.21-1.45.64-1.79.43-.34,1.64-.55,3.65-.64,2.01-.08,5.36-.13,10.06-.13v76.28h6.41v29.49c0,1.79-.54,2.93-1.6,3.4-1.07.47-3.4.71-6.99.71Z"/>
        <path class="cls-1" d="m451,541.74v-87.18c0-.85.17-1.45.51-1.79.34-.34,1.52-.55,3.53-.64,2.01-.08,5.45-.13,10.32-.13v35.26h3.72c7.69,0,13.12,1.88,16.28,5.64,3.16,3.76,4.74,9.66,4.74,17.69,0,10.26-2.07,18.01-6.22,23.27-4.15,5.26-9.38,7.88-15.71,7.88h-17.18Zm17.05-12.56c1.28,0,2.29-.47,3.01-1.41.73-.94,1.24-2.65,1.54-5.13.3-2.48.45-6.03.45-10.64s-.26-7.65-.77-9.1c-.51-1.45-1.84-2.18-3.97-2.18h-2.95v28.21c.26.09.49.15.71.19.21.04.49.06.83.06h1.15Z"/>
        <path class="cls-1" d="m496.52,511.74c0-4.27.11-7.39.32-9.36.21-1.96.96-2.95,2.24-2.95h23.59c0,4.19-.11,7.29-.32,9.29-.21,2.01-.96,3.01-2.24,3.01h-23.59Z"/>
        <path class="cls-1" d="m530.49,541.74v-87.18c0-.85.21-1.45.64-1.79.43-.34,1.64-.55,3.65-.64,2.01-.08,5.36-.13,10.06-.13h25.51v87.18c0,.86-.21,1.46-.64,1.79-.43.34-1.62.56-3.59.64-1.97.09-5.34.13-10.13.13v-76.28h-11.15v73.72c0,.86-.21,1.46-.64,1.79-.43.34-1.62.56-3.59.64-1.97.09-5.34.13-10.13.13Z"/>
        <path class="cls-1" d="m599.98,543.02c-4.19,0-7.76-.66-10.71-1.99-2.95-1.32-5.32-3.7-7.12-7.12-1.79-3.42-3.12-8.16-3.97-14.23-.86-6.07-1.28-13.85-1.28-23.33,0-11.62.9-20.75,2.69-27.37,1.79-6.62,4.51-11.32,8.14-14.1,3.63-2.78,8.18-4.17,13.65-4.17,4.19,0,7.74.71,10.64,2.12,2.91,1.41,5.26,3.8,7.05,7.18,1.79,3.38,3.1,7.97,3.91,13.78.81,5.81,1.22,13.16,1.22,22.05,0,12.05-.86,21.5-2.56,28.33-1.71,6.84-4.34,11.69-7.88,14.55-3.55,2.86-8.14,4.29-13.78,4.29Zm.77-14.87c2.14,0,3.74-1.07,4.81-3.21,1.07-2.14,1.82-5.56,2.24-10.26.43-4.7.64-10.81.64-18.33s-.15-13.42-.45-17.95c-.3-4.53-.96-7.8-1.99-9.81-1.03-2.01-2.65-3.01-4.87-3.01-2.05,0-3.63,1.09-4.74,3.27-1.11,2.18-1.9,5.75-2.37,10.71-.47,4.96-.71,11.62-.71,20,0,6.67.17,12.1.51,16.28.34,4.19,1.04,7.29,2.12,9.29,1.07,2.01,2.67,3.01,4.81,3.01Z"/>
        <path class="cls-1" d="m633.44,561.87c-3.59,0-5.92-.24-6.99-.71-1.07-.47-1.6-1.6-1.6-3.4v-29.49h2.44c1.2,0,2.26-.38,3.21-1.15.94-.77,1.75-2.46,2.44-5.06.68-2.61,1.32-6.58,1.92-11.92.6-5.34,1.2-12.52,1.79-21.54.6-9.02,1.28-20.36,2.05-34.04.08-.85.26-1.45.51-1.79.26-.34,1.03-.55,2.31-.64,1.28-.08,3.42-.13,6.41-.13h25.9v76.28h6.41v29.49c0,1.79-.54,2.93-1.6,3.4-1.07.47-3.4.71-6.99.71-.86-3.42-1.67-6.69-2.44-9.81-.77-3.12-1.28-6.56-1.54-10.32h-30.26c-.26,3.76-.75,7.2-1.47,10.32-.73,3.12-1.56,6.39-2.5,9.81Zm10.9-33.59h15.13v-62.82h-7.05c-.51,8.29-1.05,15.73-1.6,22.31-.56,6.58-1.13,12.42-1.73,17.5-.6,5.09-1.28,9.51-2.05,13.27-.77,3.76-1.67,7.01-2.69,9.74Z"/>
        <path class="cls-1" d="m685.37,541.74v-83.46c0-2.14.21-3.63.64-4.49.43-.85,1.67-1.37,3.72-1.54,2.05-.17,5.47-.26,10.26-.26v87.18c0,.86-.21,1.46-.64,1.79-.43.34-1.65.56-3.65.64-2.01.09-5.45.13-10.32.13Z"/>
        <path class="cls-1" d="m712.16,543.15c-2.74,0-4.92-.94-6.54-2.82-1.62-1.88-2.14-4.87-1.54-8.97,2.48,0,4.46-1.32,5.96-3.97,1.5-2.65,2.67-6.92,3.53-12.82.85-5.9,1.54-13.63,2.05-23.21.51-9.57,1.07-21.28,1.67-35.13.08-1.2.32-2.09.71-2.69.38-.6,1.43-1,3.14-1.22,1.71-.21,4.53-.32,8.46-.32h22.82v87.18c0,.86-.19,1.46-.58,1.79-.38.34-1.58.56-3.59.64-2.01.09-5.41.13-10.19.13v-76.28h-7.31c-.68,17.87-1.71,32.54-3.08,44.04-1.37,11.5-3.29,19.98-5.77,25.45-2.48,5.47-5.73,8.21-9.74,8.21Z"/>
        <path class="cls-1" d="m759.08,541.74v-87.18c0-.85.17-1.45.51-1.79.34-.34,1.52-.55,3.53-.64,2.01-.08,5.45-.13,10.32-.13v35.26h3.72c7.69,0,13.12,1.88,16.28,5.64,3.16,3.76,4.74,9.66,4.74,17.69,0,10.26-2.07,18.01-6.22,23.27-4.15,5.26-9.38,7.88-15.71,7.88h-17.18Zm17.05-12.56c1.28,0,2.29-.47,3.01-1.41.73-.94,1.24-2.65,1.54-5.13.3-2.48.45-6.03.45-10.64s-.26-7.65-.77-9.1c-.51-1.45-1.84-2.18-3.97-2.18h-2.95v28.21c.26.09.49.15.71.19.21.04.49.06.83.06h1.15Z"/>
        <path class="cls-1" d="m824.73,543.02c-2.91,0-5.51-.36-7.82-1.09s-4.32-1.99-6.03-3.78c-1.71-1.79-3.12-4.32-4.23-7.56-1.11-3.25-1.95-7.39-2.5-12.44-.56-5.04-.83-11.15-.83-18.33,0-8.38.51-15.47,1.54-21.28,1.03-5.81,2.41-10.53,4.17-14.17,1.75-3.63,3.74-6.45,5.96-8.46,2.22-2.01,4.53-3.38,6.92-4.1,2.39-.73,4.74-1.09,7.05-1.09,3.67,0,6.37.36,8.08,1.09,1.71.73,2.82,1.67,3.33,2.82.51,1.15.77,2.37.77,3.65,0,1.71-.21,3.31-.64,4.81-.43,1.5-.9,2.8-1.41,3.91-.51-.43-1.11-.79-1.79-1.09-.69-.3-1.43-.55-2.24-.77-.81-.21-1.69-.32-2.63-.32-1.46,0-2.87.28-4.23.83-1.37.56-2.65,1.56-3.85,3.01-1.2,1.45-2.22,3.46-3.08,6.03-.86,2.56-1.54,5.81-2.05,9.74-.51,3.93-.77,8.68-.77,14.23s.19,10.17.58,13.85c.38,3.68.96,6.56,1.73,8.65.77,2.09,1.79,3.59,3.08,4.49,1.28.9,2.82,1.35,4.62,1.35,1.96,0,3.82-.17,5.58-.51,1.75-.34,3.22-.81,4.42-1.41.51,1.11.96,2.42,1.35,3.91.38,1.5.58,3.01.58,4.55,0,1.97-.62,3.68-1.86,5.13-1.24,1.45-3.04,2.54-5.38,3.27-2.35.73-5.15,1.09-8.4,1.09Z"/>
        <path class="cls-1" d="m846.39,541.74v-87.18c0-.85.17-1.45.51-1.79.34-.34,1.52-.55,3.53-.64,2.01-.08,5.45-.13,10.32-.13v35.26h3.72c7.69,0,13.12,1.88,16.28,5.64,3.16,3.76,4.74,9.66,4.74,17.69,0,10.26-2.07,18.01-6.22,23.27-4.15,5.26-9.38,7.88-15.71,7.88h-17.18Zm17.05-12.56c1.28,0,2.29-.47,3.01-1.41.73-.94,1.24-2.65,1.54-5.13.3-2.48.45-6.03.45-10.64s-.26-7.65-.77-9.1c-.51-1.45-1.84-2.18-3.97-2.18h-2.95v28.21c.26.09.49.15.71.19.21.04.49.06.83.06h1.15Z"/>
        <path class="cls-1" d="m927.55,542c-1.62,0-3.25-.04-4.87-.13-1.62-.09-3.33-.17-5.13-.26l-1.28-23.33c-.26-4.87-.77-8.48-1.54-10.83-.77-2.35-1.73-3.87-2.88-4.55-1.15-.68-2.46-1.03-3.91-1.03h-1.28v37.31c0,.86-.19,1.46-.58,1.79-.38.34-1.6.56-3.65.64-2.05.09-5.51.13-10.38.13v-87.18c0-.85.21-1.45.64-1.79.43-.34,1.64-.55,3.65-.64,2.01-.08,5.45-.13,10.32-.13v36.15h1.92c1.28,0,2.56-.71,3.85-2.12,1.28-1.41,2.14-3.7,2.56-6.86l3.97-26.28c1.71-.43,3.38-.71,5-.83,1.62-.13,3.03-.19,4.23-.19,2.56,0,4.25.24,5.06.71.81.47,1.09,1.43.83,2.88l-5,26.03c-.6,3.08-1.54,5.6-2.82,7.56-1.28,1.97-2.65,3.42-4.1,4.36,2.99,1.71,5.3,4.57,6.92,8.59,1.62,4.02,2.61,8.85,2.95,14.49l1.54,22.56c.08,1.11-.26,1.88-1.03,2.31-.77.43-2.44.64-5,.64Z"/>
        <path class="cls-1" d="m941.39,541.74v-87.31c0-.85.17-1.43.51-1.73.34-.3,1.43-.49,3.27-.58,1.84-.08,5.06-.13,9.68-.13v35.77c0,2.65-.04,5.24-.13,7.76-.09,2.52-.24,5.24-.45,8.14-.21,2.91-.54,6.37-.96,10.38,1.2-4.7,2.48-9.08,3.85-13.14,1.37-4.06,2.73-8.18,4.1-12.37l10.38-33.21c.34-1.11.79-1.9,1.35-2.37.55-.47,1.67-.75,3.33-.83,1.67-.08,4.34-.13,8.01-.13v87.31c0,.77-.26,1.33-.77,1.67-.51.34-1.71.56-3.59.64-1.88.09-4.92.13-9.1.13v-31.8c0-1.79.04-3.91.13-6.35.08-2.44.21-4.98.38-7.63.17-2.65.36-5.26.58-7.82.21-2.56.45-4.87.71-6.92-.86,4.53-1.82,8.89-2.88,13.08-1.07,4.19-2.5,8.85-4.29,13.97l-10.64,30.13c-.34,1.11-.77,1.9-1.28,2.37-.51.47-1.65.75-3.4.83-1.75.09-4.68.13-8.78.13Z"/>
        <path class="cls-1" d="m991.01,541.74v-87.31c0-.85.17-1.43.51-1.73.34-.3,1.43-.49,3.27-.58,1.84-.08,5.06-.13,9.68-.13v35.77c0,2.65-.04,5.24-.13,7.76-.09,2.52-.24,5.24-.45,8.14-.21,2.91-.54,6.37-.96,10.38,1.2-4.7,2.48-9.08,3.85-13.14,1.37-4.06,2.73-8.18,4.1-12.37l10.38-33.21c.34-1.11.79-1.9,1.35-2.37.55-.47,1.67-.75,3.33-.83,1.67-.08,4.34-.13,8.01-.13v87.31c0,.77-.26,1.33-.77,1.67-.51.34-1.71.56-3.59.64-1.88.09-4.92.13-9.1.13v-31.8c0-1.79.04-3.91.13-6.35.08-2.44.21-4.98.38-7.63.17-2.65.36-5.26.58-7.82.21-2.56.45-4.87.71-6.92-.86,4.53-1.82,8.89-2.88,13.08-1.07,4.19-2.5,8.85-4.29,13.97l-10.64,30.13c-.34,1.11-.77,1.9-1.28,2.37-.51.47-1.65.75-3.4.83-1.75.09-4.68.13-8.78.13Zm21.03-97.31c-3.16,0-5.98-.55-8.46-1.67-2.48-1.11-4.47-2.61-5.96-4.49-1.5-1.88-2.37-3.97-2.63-6.28,0-1.79.64-3.33,1.92-4.62s3.46-2.35,6.54-3.21c.6,2.48,1.24,4.53,1.92,6.15.68,1.62,1.58,2.8,2.69,3.53,1.11.73,2.61,1.09,4.49,1.09,2.65,0,4.51-.81,5.58-2.44,1.07-1.62,2.03-3.85,2.88-6.67.34-1.03,1.24-1.32,2.69-.9,1.45.43,2.93,1.26,4.42,2.5,1.5,1.24,2.41,2.54,2.76,3.91-1.2,2.65-2.54,4.96-4.04,6.92-1.5,1.97-3.4,3.48-5.71,4.55-2.31,1.07-5.34,1.6-9.1,1.6Z"/>
      </g>
      <path class="cls-1" d="m993.96,257.42v121.19c0,2-1.27,3.76-3.16,4.4-11.88,3.96-57.58,15.82-143.31-.43-2.19-.42-3.77-2.35-3.76-4.58v-33.26s.01-25,.01-25l-.03-19.41.02-10.49c0-2.39,1.81-4.4,4.19-4.61,1.14-.1,2.6-.11,4.45.02,8.36.59,78.45,5.54,92.59-2.47,12.71-7.2,42.16-22.87,47.99-25.97.46-.25,1.01.09,1.01.62Zm20.07-32.88c-.08-1.35-.16-2.69-.28-4.03-.11-1.34-.27-2.69-.44-4.03-.14-1.34-.37-2.68-.62-4.01-.08,1.36-.13,2.71-.11,4.06,0,1.35.02,2.7.08,4.05.13,2.56.3,5.11.57,7.65-1.56.24-3.11.48-4.67.77-1.55.28-3.1.6-4.64.97,3.3-.27,6.57-.62,9.86-.9.14-.01.28-.02.42-.03,0-.15,0-.3-.01-.45-.03-1.35-.09-2.69-.17-4.04Zm-806.82,52.26c-.13.68-.24,1.37-.3,2.06-.08.69-.15,1.37-.19,2.06-.08,1.3-.11,2.61-.09,3.91-1.08.04-2.16.09-3.23.14-1.08.05-2.16.12-3.23.2,2.26.09,4.53.1,6.79.11h.29s.02-.22.02-.22c.06-.69.1-1.37.13-2.06.03-.69.04-1.37.05-2.06,0-.69-.02-1.38-.05-2.06-.02-.69-.08-1.38-.17-2.06Zm858.98-55.12c-.45,2.52-.85,5.05-1.15,7.59-1.58-.12-3.15-.23-4.73-.3-1.57-.07-3.16-.11-4.73-.09,3.27.47,6.54.86,9.81,1.33.14.02.28.04.41.06.03-.15.06-.29.09-.44.27-1.32.52-2.65.74-3.98.23-1.33.43-2.66.63-4,.19-1.34.34-2.68.47-4.02.16-1.34.25-2.69.3-4.05-.38,1.3-.74,2.61-1.01,3.94-.29,1.32-.59,2.64-.82,3.96Zm15.1-18.11c-.19.32-.38.62-.56.89v39.16l-4.89,9.64v.07c-.38-.09-.75-.18-1.12-.27-2.68-6.24-5.81-9.26-9.54-9.23-4.01.03-6.91,3.79-8.25,5.97-.29-.04-.58-.08-.87-.11-2.7-5.79-5.94-8.57-9.64-8.23-4.11.37-6.99,4.47-8.32,6.84-.3,0-.6-.02-.9-.02-2.54-5.07-5.55-7.53-8.97-7.31-4.49.28-7.72,5.3-9.05,7.79-.29.02-.59.05-.88.07-3.5-6.52-7.32-6.97-9.97-6.13-3.33,1.06-6.66,5.57-7.98,8.49-.64.12-1.28.25-1.92.37l-6.4-8.37.95-38.79-.19.07c-.05-.07-.11-.16-.16-.24-.96-1.45-2.06-3.7-1.85-6.3.17-2.13,1.2-4,2.91-5.42.5-.49,5.65-5.63,12.58-14.9.05-.14,16.58-44.05,19.91-60.02,3.33-16,6.67-29.17,6.67-29.17,0,0,.28-.77.72-1.48,0-.05.01-.1.02-.14,0,0,.08-.59.19-1.33-.06-.2-.25-.3-.61-.34-.71-.07-1.4-.25-2.1-.38-.02-.1-.05-.2-.07-.3.66-.42,1.31-.84,1.98-1.24.1-.06.29-.02.41.05.59.32.83.1.91-.51.21-1.44.44-2.87.67-4.31.1-.63-.14-.95-.75-1.17-1.06-.37-1.6-1.22-1.55-2.37.35.3.64.55.93.8.11.09.21.23.34.27.31.1.63.15.95.22.03-.35.06-.7.1-1.18-.48.2-.75.31-1.13.47.14-.6.87-1.29-.51-1.44.41-.23.65-.37.93-.52-.08-.26-.15-.53-.23-.81.96.16,1.07.08,1.1-.9.1-3.59.18-7.18.26-10.77.02-1.12-.04-1.25-1.09-1.54-.88-.24-1.79-.45-2.69-.53-2.54-.2-5.08-.31-7.62-.48-.99-.07-1.1-.21-1.11-1.21,0-.87,0-1.75.01-2.62,0-.44-.02-.87-.58-.92-.56-.05-1.19-.27-1.53.44-.18.37-.36.74-.51,1.13-.21.52-.58.75-1.13.72-1.19-.07-2.37-.14-3.56-.18-.35,0-.76.02-1.04.2-.62.39-1.26.45-1.95.39-.1,0-.2-.03-.29-.01-2.7.34-4.96-.78-7.17-2.11-.11-.07-.21-.18-.4-.36.27-.03.42-.07.57-.07,2.2.11,4.41.21,6.61.36.75.05,1.16-.22,1.44-.91.48-1.16.77-1.3,2-1.24.92.05,1.84.1,2.76.12.85.02,1.29-.32,1.56-1.13.18-.55.38-1.1.51-1.67.18-.75.62-1.03,1.37-.97,2.88.23,5.76.39,8.63.67,1.56.15,3.1.48,4.65.76.5.09.9.1.93-.54.11-2.66.21-5.33.31-8.01-.28-.1-.52-.18-.59-.2-.81.48-1.51.89-2.21,1.31-.06-.07-.12-.14-.18-.21.59-.57,1.18-1.14,1.79-1.72-.25-.32-.4-.52-.56-.72-.02.06-.04.11-.06.17-.71-.2-1.42-.39-2.12-.59,0-.11.02-.22.03-.32.3,0,.61-.04.9,0,1.02.16,1.18.08,1.53-.74-.38-.76-.72-1.43-1.05-2.09.08-.06.16-.12.24-.18.23.27.45.54.69.79.24.25.51.48.95.89.44-1.15.82-2.12,1.2-3.09.09.01.19.02.28.03-.07.75-.14,1.51-.21,2.25.41.05.69.09.83.11.76-.41,1.44-.79,2.12-1.16.06.07.12.15.18.22-.59.51-1.17,1.02-1.67,1.46.17.42.28.67.35.83.77.14,1.57.29,2.36.43,0,.1-.01.2-.02.3h-2.28c-.14.44-.23.72-.27.82.4.74.77,1.42,1.14,2.1-.08.06-.15.11-.23.17-.21-.2-.46-.38-.61-.62-.56-.91-.58-.92-1.46-.57-.06.02-.11.03-.13.02-.12.51-.24.93-.33,1.36-.07.35-.15.71-.16,1.07-.09,1.96-.19,3.93-.2,5.89,0,.36.39.74.64,1.08.14.2.37.34.6.54l7.63,10.54h-.19s-7.72-10.4-7.72-10.4c-.98-.24-1.09-.18-1.09.83,0,.93.05,1.87.13,2.8.02.27.19.53.32.86-.69.16-.59.72-.6,1.24,0,.15,0,.29-.02.44-.18,2.47-.02,2.1,2.09,2.91,1.71.66,3.51,1.11,5.28,1.63.25.07.59.08.81-.04,1.06-.53,1.83-.3,2.35.76.05.11.1.22.18.42-.33.22-.64.49-1,.66-.76.35-1.52-.02-1.68-.83-.09-.49-.33-.69-.78-.82-1.82-.53-3.62-1.09-5.44-1.61-.48-.14-1-.21-1.5-.19-.15,0-.39.39-.41.62-.07,1.04-.07,2.08-.1,3.13-.07,2.62-.13,5.24-.19,7.86,0,.3.06.6.1,1.03.38-.2.64-.33,1.08-.56-.17.47-.43.82-.36,1.08.06.22.5.33.88.55-.38.14-.66.25-1,.37.09.29.17.55.28.92-.31-.09-.55-.16-.77-.22-.05.04-.12.06-.12.1-.04.34-.08.69-.11,1.03.33-.08.69-.11.99-.26.38-.19.7-.48,1.22-.85-.04.35-.02.55-.09.72-.33.79-.85,1.42-1.7,1.68-.42.13-.61.35-.57.79.14,1.66.27,3.33.44,4.99.02.15.28.34.47.41.85.3,1.71.57,2.71.89-.93.75-1.87.85-2.87.85v.97c.12.33.22.59.26.71.21.38.41.85.62,1.44,1.84,5.25,15.96,58.67,20.37,74.79,11.48,18.48,21.88,28.81,22.4,29.32,1.72,1.44,2.72,3.3,2.89,5.4.18,2.24-.61,4.21-1.45,5.65Zm-48.2-149.74c-.95-.26-1.9-.52-3.01-.83.91-.94,1.68-1.75,2.46-2.55-.08-.08-.15-.16-.23-.24-1.09.37-1.62,1.54-2.61,2.06-.47-.66.3-1.52-.44-2.2-.57.92.07,1.94-.46,2.95-.69-.77-1.32-1.47-1.94-2.18-.08.07-.16.14-.24.22.61.73,1.21,1.46,1.95,2.33-1.17-.06-2.12-.11-3.08-.16,0,.11-.02.23-.02.34.78.09,1.56.18,2.35.27-.82.87-1.36,1.96-2.62,2.17-.02.06-.03.12-.05.19.41.28.82.55,1.23.83,0-.11,0-.23,0-.34.14-.29.24-.61.44-.86.27-.34.62-.62.94-.91.36-.33.74-.65,1.28-1.12,0,.82.01,1.41,0,2-.02.48.2,1.04-.43,1.34-.04.02,0,.4.04.4.45.05.9.07,1.34.06.03,0,.06-.24.08-.36,0-.02-.02-.04-.04-.06-.87-.81-.28-1.76-.39-2.64.06-.02.12-.05.18-.07.72.77,1.43,1.53,2.15,2.3.09-.08.18-.16.27-.24-.71-.86-1.42-1.71-2.14-2.57.04-.06.09-.12.13-.18.94.15,1.87.3,2.81.45.03-.13.05-.26.08-.39Zm2.33.5c.41-.7.36-3.19-.07-3.66-.32.65-.27,3.31.07,3.66Zm.08,4.16c.05-.79.07-1.59.06-2.38,0-.22-.15-.43-.24-.65-.08.02-.16.05-.23.07-.05.98-.11,1.96-.14,2.94,0,.18.14.36.21.54.12-.18.33-.34.34-.53Zm-20.07,171.47c-.02-.27-.05-.55-.07-.82-.08-.9-.15-1.8-.23-2.71-.38-4.53-.76-9.05-1.14-13.58-.03-.31-.11-.61-.18-.91-.55-1.7-1.39-2.66-1.39-2.66-.36-.4-.77-.75-1.22-1.06-1.36-.91-3.11-1.38-4.95-1.17,0,0-.11.03-.33.1-.22.05-.53.17-.9.31-.75.28-1.76.86-2.62,1.79-.22.23-.43.48-.61.76-.57.82-.98,1.83-1.05,2.91-.04.36-.02.72.02,1.09.04.37.11.76.18,1.2.13.83.25,1.68.38,2.53.47,3.4.8,6.81.96,9.38.09,1.29.09,2.37.13,3.12,0,.38.01.67.01.88,0,.1,0,.18,0,.23,0,.05,0,.08,0,.08,2.16-.31,4.33-.59,6.5-.83,2.17-.25,4.35-.46,6.52-.64Zm25.73-17.89c0-.32-.03-.62-.08-.93-.36-1.74-1.08-2.8-1.09-2.8-.31-.43-.68-.83-1.1-1.18-1.26-1.06-2.94-1.71-4.79-1.71,0,0-.12.02-.34.06-.23.03-.55.11-.93.21-.77.2-1.84.66-2.8,1.49-.24.21-.47.44-.69.69-.65.75-1.17,1.71-1.37,2.78-.08.36-.1.71-.1,1.09,0,.37.02.77.04,1.21.03.84.07,1.7.1,2.56.09,3.43.05,6.86-.09,9.43-.05,1.29-.17,2.36-.21,3.11-.03.38-.06.67-.08.87-.01.1-.02.18-.03.23-.01.05,0,.08,0,.08,2.18-.07,4.36-.1,6.54-.11,2.18,0,4.36.02,6.55.08,0-.28.01-.55.02-.83.02-.9.05-1.81.07-2.71.12-4.54.24-9.08.36-13.62Zm25.84-22.94c-7.52-3.53-17.44-6.14-30.24-6.14-19.71,0-32.61,6.18-40.41,12.37-1.68,1.3-1.88,2.88-1.55,4.27,3.72-3.96,16.97-15.88,41.96-15.88,13.1,0,23.12,2.53,30.24,5.38Zm2.23,24.38c-.16-1.78-.76-2.9-.76-2.9-.26-.47-.58-.91-.96-1.3-1.13-1.2-2.72-2.03-4.57-2.24,0,0-.12,0-.34.02-.22,0-.56.05-.95.1-.8.11-1.91.45-2.96,1.16-.26.18-.52.38-.77.6-.74.67-1.35,1.56-1.67,2.6-.11.35-.18.7-.22,1.07-.04.37-.06.77-.09,1.21-.07.84-.13,1.7-.19,2.55-.3,3.41-.74,6.81-1.16,9.36-.2,1.27-.43,2.33-.57,3.07-.07.37-.14.66-.18.86-.02.1-.04.18-.05.23-.01.05-.02.08-.02.08,2.17.18,4.35.4,6.52.64,2.17.25,4.34.52,6.51.83.04-.27.08-.55.12-.82.13-.9.26-1.79.38-2.69.64-4.5,1.28-8.99,1.92-13.49.05-.31.03-.62.03-.93Zm1.91,41.99c-2.71-6.77-4.98-7.58-5.83-7.61,0,0-.02,0-.03,0-2.04-.04-4.45,3.39-5.24,4.97-.4.81-1.31,1.28-2.25,1.15-1.16-.16-2.32-.31-3.48-.46-.77-.09-1.42-.57-1.71-1.25-2.61-6.1-4.75-6.8-5.55-6.82-2.22-.05-4.85,3.88-5.72,5.7-.35.75-1.14,1.23-2.03,1.21-1.17-.04-2.34-.07-3.51-.09h-.01c-.84-.02-1.59-.5-1.92-1.23-1.74-3.85-3.64-6.03-5.21-6.07-2.16,0-4.92,3.85-6.1,6.47-.31.7-1,1.18-1.81,1.24-1.17.08-2.33.17-3.5.28-.91.08-1.78-.4-2.15-1.19-1.62-3.42-3.34-5.36-4.8-5.36-2.25.03-5.16,4.37-6.42,7.3-.05.12-.12.24-.19.35-.32.46-.82.78-1.39.88-1.52.27-3.07.57-4.6.88v124.79c0,.49.1.96.27,1.41v.11s.05.02.05.02c.38.89,1.08,1.63,2,2.04,16.65,7.37,31.83,7.94,36.08,7.94.32,0,.54,0,.67,0,.13,0,.35,0,.67,0,4.25,0,19.43-.57,36.08-7.94,1.41-.63,2.33-2.03,2.33-3.57v-123.12c-1.06-.26-2.13-.52-3.2-.77-.69-.16-1.25-.63-1.5-1.25Zm-31.22-43.94c-.23,1.34-.42,2.68-.55,4.02-.14,1.34-.28,2.69-.36,4.03-.16,2.55-.26,5.11-.28,7.67-1.57.06-3.15.14-4.72.25-1.57.11-3.15.25-4.71.45,3.29.09,6.59.11,9.88.19.14,0,.28,0,.42.01.01-.15.03-.3.04-.44.12-1.34.21-2.69.28-4.04.07-1.35.12-2.69.16-4.04.04-1.35.03-2.7.01-4.05,0-1.35-.07-2.7-.17-4.06Zm-161.91,49.79c-.32-.39-.68-1-.61-1.71.06-.58.4-1.08.96-1.47.36-.29,7.92-6.46,13.05-17.13.19-.4.67-.67,1.2-.67s1.01.27,1.2.67c5.15,10.71,12.8,16.92,13.06,17.13.57.39.9.89.96,1.46.06.61-.2,1.14-.48,1.53-.06.09-.13.17-.19.24v.02l-.05-.02v22.16c-6.51.32-29.05-.6-29.05-.6v-21.56s-.04-.04-.05-.07Zm10.48,2.99c-.53-.74-1.46-.49-2.11-.09-.04.02-.06.07-.09.1-.28.03-.56.22-.59.58-.17,1.87-.33,3.74-.5,5.61-.08.94-.17,1.87-.25,2.81-.07.78,0,1.53.87,1.78.58.16,1.38.16,1.89-.19.68-.47.62-1.41.67-2.14.14-1.86.24-3.72.29-5.59.01-.53.02-1.07.03-1.6,0-.43.04-.89-.22-1.26Zm10.66,0c-.53-.74-1.46-.49-2.11-.09-.04.02-.06.07-.09.1-.28.03-.55.22-.59.58-.17,1.87-.33,3.74-.5,5.61-.08.94-.16,1.87-.25,2.81-.07.78,0,1.53.87,1.78.58.16,1.38.16,1.89-.19.68-.47.62-1.41.68-2.14.14-1.86.24-3.72.29-5.59.01-.53.02-1.07.03-1.6,0-.43.04-.89-.22-1.26Zm-1.26-9.4c.1.02.21.03.31.04-.04-.05-.08-.1-.12-.15-.06.04-.12.07-.18.11Zm-19.16,5.17c.69-.6,2.38-1.89,5.19-2.9.38-.2.64-.34.67-.34.02,0,.37-.06.9-.15,1.73-.48,3.8-.82,6.23-.9.27-.03.46-.05.56-.05.11,0,.32.01.58.03,4.22.02,7.46.7,9.78,1.45-2.49-.96-5.77-1.66-10.01-1.66-6.52,0-10.79,1.67-13.37,3.35-.56.35-.62.78-.51,1.16Zm-703.35-1.94c.15-.97,1.04-1.82,2.53-2.46.94-.48,20.83-10.83,34.32-28.69.51-.68,1.77-1.12,3.17-1.12s2.65.45,3.17,1.12c13.54,17.93,33.65,28.35,34.34,28.7,1.49.65,2.37,1.5,2.52,2.45.16,1.02-.53,1.91-1.26,2.56v35.72h-76.1v-35.31l.4-.24-1.34.24s-.09-.07-.14-.11c-.84-.66-1.8-1.68-1.61-2.86Zm32.64,18.89c0-.16-.03-.32-.06-.47-.26-.88-.73-1.41-.73-1.41-.2-.22-.44-.42-.71-.59-.8-.53-1.85-.85-3.01-.85,0,0-.07.01-.21.03-.14.01-.34.05-.58.1-.49.1-1.16.33-1.77.74-.15.1-.3.22-.44.34-.42.38-.76.86-.91,1.4-.06.18-.08.36-.08.55,0,.19,0,.39,0,.62,0,.43.01.87.02,1.3,0,1.75-.09,3.49-.23,4.8-.06.66-.16,1.2-.21,1.58-.03.19-.06.34-.07.44,0,.05-.02.09-.02.12,0,.03,0,.04,0,.04h9.03v-8.75Zm27.56,0c0-.16-.03-.32-.06-.47-.26-.88-.73-1.41-.73-1.41-.2-.22-.44-.42-.71-.59-.8-.53-1.85-.85-3.01-.85,0,0-.07.01-.21.03-.14.01-.34.05-.58.1-.49.1-1.16.33-1.77.74-.15.1-.3.22-.44.34-.42.38-.76.86-.91,1.4-.06.18-.07.36-.08.55,0,.19,0,.39,0,.62,0,.43.01.87.02,1.3,0,1.75-.09,3.49-.23,4.8-.06.66-.16,1.2-.21,1.58-.03.19-.06.34-.07.44,0,.05-.02.09-.02.12,0,.03,0,.04,0,.04h9.03v-8.75Zm-56.71-18.11c3.24-1.8,14.77-7.21,36.52-7.21,11.4,0,20.12,1.15,26.32,2.44-6.55-1.6-15.18-2.79-26.32-2.79-17.16,0-28.39,2.8-35.17,5.62-1.46.59-1.63,1.3-1.35,1.94Zm251.1-29.04c-.11,1.03-.21,2.07-.28,3.1-.12,1.96-.2,3.93-.21,5.9-1.21.05-2.43.1-3.63.19-1.21.08-2.42.19-3.62.34,2.53.07,5.07.08,7.6.15.11,0,.21,0,.32,0,0-.11.02-.23.03-.34.09-1.03.16-2.07.22-3.1.06-1.03.09-2.07.13-3.11.03-1.04.02-2.08.01-3.11,0-1.04-.05-2.08-.13-3.12-.18,1.03-.33,2.06-.43,3.09Zm140.24,3.09c.23-1.2,1.56-2.26,3.81-3.06,1.41-.59,31.34-13.45,51.62-35.64.77-.84,2.66-1.4,4.76-1.4s3.99.55,4.76,1.4c20.36,22.27,50.61,35.21,51.65,35.65,2.25.81,3.56,1.86,3.79,3.05.24,1.26-.8,2.38-1.9,3.18-.25.18-.5.35-.74.5v.04l-4.53-.91-.23-.08c-.58-.2-1.18-.4-1.77-.61v38.24h-102.37v-37.8c-.37.12-.75.24-1.12.37l-5.11.75c-.07-.04-.14-.09-.21-.14-1.26-.82-2.7-2.08-2.43-3.55Zm5.26.96c4.87-2.23,22.21-8.95,54.93-8.95,17.15,0,30.26,1.43,39.59,3.03-9.85-1.99-22.83-3.46-39.59-3.46-25.8,0-42.7,3.48-52.9,6.97-2.2.73-2.46,1.62-2.03,2.41Zm-164.99,2.84c-.06-1.04-.13-2.07-.22-3.1-.08-1.03-.2-2.07-.33-3.1-.11-1.03-.28-2.06-.47-3.09-.06,1.04-.1,2.09-.08,3.12,0,1.04.02,2.08.06,3.11.1,1.97.23,3.93.44,5.89-1.2.18-2.39.37-3.59.59-1.2.22-2.38.46-3.57.74,2.54-.21,5.05-.48,7.58-.69.11,0,.21-.02.32-.03,0-.11,0-.23,0-.34-.03-1.04-.07-2.07-.13-3.11Zm31.95,3.33c2.52.36,5.03.66,7.54,1.02.1.02.21.03.32.05.02-.11.05-.22.07-.34.21-1.02.4-2.04.57-3.06.17-1.02.33-2.05.48-3.07.14-1.03.26-2.06.36-3.09.12-1.03.19-2.07.23-3.11-.29,1-.56,2.01-.78,3.03-.23,1.01-.46,2.03-.63,3.05-.35,1.94-.65,3.88-.89,5.84-1.21-.09-2.42-.17-3.64-.23-1.21-.05-2.43-.08-3.64-.07Zm-48.41-18.96c-.74-1.11-1.59-2.84-1.43-4.84.13-1.64.92-3.08,2.24-4.17.38-.38,4.35-4.33,9.67-11.46.04-.1,12.75-33.87,15.31-46.16,2.56-12.3,5.13-22.43,5.13-22.43,0,0,.21-.59.56-1.14,0-.04,0-.07.01-.11,0,0,.06-.45.15-1.02-.05-.16-.19-.23-.47-.26-.54-.05-1.08-.19-1.62-.29-.02-.08-.04-.16-.06-.23.51-.32,1.01-.65,1.52-.95.07-.04.23-.01.31.04.46.25.64.08.7-.39.16-1.11.34-2.21.52-3.31.08-.48-.11-.73-.58-.9-.82-.29-1.23-.94-1.19-1.83.27.23.49.42.72.61.08.07.16.17.26.2.24.07.49.11.73.17.02-.27.05-.54.08-.91-.37.15-.58.24-.87.36.11-.46.67-.99-.39-1.1.32-.18.5-.28.72-.4-.06-.2-.12-.4-.18-.62.74.12.83.06.85-.69.07-2.76.14-5.52.2-8.28.02-.86-.03-.96-.84-1.18-.68-.19-1.37-.35-2.07-.4-1.95-.15-3.91-.24-5.86-.37-.76-.05-.85-.16-.85-.93,0-.67,0-1.34,0-2.01,0-.34-.01-.67-.45-.7-.43-.04-.92-.21-1.18.34-.14.29-.28.57-.39.87-.16.4-.45.57-.87.55-.91-.05-1.82-.11-2.74-.14-.27,0-.59.01-.8.15-.48.3-.97.34-1.5.3-.07,0-.15-.02-.22-.01-2.07.26-3.82-.6-5.51-1.62-.09-.05-.16-.14-.31-.27.2-.03.32-.06.44-.05,1.7.09,3.39.17,5.08.28.57.04.89-.17,1.11-.7.37-.89.6-1,1.54-.95.71.04,1.42.07,2.12.09.65.02,1-.24,1.2-.87.14-.43.29-.85.39-1.28.14-.57.48-.79,1.06-.75,2.21.17,4.43.3,6.64.51,1.2.12,2.39.37,3.57.59.38.07.69.07.72-.42.09-2.05.16-4.1.24-6.16-.22-.07-.4-.14-.45-.16-.62.37-1.16.69-1.7,1-.05-.05-.09-.11-.14-.16.46-.44.91-.87,1.38-1.32-.19-.24-.31-.4-.43-.55-.01.04-.03.09-.04.13-.54-.15-1.09-.3-1.63-.45,0-.08.01-.17.02-.25.23,0,.47-.03.69,0,.78.12.91.06,1.17-.57-.3-.59-.55-1.1-.81-1.6.06-.05.12-.09.18-.14.18.2.34.42.53.61.19.19.39.37.73.69.34-.88.63-1.63.92-2.38.07,0,.15.02.22.03-.06.58-.11,1.16-.16,1.73.31.04.53.07.64.08.58-.32,1.11-.6,1.63-.89.04.06.09.11.13.17-.45.39-.9.79-1.29,1.12.13.32.22.52.27.64.59.11,1.2.22,1.81.33,0,.08,0,.15-.01.23h-1.75c-.11.34-.18.55-.21.63.31.57.59,1.09.88,1.61-.06.04-.12.09-.18.13-.16-.16-.36-.29-.47-.48-.43-.7-.44-.71-1.12-.44-.04.02-.09.02-.1.02-.1.39-.18.72-.25,1.05-.06.27-.11.55-.13.82-.07,1.51-.15,3.02-.15,4.53,0,.28.3.57.49.83.11.15.28.26.46.42l5.87,8.1h-.14s-5.94-7.99-5.94-7.99c-.76-.19-.84-.14-.84.64,0,.72.04,1.44.1,2.16.02.21.15.41.25.66-.53.12-.45.56-.46.95,0,.11,0,.22-.01.34-.14,1.9-.01,1.62,1.6,2.24,1.32.51,2.7.86,4.06,1.25.19.06.45.06.63-.03.81-.41,1.41-.23,1.81.58.04.08.07.17.14.32-.25.17-.49.38-.76.5-.58.27-1.17-.01-1.29-.64-.07-.37-.26-.53-.6-.63-1.4-.4-2.78-.84-4.18-1.24-.37-.11-.77-.16-1.15-.15-.11,0-.3.3-.31.48-.05.8-.06,1.6-.08,2.4-.05,2.01-.1,4.03-.14,6.04,0,.23.04.46.08.79.29-.15.49-.25.83-.43-.13.36-.33.63-.28.83.04.17.38.25.67.42-.29.11-.51.19-.76.29.07.22.13.42.21.71-.24-.07-.42-.12-.59-.17-.04.03-.09.05-.1.08-.03.26-.06.53-.09.79.26-.06.53-.08.76-.2.29-.15.54-.37.94-.65-.03.27-.02.42-.07.55-.25.61-.66,1.09-1.31,1.29-.32.1-.47.27-.44.61.11,1.28.21,2.56.34,3.84.01.12.22.26.36.32.65.23,1.32.44,2.08.69-.72.57-1.44.65-2.21.66v.75c.1.26.17.45.2.55.16.29.32.65.47,1.1,1.41,4.03,12.27,45.12,15.66,57.51,8.83,14.21,16.82,22.16,17.23,22.55,1.32,1.11,2.09,2.54,2.23,4.16.14,1.72-.47,3.24-1.11,4.34-.14.25-.29.48-.43.68v30.11l-3.76,7.42v.05c-.29-.07-.58-.14-.87-.21-2.06-4.8-4.47-7.12-7.33-7.1-3.08.03-5.31,2.91-6.34,4.59-.22-.03-.44-.06-.66-.09-2.07-4.46-4.57-6.59-7.41-6.33-3.16.28-5.38,3.43-6.4,5.26-.23,0-.46-.01-.69-.02-1.95-3.9-4.27-5.79-6.9-5.63-3.45.21-5.94,4.07-6.96,5.99-.22.02-.45.03-.68.05-2.69-5.01-5.63-5.36-7.67-4.71-2.56.81-5.12,4.28-6.13,6.53-.49.09-.99.19-1.48.29l-4.92-6.43.73-29.83-.15.05c-.04-.06-.08-.12-.12-.19Zm31.12-115.65c-.73-.2-1.46-.4-2.32-.64.7-.73,1.29-1.34,1.89-1.96-.06-.06-.12-.13-.18-.19-.84.28-1.24,1.19-2.01,1.59-.36-.51.23-1.17-.34-1.69-.44.71.05,1.49-.35,2.27-.53-.59-1.01-1.13-1.49-1.67-.06.06-.12.11-.18.17.47.56.93,1.12,1.5,1.8-.9-.05-1.63-.08-2.37-.12,0,.09-.01.17-.02.26.6.07,1.2.14,1.8.21-.63.67-1.04,1.51-2.02,1.67-.01.05-.03.09-.04.14.32.21.63.42.94.64,0-.09,0-.17,0-.26.11-.22.18-.47.33-.66.21-.26.47-.47.72-.7.28-.25.57-.5.98-.86,0,.63.01,1.08,0,1.54-.01.37.15.8-.33,1.03-.03.02,0,.31.03.31.34.04.69.05,1.03.05.02,0,.04-.18.06-.28,0-.01-.02-.03-.03-.04-.67-.62-.22-1.35-.3-2.03.05-.02.09-.04.14-.06.55.59,1.1,1.18,1.65,1.77.07-.06.14-.12.21-.18-.55-.66-1.1-1.32-1.64-1.98.03-.05.07-.09.1-.14.72.11,1.44.23,2.16.34.02-.1.04-.2.06-.3Zm-13.58,135.44c-.02-.21-.04-.42-.05-.63-.06-.69-.12-1.39-.18-2.08-.29-3.48-.59-6.96-.88-10.44-.02-.24-.08-.47-.14-.7-.42-1.3-1.07-2.05-1.07-2.05-.28-.3-.59-.58-.94-.81-1.05-.7-2.39-1.06-3.81-.9,0,0-.09.03-.25.07-.17.04-.41.13-.69.24-.58.22-1.35.66-2.02,1.38-.17.18-.33.37-.47.58-.44.63-.75,1.4-.81,2.24-.03.28-.01.55.02.84.03.29.09.59.14.92.1.64.19,1.29.29,1.94.36,2.61.62,5.24.73,7.22.07.99.07,1.82.1,2.4,0,.29.01.52.01.67,0,.08,0,.14,0,.18,0,.04,0,.06,0,.06,1.67-.24,3.33-.45,5-.64,1.67-.19,3.34-.35,5.02-.49Zm19.79-13.75c0-.24-.03-.48-.06-.71-.27-1.34-.83-2.15-.83-2.15-.24-.33-.52-.64-.85-.91-.96-.81-2.26-1.31-3.68-1.31,0,0-.09.02-.26.04-.17.02-.42.08-.71.16-.59.15-1.41.51-2.15,1.15-.18.16-.37.34-.53.53-.5.58-.9,1.31-1.05,2.13-.06.27-.08.55-.08.84,0,.29.02.59.03.93.03.65.05,1.31.08,1.97.07,2.63.04,5.27-.07,7.25-.04.99-.13,1.82-.16,2.39-.02.29-.04.52-.06.67,0,.08-.01.14-.02.18,0,.04,0,.06,0,.06,1.68-.05,3.35-.08,5.03-.08,1.68,0,3.36.02,5.03.06,0-.21.01-.42.02-.64.02-.7.04-1.39.06-2.09.09-3.49.19-6.98.28-10.47Zm20.27-2.13c-.87-.92-2.09-1.56-3.51-1.73,0,0-.09,0-.26.02-.17,0-.43.03-.73.08-.61.08-1.47.35-2.28.89-.2.14-.4.29-.59.46-.57.52-1.04,1.2-1.29,2-.09.27-.14.53-.17.82-.03.29-.04.59-.07.93-.05.65-.1,1.31-.15,1.96-.23,2.62-.57,5.24-.9,7.2-.15.98-.33,1.79-.44,2.36-.06.28-.11.51-.14.66-.02.08-.03.13-.04.17-.01.04-.02.06-.01.06,1.67.14,3.34.31,5.01.49,1.67.19,3.34.4,5,.64.03-.21.06-.42.09-.63.1-.69.2-1.38.29-2.07.49-3.46.98-6.92,1.48-10.37.04-.24.02-.48.02-.71-.12-1.37-.59-2.23-.58-2.23-.2-.36-.45-.7-.74-1Zm-24.68-119.17c.31-.54.27-2.46-.05-2.82-.24.5-.2,2.54.05,2.82Zm.06,3.2c.04-.61.05-1.22.04-1.83,0-.17-.12-.33-.18-.5-.06.02-.12.04-.18.06-.04.75-.09,1.51-.11,2.26,0,.14.11.28.16.42.09-.13.25-.27.26-.41Zm-31.3,108.54c2.86-3.05,13.05-12.21,32.27-12.21,10.07,0,17.78,1.95,23.26,4.14-5.79-2.71-13.41-4.72-23.26-4.72-15.16,0-25.08,4.75-31.07,9.52-1.29,1-1.44,2.21-1.2,3.28Zm-160.92,59.17c-.13.68-.24,1.37-.3,2.06-.08.69-.15,1.37-.19,2.06-.08,1.3-.11,2.61-.09,3.91-1.08.04-2.16.09-3.23.14-1.08.05-2.16.12-3.23.2,2.26.09,4.53.1,6.79.11h.29s.02-.22.02-.22c.06-.69.1-1.37.13-2.06.03-.69.04-1.37.05-2.06,0-.69-.02-1.38-.05-2.06-.02-.69-.08-1.38-.17-2.06Zm610.58-48.7l-5.34,10.53v.08c-.41-.1-.82-.2-1.23-.3-2.93-6.81-6.34-10.11-10.41-10.07-4.38.04-7.54,4.13-9,6.51-.31-.04-.63-.08-.94-.12-2.94-6.33-6.48-9.35-10.52-8.99-4.48.4-7.63,4.87-9.08,7.47-.33,0-.66-.02-.98-.02-2.77-5.53-6.06-8.21-9.79-7.98-4.9.3-8.43,5.78-9.88,8.51-.32.02-.64.05-.96.08-3.82-7.12-7.99-7.61-10.89-6.69-3.63,1.15-7.27,6.08-8.71,9.27-.7.13-1.4.27-2.1.41l-6.99-9.13,1.04-42.34-.21.07c-.06-.08-.11-.18-.17-.26-1.05-1.58-2.25-4.03-2.02-6.87.19-2.32,1.3-4.37,3.18-5.92.54-.53,6.17-6.15,13.73-16.26.06-.15,18.1-48.08,21.73-65.52,3.64-17.46,7.28-31.84,7.28-31.84,0,0,.3-.84.79-1.62,0-.05.01-.11.02-.16,0,0,.08-.64.21-1.45-.07-.22-.27-.33-.66-.37-.77-.07-1.53-.27-2.29-.41-.03-.11-.05-.22-.08-.33.72-.46,1.43-.92,2.17-1.35.1-.06.32-.02.45.05.65.35.9.11,1-.56.23-1.57.48-3.14.73-4.7.11-.69-.15-1.04-.82-1.28-1.16-.41-1.74-1.33-1.69-2.59.38.32.7.6,1.02.87.12.1.23.25.37.29.34.11.69.16,1.04.24.03-.38.06-.76.11-1.29-.52.22-.82.34-1.23.51.15-.65.94-1.41-.55-1.57.45-.25.71-.4,1.02-.57-.08-.29-.17-.57-.25-.88,1.05.17,1.17.08,1.2-.98.1-3.92.2-7.83.28-11.75.02-1.23-.05-1.36-1.19-1.68-.96-.27-1.95-.5-2.94-.57-2.77-.22-5.55-.34-8.32-.52-1.08-.07-1.21-.23-1.21-1.32,0-.95,0-1.91.01-2.86,0-.48-.02-.95-.63-1-.61-.05-1.3-.3-1.67.48-.19.41-.39.81-.56,1.23-.23.57-.64.81-1.24.78-1.29-.07-2.59-.16-3.88-.19-.38-.01-.83.02-1.14.21-.67.43-1.38.49-2.13.43-.11,0-.21-.03-.32-.02-2.94.37-5.42-.86-7.82-2.3-.13-.08-.23-.2-.44-.39.29-.04.46-.08.62-.07,2.41.12,4.81.23,7.22.39.81.05,1.26-.24,1.58-.99.52-1.26.85-1.42,2.18-1.35,1.01.05,2.01.11,3.02.13.92.02,1.41-.34,1.7-1.23.19-.6.41-1.21.56-1.82.2-.81.68-1.13,1.5-1.06,3.14.25,6.29.42,9.42.73,1.7.17,3.39.53,5.07.83.54.1.98.1,1.01-.59.12-2.91.23-5.81.34-8.74-.31-.11-.57-.2-.64-.22-.88.52-1.65.97-2.41,1.42-.07-.08-.13-.16-.2-.23.65-.62,1.29-1.24,1.95-1.87-.27-.35-.44-.57-.61-.78-.02.06-.04.12-.06.19-.77-.21-1.55-.43-2.32-.64.01-.12.02-.24.03-.35.33,0,.66-.04.98,0,1.11.17,1.29.08,1.67-.81-.42-.83-.78-1.56-1.15-2.28.09-.06.17-.13.26-.19.25.29.49.59.75.87.26.28.55.52,1.04.98.48-1.25.9-2.31,1.3-3.37.1.01.21.03.31.04-.08.82-.16,1.65-.23,2.46.45.06.75.1.91.12.83-.45,1.57-.86,2.31-1.26.06.08.13.16.19.24-.64.56-1.28,1.12-1.83,1.6.19.46.31.73.38.91.84.16,1.71.31,2.58.47,0,.11-.01.22-.02.32h-2.49c-.16.48-.25.78-.29.9.44.81.84,1.55,1.25,2.29-.08.06-.17.12-.25.19-.22-.22-.5-.41-.67-.68-.62-.99-.63-1.01-1.59-.62-.06.02-.13.03-.15.03-.14.56-.26,1.02-.36,1.49-.08.38-.16.78-.18,1.17-.1,2.14-.21,4.29-.22,6.43,0,.39.43.8.7,1.18.16.22.4.37.65.59l8.33,11.5h-.2s-8.42-11.35-8.42-11.35c-1.07-.27-1.19-.2-1.19.9,0,1.02.06,2.04.14,3.06.02.3.21.58.35.93-.75.18-.65.79-.66,1.35,0,.16,0,.32-.02.48-.2,2.7-.02,2.29,2.28,3.18,1.87.72,3.83,1.21,5.76,1.78.27.08.64.08.89-.04,1.16-.58,2-.33,2.57.83.06.12.1.24.19.45-.36.24-.69.54-1.09.72-.83.38-1.66-.02-1.83-.9-.1-.53-.36-.75-.85-.89-1.98-.57-3.95-1.19-5.94-1.76-.53-.15-1.09-.23-1.64-.21-.16,0-.43.43-.44.67-.08,1.13-.08,2.27-.11,3.41-.07,2.86-.14,5.72-.21,8.58,0,.33.06.66.11,1.12.41-.21.7-.36,1.18-.61-.19.52-.47.9-.39,1.18.06.24.54.36.95.6-.41.15-.72.27-1.09.4.09.31.18.6.3,1-.34-.1-.6-.17-.84-.24-.06.04-.13.07-.14.11-.05.37-.08.75-.12,1.12.36-.09.76-.12,1.08-.28.41-.21.77-.53,1.33-.93-.04.38-.02.6-.1.78-.36.87-.93,1.55-1.86,1.83-.45.14-.66.39-.62.86.16,1.82.29,3.64.48,5.45.02.17.31.37.51.45.93.33,1.87.62,2.96.97-1.02.81-2.04.92-3.13.93v1.06c.14.36.23.64.28.78.22.41.45.92.67,1.57,2,5.73,17.42,64.03,22.23,81.63,12.53,20.17,23.88,31.45,24.45,32.01,1.87,1.57,2.97,3.6,3.16,5.9.2,2.44-.67,4.6-1.58,6.16-.2.35-.41.68-.61.97v42.74Zm-52-207.14c-1.04-.28-2.08-.57-3.29-.9.99-1.03,1.84-1.91,2.68-2.78-.08-.09-.17-.18-.25-.27-1.19.4-1.77,1.68-2.85,2.25-.51-.73.33-1.66-.48-2.4-.62,1,.08,2.12-.5,3.22-.75-.84-1.44-1.61-2.12-2.38-.09.08-.17.16-.26.24.66.79,1.33,1.59,2.13,2.55-1.28-.07-2.32-.12-3.36-.17,0,.12-.02.25-.03.37.85.1,1.71.2,2.56.3-.9.95-1.48,2.14-2.86,2.36l-.05.2c.45.3.89.6,1.34.9,0-.12,0-.25,0-.37.15-.31.26-.67.48-.94.3-.37.67-.67,1.02-.99.4-.36.8-.71,1.4-1.22,0,.89.02,1.54,0,2.18-.02.52.21,1.14-.47,1.46-.05.02.01.44.04.44.49.05.98.07,1.47.07.03,0,.06-.26.08-.4,0-.02-.02-.05-.04-.06-.95-.88-.31-1.92-.42-2.89.07-.03.13-.05.2-.08.78.84,1.56,1.67,2.35,2.51.1-.09.19-.17.29-.26-.78-.93-1.55-1.87-2.33-2.8.05-.07.1-.13.15-.2,1.02.16,2.04.32,3.07.49.03-.14.06-.29.09-.43Zm2.54.54c.44-.77.39-3.49-.08-4-.35.71-.29,3.61.08,4Zm.09,4.54c.06-.86.08-1.73.06-2.6,0-.24-.17-.47-.26-.7-.08.03-.17.05-.26.08-.06,1.07-.12,2.14-.15,3.21,0,.2.15.4.23.59.13-.19.36-.38.37-.58Zm-21.9,187.15c-.03-.3-.05-.6-.08-.9-.08-.98-.17-1.97-.25-2.95-.42-4.94-.83-9.88-1.25-14.82-.03-.34-.12-.67-.19-.99-.6-1.85-1.52-2.9-1.52-2.9-.39-.43-.84-.82-1.34-1.15-1.48-1-3.39-1.5-5.41-1.27,0,0-.13.04-.36.1-.24.06-.58.18-.98.34-.82.31-1.92.94-2.86,1.96-.24.25-.47.53-.67.83-.62.9-1.07,1.99-1.15,3.18-.05.4-.02.78.02,1.19.04.41.13.83.19,1.31.15.91.27,1.83.41,2.76.51,3.71.87,7.43,1.04,10.24.1,1.4.1,2.58.14,3.4,0,.41.02.74.02.96,0,.11,0,.2,0,.25,0,.06,0,.09,0,.09,2.36-.34,4.73-.64,7.1-.91,2.37-.27,4.74-.5,7.12-.7Zm28.08-19.52c0-.34-.04-.68-.08-1.01-.39-1.9-1.18-3.05-1.18-3.05-.34-.47-.74-.91-1.2-1.29-1.37-1.15-3.2-1.87-5.23-1.86,0,0-.13.02-.37.06-.25.03-.6.12-1.01.23-.84.22-2,.73-3.06,1.63-.26.22-.52.48-.76.75-.71.82-1.28,1.86-1.49,3.03-.09.39-.11.78-.11,1.19,0,.41.03.84.05,1.32.04.92.07,1.85.11,2.79.1,3.74.05,7.48-.09,10.29-.06,1.4-.19,2.58-.23,3.4-.03.41-.06.73-.09.95-.01.11-.02.19-.03.25-.01.06,0,.09-.01.09,2.38-.07,4.76-.11,7.14-.12,2.38,0,4.76.03,7.14.09,0-.3.02-.6.02-.9.03-.99.05-1.98.08-2.96.13-4.96.27-9.91.4-14.87Zm28.2-25.04c-8.21-3.85-19.04-6.7-33.01-6.7-21.51,0-35.6,6.74-44.1,13.51-1.83,1.42-2.05,3.14-1.7,4.66,4.06-4.33,18.52-17.34,45.8-17.34,14.3,0,25.23,2.76,33.01,5.87Zm2.44,26.61c-.17-1.94-.83-3.17-.83-3.17-.29-.51-.63-.99-1.05-1.42-1.23-1.3-2.97-2.22-4.99-2.45,0,0-.13,0-.37.02-.24,0-.61.05-1.03.11-.87.12-2.08.49-3.23,1.27-.29.19-.57.41-.84.66-.81.74-1.48,1.7-1.83,2.84-.12.38-.2.76-.24,1.17-.04.41-.06.84-.1,1.32-.07.92-.14,1.85-.21,2.78-.33,3.72-.81,7.44-1.27,10.22-.22,1.39-.47,2.54-.62,3.35-.08.4-.15.72-.2.94-.02.11-.04.19-.06.25-.02.06-.02.08-.02.08,2.37.2,4.75.43,7.12.7,2.37.27,4.74.57,7.1.91.04-.3.08-.6.13-.89.14-.98.28-1.96.42-2.93.7-4.91,1.4-9.82,2.1-14.72.05-.34.03-.68.03-1.01ZM57.36,308.89l.04-.43c.14-1.29.23-2.59.3-3.88.07-1.29.1-2.59.11-3.88.01-1.3-.05-2.59-.12-3.89-.04-1.3-.19-2.59-.38-3.89-.3,1.29-.55,2.58-.7,3.87-.18,1.29-.34,2.58-.43,3.88-.18,2.45-.26,4.91-.22,7.37-2.47.08-4.95.17-7.42.27-2.47.1-4.95.22-7.42.37,5.2.16,10.39.18,15.58.2h.66Zm772.13-104.74c-.49,2.75-.92,5.51-1.26,8.28-1.72-.13-3.44-.25-5.16-.32-1.72-.08-3.44-.12-5.17-.1,3.57.51,7.14.94,10.71,1.45.15.02.3.04.45.06.03-.16.07-.32.1-.48.29-1.44.57-2.89.81-4.34.25-1.45.47-2.9.68-4.36.21-1.46.37-2.92.52-4.39.17-1.46.27-2.94.32-4.42-.41,1.42-.8,2.85-1.1,4.29-.32,1.44-.65,2.88-.9,4.33Zm-56.93,3.13c-.09-1.47-.18-2.94-.31-4.4-.12-1.47-.29-2.93-.48-4.39-.16-1.47-.4-2.92-.67-4.38-.09,1.48-.14,2.96-.11,4.43,0,1.47.02,2.95.09,4.42.14,2.79.33,5.58.62,8.35-1.71.26-3.4.53-5.1.84-1.7.31-3.38.66-5.06,1.05,3.6-.3,7.18-.68,10.76-.98.15-.01.3-.02.45-.04,0-.16,0-.32-.01-.49-.04-1.47-.1-2.94-.18-4.41Zm62.33,33.78c-2.96-7.39-5.43-8.27-6.36-8.31-.01,0-.02,0-.04,0-2.23-.05-4.85,3.7-5.72,5.43-.43.89-1.43,1.4-2.45,1.26-1.27-.18-2.53-.34-3.8-.5-.84-.1-1.55-.62-1.87-1.37-2.84-6.66-5.19-7.42-6.06-7.44-2.42-.05-5.29,4.23-6.24,6.22-.38.82-1.25,1.34-2.21,1.32-1.28-.05-2.55-.08-3.83-.1,0,0,0,0-.01,0-.91-.02-1.74-.55-2.1-1.35-1.9-4.21-3.97-6.59-5.69-6.62-2.36,0-5.37,4.21-6.66,7.06-.33.76-1.09,1.29-1.98,1.35-1.27.09-2.55.19-3.82.3-.99.09-1.94-.43-2.35-1.3-1.77-3.74-3.65-5.85-5.24-5.85-2.46.04-5.63,4.77-7.01,7.97-.06.13-.13.26-.21.39-.35.5-.9.85-1.52.96-1.66.29-3.35.62-5.02.96v136.21c0,.54.11,1.05.3,1.54v.12s.05.03.05.03c.42.97,1.18,1.78,2.19,2.22,18.18,8.04,34.74,8.67,39.39,8.67.35,0,.59,0,.73,0,.14,0,.39,0,.73,0,4.64,0,21.21-.63,39.39-8.67,1.54-.68,2.54-2.21,2.54-3.9v-134.38c-1.16-.29-2.33-.57-3.49-.84-.75-.17-1.36-.68-1.64-1.37Zm-34.08-47.96c-.25,1.46-.46,2.93-.6,4.39-.15,1.47-.3,2.93-.4,4.4-.18,2.79-.29,5.58-.3,8.37-1.72.07-3.44.15-5.16.27-1.71.12-3.44.28-5.14.49,3.59.1,7.2.12,10.79.21.15,0,.3,0,.45.01.01-.16.03-.32.04-.48.13-1.47.23-2.94.31-4.41.08-1.47.13-2.94.18-4.41.05-1.47.03-2.95.01-4.42,0-1.47-.08-2.95-.18-4.43Zm-346.41,67.48c-2.09-5.21-3.83-5.83-4.48-5.85,0,0-.02,0-.02,0-1.57-.03-3.42,2.6-4.03,3.83-.3.63-1.01.98-1.73.88-.89-.13-1.78-.24-2.68-.35-.59-.07-1.09-.44-1.32-.96-2-4.69-3.65-5.23-4.27-5.24-1.7-.04-3.73,2.98-4.4,4.38-.27.58-.88.94-1.56.93-.9-.03-1.8-.06-2.7-.07,0,0,0,0,0,0-.65-.01-1.22-.38-1.48-.95-1.34-2.96-2.8-4.64-4.01-4.67-1.66,0-3.78,2.96-4.69,4.97-.24.54-.77.91-1.39.95-.9.06-1.79.13-2.69.21-.7.06-1.37-.31-1.66-.92-1.25-2.63-2.57-4.12-3.69-4.12-1.73.03-3.97,3.36-4.94,5.61-.04.09-.09.19-.15.27-.25.35-.63.6-1.07.68-1.17.21-2.36.44-3.54.68v13.2h60.11v-11.91c-.82-.2-1.64-.4-2.46-.59-.53-.12-.96-.48-1.15-.96Zm295.92-1.68v117c-10.06,14.35-127.68,14.31-127.68,14.31,0,0-242.43.03-387.65,0-145.23-.03-234.99-14.31-234.99-14.31v-99.73c0-4.42,3.59-8.01,8.01-8.01h5.3v-55.6c0-3.83,2.69-7.02,6.28-7.82v-15.23c-.41.16-.82.32-1.22.49l-5.6.99c-.07-.06-.15-.12-.23-.18-1.38-1.08-2.96-2.76-2.65-4.7.25-1.59,1.71-2.99,4.17-4.05,1.54-.79,34.28-17.82,56.48-47.21.84-1.12,2.91-1.85,5.21-1.85s4.37.73,5.21,1.85c22.28,29.51,55.38,46.65,56.5,47.22,2.46,1.08,3.9,2.46,4.14,4.04.26,1.67-.88,3.15-2.07,4.22-.27.24-.54.47-.81.67v.06l-4.96-1.2-.25-.1c-.64-.27-1.29-.54-1.93-.8v15.74c3.75.67,6.59,3.94,6.59,7.88v55.6h5.3c4.42,0,8.01,3.59,8.01,8.01v21.99h99.4c1.81,0,3.58.59,5.02,1.69,0,0,9.27-21.75,35.23-23.06,25.96-1.31,257.95,0,257.95,0,0,0,6.98.98,12.74,3.12l1.15-1.04c.94-.85,2.17-1.32,3.44-1.32h149.56s12.92.43,15.27-2.04c2.36-2.47,19.08-16.61,19.08-16.61ZM39.66,296.72c0,3.29-.21,6.58-.53,9.05-.14,1.23-.37,2.26-.47,2.98-.07.36-.13.64-.17.84-.02.1-.04.17-.05.22-.01.05-.02.08-.02.08h20.74v-16.48c0-.3-.08-.59-.15-.89-.6-1.67-1.68-2.66-1.68-2.66-.47-.41-1.01-.79-1.62-1.12-1.83-1-4.26-1.6-6.92-1.6,0,0-.17.02-.48.06-.32.02-.78.1-1.34.2-1.12.19-2.65.62-4.06,1.4-.35.19-.7.41-1.02.65-.97.71-1.76,1.61-2.09,2.63-.13.34-.17.68-.19,1.04-.01.36,0,.74.02,1.16.02.81.03,1.63.04,2.46Zm117.96,17.09c14.88,8.24,44.65,24.57,59.58,32.71,22.64.29,47.63,1.08,70.14.12,7.76-.27,15.51-.66,23.27-1.24v-.37c-7.75-.58-15.51-.97-23.27-1.24-22.43-.94-47.23-.18-69.79.12-11.58-6.4-45.75-23.23-59.75-30.43l-.17.33Zm-81.88-138.26c18.76,0,33.11,1.89,43.32,4.02-10.78-2.63-24.98-4.58-43.32-4.58-28.23,0-46.71,4.61-57.87,9.24-2.4.97-2.69,2.15-2.23,3.19,5.32-2.96,24.3-11.86,60.1-11.86Z"/>
    </g>
  </g>
</svg>