<svg width="40" height="40" viewBox="0 0 40 40" fill="none" xmlns="http://www.w3.org/2000/svg"><g clip-path="url(#clip0)"><path fill-rule="evenodd" clip-rule="evenodd" d="M39.6873 19.5045C39.688 18.74 39.3898 18.0212 38.8488 17.4813C38.308 16.9408 37.5873 16.6432 36.8203 16.6432H36.7395C35.9905 16.6432 35.287 16.9345 34.759 17.4637L28.165 24.0583V0H6.77604L-0.000213623 6.77625V39.6875H28.165V32.271L36.4868 23.9495L36.6353 24.098C36.9478 24.411 37.127 24.843 37.127 25.2847C37.127 25.7265 36.9478 26.1587 36.6353 26.4715L32.0058 31.1007C31.593 31.5137 31.3658 32.0622 31.3658 32.6462C31.3658 33.23 31.593 33.779 32.0058 34.1915L32.8335 35.019L33.7388 34.1137L32.911 33.2862C32.74 33.1147 32.646 32.8882 32.646 32.6462C32.646 32.4042 32.74 32.1775 32.911 32.006L37.5403 27.3767C38.0915 26.8257 38.407 26.0637 38.407 25.2847C38.407 24.5057 38.0915 23.7437 37.5403 23.1927L37.392 23.0442L38.8373 21.599C39.385 21.0512 39.6873 20.3225 39.6873 19.5045ZM6.40104 2.1855V6.40125H2.18528L6.40104 2.1855ZM26.885 38.4073H1.28004V7.68149H7.68129V1.28025H26.885V25.3392L20.5535 31.6712L19.361 35.8468H18.4303C18.3615 35.8468 18.3003 35.8082 18.2695 35.7475L17.2343 33.6772L17.7875 32.7915C18.295 31.9785 18.5633 31.0435 18.5633 30.0857C18.5633 29.027 17.7015 28.1652 16.643 28.1652C15.5843 28.1652 14.7225 29.027 14.7225 30.0857V30.3122C14.7225 31.1002 14.9088 31.89 15.2613 32.5948L15.7678 33.607L14.4203 35.763C14.3883 35.815 14.3295 35.8468 14.268 35.8468H13.4423C13.3598 35.8468 13.288 35.7905 13.2683 35.7105L12.9378 34.3912C12.7753 33.7407 12.1928 33.2862 11.522 33.2862C10.8513 33.2862 10.2688 33.7407 10.106 34.3918L9.77579 35.711C9.75604 35.7905 9.68429 35.8468 9.60154 35.8468H7.68129V37.127H9.60154C10.2725 37.127 10.855 36.6725 11.0175 36.0215L11.348 34.7022C11.3875 34.5422 11.6563 34.5422 11.6968 34.7022L12.0273 36.0215C12.189 36.6725 12.7715 37.127 13.4423 37.127H14.268C14.7753 37.127 15.2388 36.871 15.506 36.4415L16.4388 34.9492L17.1243 36.3205C17.3735 36.818 17.874 37.127 18.4303 37.127H19.9333L24.6598 35.777L26.885 33.5512V38.4073ZM21.4408 33.2282L23.1023 34.8897L20.7758 35.5547L21.4408 33.2282ZM16.7023 32.1122L16.563 32.3353L16.4065 32.0225C16.1423 31.494 16.0028 30.9025 16.0028 30.3122V30.0857C16.0028 29.7325 16.2898 29.4455 16.643 29.4455C16.9963 29.4455 17.283 29.7325 17.283 30.0857C17.283 30.8032 17.0828 31.504 16.7023 32.1122ZM24.3245 34.3015L22.029 32.006L33.2855 20.7482L35.5815 23.0442L24.3245 34.3015ZM37.932 20.694L36.4868 22.1392L34.1905 19.8432L35.6648 18.3687C35.951 18.0815 36.333 17.9235 36.7395 17.9235H36.8203C37.246 17.9235 37.6455 18.0877 37.9448 18.3875C38.2428 18.685 38.407 19.082 38.407 19.548C38.407 19.9805 38.238 20.388 37.932 20.694ZM5.12079 35.8468H6.40104V37.127H5.12079V35.8468ZM24.3245 2.5605H25.6045V3.84075H24.3245V2.5605ZM15.3628 2.5605H23.0443V3.84075H15.3628V2.5605ZM24.3245 5.121H25.6045V6.40125H24.3245V5.121ZM15.3628 5.121H23.0443V6.40125H15.3628V5.121ZM24.3245 7.68149H25.6045V8.96174H24.3245V7.68149ZM15.3628 7.68149H23.0443V8.96174H15.3628V7.68149ZM2.56028 10.242H25.6045V11.5222H2.56028V10.242ZM2.56028 12.8025H25.6045V14.0827H2.56028V12.8025ZM2.56028 15.3627H25.6045V16.6432H2.56028V15.3627ZM11.522 18.5635H12.8023V19.8438H11.522V18.5635ZM14.0825 18.5635H25.6045V19.8438H14.0825V18.5635ZM11.522 21.124H25.6045V22.4042H11.522V21.124ZM11.522 23.6845H25.6045V24.9647H11.522V23.6845ZM6.40104 25.6047C8.51929 25.6047 10.2418 23.8825 10.2418 21.764C10.2418 19.6457 8.51929 17.9235 6.40104 17.9235C4.28279 17.9235 2.56028 19.6457 2.56028 21.764C2.56028 23.8825 4.28279 25.6047 6.40104 25.6047ZM6.40104 19.2035C7.81329 19.2035 8.96154 20.352 8.96154 21.764C8.96154 23.1762 7.81329 24.3247 6.40104 24.3247C4.98904 24.3247 3.84053 23.1762 3.84053 21.764C3.84053 20.352 4.98904 19.2035 6.40104 19.2035ZM2.56028 26.885H11.522V28.1652H2.56028V26.885ZM2.56028 29.4455H11.522V30.7257H2.56028V29.4455Z" fill="#FE5000"/></g><defs><clipPath id="clip0"><path fill="#fff" d="M0 0H40V40H0z"/></clipPath></defs></svg>