<svg viewBox="0 0 40 40" fill="none" xmlns="http://www.w3.org/2000/svg"><g clip-path="url(#clip0)"><path fill-rule="evenodd" clip-rule="evenodd" d="M32.9519 26.7802C35.4754 23.9362 37.0129 20.1978 37.0129 16.1052C37.0129 11.8475 35.3486 7.97325 32.6411 5.0905V5.08999C32.6389 5.08649 32.6354 5.08549 32.6336 5.0825C29.8131 2.08425 25.8614 0.165008 21.4656 0.0142578L21.4651 0.0137451L21.1511 0.00549316C21.0701 0.00274316 20.9891 0 20.9074 0C20.8256 0 20.7446 0.00274316 20.6634 0.00549316L20.3509 0.0137451L20.3504 0.0142578C15.9546 0.165008 12.0029 2.08425 9.18236 5.0825C9.18011 5.08549 9.17662 5.08649 9.17487 5.08999C9.17487 5.08999 9.17487 5.0905 9.17437 5.09075C6.72887 7.6935 5.13487 11.1047 4.84887 14.8775C5.21137 15.007 5.57511 15.1395 5.93961 15.2735C6.13236 11.7688 7.53211 8.5815 9.73261 6.12175C11.1141 7.02 12.5854 7.74001 14.1201 8.27776C13.1801 10.5585 12.6604 13.0175 12.5926 15.55H6.68537C7.65537 15.912 8.62911 16.2852 9.60086 16.6607H12.5926C12.6034 17.057 12.6254 17.4515 12.6581 17.8435C13.0459 17.9925 13.4319 18.141 13.8166 18.2867C13.7566 17.7495 13.7186 17.207 13.7031 16.6607H18.2844C18.4151 16.5447 18.5461 16.4303 18.6786 16.3198C19.0044 16.0513 19.3184 15.7948 19.6206 15.55H13.7031C13.7716 13.1355 14.2781 10.7935 15.1839 8.622C16.8534 9.1055 18.5866 9.37326 20.3521 9.42051V14.9617C20.7451 14.6485 21.1154 14.7297 21.4629 14.4615V9.42051C23.2284 9.37326 24.9616 9.10625 26.6314 8.622C27.5371 10.7935 28.0436 13.1355 28.1119 15.55L25.4689 15.5808L25.6591 16.669L28.1116 16.6607C28.0486 18.8925 27.6094 21.0615 26.8274 23.0917C25.1379 22.5827 23.3804 22.297 21.5869 22.2393L21.3064 22.4712L20.2834 23.3482L20.3521 23.346V29.431L20.7336 32.2075C20.7916 32.2092 20.8491 32.2107 20.9074 32.2107C20.9891 32.2107 21.0701 32.2078 21.1511 32.205L21.4639 32.1968L21.4646 32.1962C26.0099 32.0402 30.0831 29.9943 32.9186 26.8175C32.9259 26.8083 32.9376 26.8055 32.9444 26.7952C32.9486 26.7907 32.9486 26.7855 32.9519 26.7802ZM23.6814 15.1955C23.9354 15.25 24.1681 15.346 24.3864 15.4825L24.3946 15.488C24.7061 15.7142 24.9316 16.0285 25.0411 16.3775C25.1461 16.712 25.1449 17.0808 25.0109 17.436C24.9314 17.7523 24.8129 18.0548 24.6756 18.336C24.5371 18.6188 24.3799 18.8805 24.2241 19.1143C24.0156 19.427 23.7939 19.7268 23.5339 20.026C23.2739 20.325 22.9739 20.625 22.6086 20.9383C22.1861 21.286 21.7594 21.6483 21.3339 22.0093C20.9144 22.365 20.4946 22.7217 20.0451 23.0917L18.9646 24.0183C18.8541 24.106 18.7779 24.1922 18.7369 24.289C18.6964 24.3872 18.6866 24.5052 18.7086 24.6575C19.2276 28.383 19.7359 32.11 20.2469 35.8367C20.2736 36.0475 20.2996 36.297 20.2996 36.573C20.2996 36.8512 20.2724 37.1575 20.1926 37.4782L20.1921 37.481C20.0836 37.8868 19.8936 38.2397 19.6229 38.5442C19.3591 38.8407 19.0184 39.0915 18.6011 39.303C18.5404 39.359 18.4679 39.4018 18.3906 39.4373C18.3194 39.47 18.2416 39.4962 18.1644 39.522C18.0559 39.5757 17.9451 39.617 17.8339 39.6445C17.7194 39.673 17.6051 39.6875 17.4926 39.6875C17.2071 39.6875 16.9484 39.6012 16.7251 39.4365C16.5079 39.2755 16.3256 39.0403 16.1876 38.7383C16.0959 38.5543 16.0226 38.356 15.9474 38.1508C15.8929 38.0028 15.8364 37.8495 15.7744 37.7048C15.0076 35.7885 14.0549 33.5733 13.4114 31.6435C13.3114 31.343 13.1861 31.0542 13.0419 30.7722C12.8974 30.4892 12.7324 30.2103 12.5546 29.9312L12.4796 29.8067L11.9404 30.2218C11.0949 30.9048 10.2196 31.5737 9.33737 32.248C8.88187 32.5962 8.42336 32.9468 7.90861 33.3468C8.04236 33.8823 8.17561 34.4075 8.29536 34.9452C8.40186 35.2675 8.44211 35.5778 8.42886 35.874C8.41536 36.1727 8.34736 36.458 8.23961 36.728C8.13161 37.048 7.95786 37.3175 7.73286 37.5333C7.49761 37.759 7.20511 37.9283 6.87136 38.0393L6.86786 38.041C6.34911 38.1962 5.93636 37.9823 5.69761 37.8583L5.63561 37.826C5.52161 37.7685 5.42136 37.6968 5.32886 37.6115C5.23761 37.527 5.15462 37.4308 5.07437 37.3235C4.47412 36.5925 3.87462 35.8495 3.28437 35.1028C2.71712 34.385 2.15036 33.6543 1.59036 32.9165L0.622366 31.6945C0.518616 31.5905 0.413868 31.4853 0.306118 31.3248C0.0818682 31.043 -0.0176357 30.7438 0.00211434 30.4488C0.0218643 30.1498 0.164359 29.8603 0.421609 29.603L0.425613 29.5985C0.681613 29.3425 0.938363 29.086 1.20061 28.8762C1.44786 28.6575 1.73686 28.532 2.03886 28.4945C2.35111 28.4553 2.67861 28.5102 2.98886 28.6512C3.22236 28.7557 3.44111 28.872 3.65961 28.9873C3.87611 29.1018 4.09311 29.2168 4.32036 29.3175L4.86386 29.5645C4.89461 29.5693 4.92036 29.58 4.94511 29.5915C5.09861 29.4408 5.26186 29.2892 5.42461 29.138C5.59786 28.9772 5.77161 28.816 5.95911 28.6285L9.20661 25.5315L9.12811 25.4317C9.07561 25.3665 9.02336 25.301 8.97061 25.2225C8.54786 24.7078 7.98462 24.3183 7.37236 23.8955L7.26087 23.8183C6.38887 23.203 5.50661 22.602 4.62511 22.0018C3.73786 21.3975 2.85036 20.7928 1.97836 20.177C1.89736 20.1228 1.80411 20.056 1.70886 19.98C1.60736 19.8985 1.49986 19.805 1.39561 19.7008C1.11736 19.4483 0.949863 19.1505 0.901113 18.8375C0.852363 18.5245 0.922111 18.199 1.11736 17.8903C1.27536 17.601 1.47311 17.324 1.70336 17.0673C1.93511 16.809 2.19986 16.5703 2.48936 16.36C2.67561 16.2065 2.92962 16.0705 3.24937 16.017C3.50662 15.974 3.80712 15.9848 4.14837 16.082C4.50162 16.183 4.81286 16.2865 5.12311 16.39C8.27386 17.4402 11.5776 18.8057 14.7131 19.9792C14.9116 20.0287 15.1109 20.0793 15.2686 20.1308C15.3919 20.1498 15.4954 20.1393 15.5921 20.1038C15.6944 20.066 15.7961 19.9982 15.9104 19.9077C16.0349 19.7835 16.1664 19.665 16.2974 19.5472C16.4209 19.4362 16.5446 19.3245 16.6754 19.194C17.0964 18.8537 17.4986 18.457 17.9166 18.1085C18.7934 17.3865 19.5639 16.7697 20.2271 16.2597L20.2301 16.2577C20.6221 15.9697 21.0294 15.7338 21.4629 15.55C21.8954 15.366 22.3556 15.2343 22.8551 15.1558L22.8639 15.1548C23.1604 15.128 23.4316 15.1413 23.6814 15.1955ZM23.4821 17.8595C23.5931 17.6355 23.6929 17.3988 23.7674 17.151L23.7834 17.0988C23.8114 16.986 23.8074 16.8783 23.7784 16.7948C23.7554 16.7295 23.7194 16.6812 23.6754 16.6647L23.6341 16.65C23.5444 16.605 23.4534 16.5708 23.3589 16.554C23.2656 16.5373 23.1669 16.5373 23.0581 16.5593L23.0484 16.561C22.6814 16.6098 22.3249 16.7083 21.9876 16.8478C21.6414 16.9915 21.3139 17.18 21.0134 17.405C20.5421 17.7678 20.0499 18.1772 19.4979 18.6367L18.7636 19.2455L17.5406 20.3157C17.4151 20.4415 17.2824 20.5617 17.1499 20.6805C17.0264 20.7915 16.9026 20.9032 16.7719 21.0337L16.7656 21.0393C16.5214 21.2563 16.2486 21.4067 15.9626 21.4897C15.6711 21.5747 15.3641 21.589 15.0581 21.5337L14.9294 21.503C14.7464 21.4598 14.5341 21.4087 14.3159 21.322L4.72437 17.7317C4.59662 17.6807 4.45811 17.63 4.31011 17.5808C4.16261 17.5318 3.99761 17.4808 3.81511 17.429C3.65586 17.3835 3.54561 17.371 3.46836 17.3815C3.40836 17.389 3.36861 17.413 3.33761 17.4442L3.32437 17.4563C3.09787 17.6322 2.88487 17.8202 2.69937 18.018C2.51487 18.2145 2.35461 18.424 2.23286 18.6438L2.22311 18.6617L2.20937 18.6752C2.19087 18.6937 2.17736 18.6798 2.17886 18.6905C2.18011 18.7003 2.20662 18.7298 2.26087 18.7843C2.40637 18.9295 2.55311 19.0275 2.69961 19.1248L2.70386 19.1275C3.58386 19.7487 4.46762 20.3635 5.34312 20.9665C6.20512 21.5595 7.09187 22.1635 7.98112 22.7653C8.34237 22.9973 8.69261 23.2442 9.02511 23.5177C9.35586 23.79 9.66711 24.0885 9.95236 24.424C10.0564 24.528 10.1374 24.6508 10.2226 24.781C10.2716 24.856 10.3234 24.935 10.3749 25.0038L10.3881 25.025C10.4089 25.0665 10.4331 25.1033 10.4566 25.1385C10.4826 25.1775 10.5086 25.2165 10.5359 25.2698L10.8571 25.7183C9.54586 27.025 8.17212 28.2755 6.82387 29.5455C6.62187 29.7473 6.41536 29.9413 6.20911 30.1343C6.00561 30.3255 5.80111 30.517 5.59386 30.7245L5.58186 30.7355C5.43136 30.8555 5.26286 30.9305 5.09386 30.9515C4.92736 30.9715 4.76112 30.9413 4.60987 30.8528L4.30386 30.6998L3.73437 30.4403C3.50212 30.311 3.28537 30.1965 3.07287 30.0903C2.86262 29.985 2.64611 29.883 2.41261 29.7795L2.40636 29.7762C2.32361 29.7345 2.24186 29.714 2.17036 29.7205C2.11136 29.7258 2.05461 29.752 2.00486 29.8018L1.98936 29.8147C1.88886 29.8897 1.77737 29.9887 1.66812 30.092L1.30661 30.4482L1.37786 30.559C1.43386 30.6478 1.47812 30.7175 1.54262 30.782C1.82712 31.0663 2.25636 31.6825 2.52786 32.0255C3.08136 32.7547 3.64711 33.4875 4.22711 34.2305C4.78111 34.9402 5.36211 35.6765 5.96336 36.4345L5.97836 36.4587C5.99736 36.4957 6.02686 36.5355 6.06161 36.5702C6.09661 36.6047 6.13587 36.635 6.17237 36.6532L6.18761 36.662C6.27236 36.7188 6.32786 36.7345 6.35211 36.7387C6.49836 36.6937 6.61461 36.629 6.70861 36.5452C6.80986 36.455 6.89011 36.34 6.95886 36.203C7.02586 36.0673 7.06011 35.9192 7.06561 35.7605C7.07161 35.5952 7.04711 35.4153 6.99911 35.2228L6.89586 34.7575C6.84611 34.5327 6.78211 34.302 6.71836 34.072C6.65436 33.8422 6.59061 33.6115 6.53836 33.3768C6.50886 33.2603 6.47961 33.113 6.51061 32.951C6.54211 32.7863 6.63361 32.6147 6.84386 32.463L7.61436 31.8633C8.75286 30.976 9.91961 30.0667 11.1019 29.1803L12.8084 27.914C13.1231 28.3685 13.3826 28.7497 13.6646 29.2202C13.8444 29.527 14.0234 29.8338 14.1944 30.1558C14.3624 30.4725 14.5186 30.798 14.6496 31.1387L16.9041 37.1855C16.9726 37.3447 17.0281 37.4963 17.0826 37.6435C17.1551 37.8408 17.2259 38.032 17.3106 38.2022L17.3151 38.2133C17.3516 38.3045 17.3829 38.358 17.4184 38.3725C17.4599 38.39 17.5339 38.3773 17.6541 38.3375C17.7984 38.2897 17.8966 38.2403 17.9944 38.1913C18.2344 38.0713 18.4254 37.9283 18.5739 37.762C18.7206 37.5968 18.8271 37.4075 18.8979 37.195C18.9446 37.0547 18.9686 36.9005 18.9744 36.7222C18.9804 36.538 18.9676 36.326 18.9431 36.0768C18.4324 32.352 17.9344 28.6242 17.4051 24.9022C17.3506 24.519 17.3919 24.1617 17.5226 23.8442C17.6531 23.5277 17.8719 23.2522 18.1714 23.0317L19.1971 22.1605C20.0689 21.4427 20.9394 20.7255 21.7589 20.0085L21.7616 20.0063C22.0621 19.756 22.3266 19.5037 22.5536 19.2515C22.7789 19.0012 22.9664 18.7517 23.1154 18.5035C23.2439 18.2972 23.3709 18.082 23.4821 17.8595ZM7.35261 24.789C7.51711 25.044 7.68862 25.2948 7.86662 25.5403L7.92611 25.4835L7.82886 25.3603C7.76436 25.2798 7.69986 25.199 7.63461 25.102C7.54561 24.9935 7.45136 24.8892 7.35261 24.789ZM35.8881 15.55H29.2221C29.1544 13.0175 28.6346 10.5585 27.6949 8.27776C29.2296 7.74001 30.7004 7.02 32.0821 6.12175C34.3404 8.646 35.7554 11.9362 35.8881 15.55ZM20.3521 8.30974C18.7464 8.26449 17.1704 8.02499 15.6479 7.59724C16.7736 5.28799 18.3629 3.20376 20.3521 1.46851V8.30974ZM21.4629 8.30974V1.46851C23.4521 3.20376 25.0414 5.28799 26.1671 7.59724C24.6444 8.02499 23.0684 8.26449 21.4629 8.30974ZM27.2434 7.2595C26.1766 5.0245 24.6961 2.98775 22.8629 1.2425C26.1151 1.66775 29.0411 3.13825 31.2946 5.30625C30.0154 6.11825 28.6581 6.7715 27.2434 7.2595ZM14.5714 7.2595C13.1569 6.77125 11.7994 6.11825 10.5206 5.30625C12.7736 3.13825 15.7006 1.66775 18.9529 1.2425C17.1186 2.988 15.6381 5.0245 14.5714 7.2595ZM21.4629 30.7423V23.346C23.1504 23.3932 24.8044 23.655 26.3966 24.1235C25.2614 26.6278 23.5921 28.8845 21.4629 30.7423ZM29.2221 16.6607H35.8881C35.7614 20.1095 34.4669 23.2643 32.3856 25.7395C30.9706 24.7833 29.4606 24.017 27.8809 23.4455C28.7001 21.3023 29.1596 19.0147 29.2221 16.6607ZM22.8629 30.9683C24.8254 29.1003 26.3759 26.8938 27.4561 24.4718C28.9179 24.9965 30.3164 25.6985 31.6309 26.5715C29.3361 28.9218 26.2789 30.5213 22.8629 30.9683Z" fill="#FE5000"/></g><defs><clipPath id="clip0"><path fill="#fff" d="M0 0H40V40H0z"/></clipPath></defs></svg>