<svg viewBox="0 0 40 40" fill="none" xmlns="http://www.w3.org/2000/svg"><g clip-path="url(#clip0)"><path fill-rule="evenodd" clip-rule="evenodd" d="M3.1359 5H36.5516C37.4149 5 38.1992 5.35251 38.7672 5.92051V5.924C39.3346 6.492 39.6876 7.27502 39.6876 8.13577V30.4367C39.6876 31.2972 39.3346 32.0805 38.7672 32.6485L38.7636 32.652C38.1956 33.2195 37.4124 33.5725 36.5516 33.5725H3.1359C2.2749 33.5725 1.4919 33.2195 0.9239 32.652H0.920396C0.352396 32.0843 -9.91821e-05 31.2997 -9.91821e-05 30.4367V8.13577C-9.91821e-05 7.27277 0.352396 6.48826 0.920396 5.92051C1.4884 5.35251 2.27265 5 3.1359 5ZM1.87589 11.639H37.8116V8.13577C37.8116 7.78902 37.6704 7.473 37.4429 7.24475C37.2124 7.01775 36.8974 6.87576 36.5516 6.87576H3.1359C2.79015 6.87576 2.47515 7.01776 2.2464 7.24651C2.0179 7.47501 1.87589 7.79027 1.87589 8.13577V11.639ZM37.8116 13.6058H1.87589V16.5735H37.8116V13.6058ZM1.87589 18.5403V30.4367C1.87589 30.7822 2.0179 31.0975 2.2464 31.326C2.47315 31.5555 2.7889 31.6968 3.1359 31.6968H36.5516C36.8989 31.6968 37.2144 31.5553 37.4429 31.3278C37.6701 31.0995 37.8116 30.7837 37.8116 30.4367V18.5403H1.87589ZM23.8851 28.065H33.1801V29.5568H23.8851V28.065Z" fill="#FE5000"/></g><defs><clipPath id="clip0"><path fill="#fff" d="M0 0H40V40H0z"/></clipPath></defs></svg>